%
M48
M72
T01C0.0120
T02C0.0200
T03C0.0400
T04C0.0433
%
T01
X10660Y9993
X10660Y10393
X11060Y10393
X10060Y10593
X10060Y10893
X10060Y11193
X10060Y11493
X9710Y10543
X9410Y10543
X9110Y10543
X8810Y10543
X8460Y10593
X8460Y10893
X8460Y11193
X8460Y11493
X11260Y11443
X11260Y11743
X12560Y11743
X12560Y11443
X13660Y11593
X13660Y11193
X13660Y10793
X14260Y11443
X14260Y11743
X15660Y11393
X15660Y10993
X15660Y10593
X16160Y10593
X16160Y10893
X16160Y11193
X16160Y11493
X16510Y10543
X16810Y10543
X17110Y10543
X17410Y10543
X17760Y10593
X17760Y10893
X17760Y11193
X17760Y11493
X18260Y11393
X18560Y11593
X20460Y11793
X20460Y12093
X22160Y11093
X17660Y6093
X16260Y6093
X14660Y5793
X13160Y5493
X12760Y5493
X12360Y5493
X12332Y7746
X12082Y7746
X11832Y7746
X11582Y7746
X11582Y7996
X11582Y8246
X11582Y8496
X11582Y8746
X11832Y8746
X11832Y8496
X11832Y8246
X11832Y7996
X12082Y7996
X12082Y8246
X12082Y8496
X12082Y8746
X12332Y8746
X12332Y8496
X12332Y8246
X12332Y7996
X12582Y7996
X12582Y8246
X12582Y8496
X12582Y8746
X12832Y8746
X12832Y8496
X12832Y8246
X12832Y7996
X12832Y7746
X12582Y7746
X13082Y7746
X13082Y7996
X13082Y8246
X13082Y8496
X13082Y8746
X13332Y8746
X13332Y8496
X13332Y8246
X13332Y7996
X13332Y7746
X13582Y7746
X13582Y7996
X13582Y8246
X13582Y8496
X13582Y8746
X13832Y8746
X13832Y8496
X13832Y8246
X13832Y7996
X13832Y7746
X14082Y7746
X14082Y7996
X14082Y8246
X14082Y8496
X14082Y8746
X20460Y5593
X20460Y5193
X20760Y5193
X21160Y5193
X21460Y5193
X21460Y5593
X22060Y16193
X20926Y16710
X20926Y17610
X20926Y18570
X19660Y18793
X19660Y19193
X19660Y19593
X18926Y18770
X19960Y20193
X20520Y20693
X20926Y20250
X19660Y17193
X19360Y16993
X19060Y17193
X18560Y17193
X17960Y17193
X18560Y16193
X16260Y17093
X16260Y17793
X15760Y17793
X13560Y17793
X13060Y17793
X13560Y17093
X10760Y17093
X10760Y17793
X10260Y17793
X23860Y16793
X25360Y18593
X24760Y18793
X24760Y20193
T02
X22660Y21093
X23260Y13593
X21130Y12993
X18760Y9993
X16460Y9993
T03
X7260Y5193
X7260Y6193
X7260Y7193
X7260Y8193
X7260Y9193
X7260Y10193
X7260Y11193
X7260Y12193
X7260Y13193
X7260Y14193
X7260Y15693
X7260Y16693
X7260Y17693
X7260Y18693
X7260Y19693
X7260Y20693
X7260Y21693
X7260Y22693
X17820Y20993
X18820Y20993
X26260Y20693
X26260Y19693
X26260Y18693
X26260Y17693
X26260Y15693
X26260Y14693
X26260Y13693
X26260Y12693
X26260Y11693
X26260Y10693
X26260Y9693
X26260Y8693
X26260Y21693
X26260Y22693
T04
X16404Y20954
X15026Y20954
X13648Y20954
X12271Y20954
X10893Y20954
X9515Y20954
X23371Y6833
X24748Y6833
M30
