G75*
G70*
%OFA0B0*%
%FSLAX24Y24*%
%IPPOS*%
%LPD*%
%AMOC8*
5,1,8,0,0,1.08239X$1,22.5*
%
%ADD10C,0.0060*%
%ADD11R,0.0300X0.0180*%
%ADD12C,0.0050*%
%ADD13C,0.0160*%
%ADD14C,0.0040*%
%ADD15C,0.0080*%
%ADD16R,0.0160X0.0280*%
%ADD17R,0.0280X0.0160*%
%ADD18C,0.0220*%
%ADD19C,0.0079*%
%ADD20C,0.0020*%
%ADD21C,0.0059*%
D10*
X007963Y004973D02*
X007890Y005047D01*
X007963Y004973D02*
X008110Y004973D01*
X008183Y005047D01*
X008183Y005120D01*
X008110Y005193D01*
X007963Y005193D01*
X007890Y005267D01*
X007890Y005340D01*
X007963Y005414D01*
X008110Y005414D01*
X008183Y005340D01*
X008350Y005340D02*
X008350Y005047D01*
X008423Y004973D01*
X008570Y004973D01*
X008643Y005047D01*
X008810Y004973D02*
X009104Y004973D01*
X008810Y004973D02*
X008810Y005414D01*
X008643Y005340D02*
X008570Y005414D01*
X008423Y005414D01*
X008350Y005340D01*
X008037Y006027D02*
X007941Y006068D01*
X008037Y006027D02*
X008173Y006081D01*
X008214Y006176D01*
X008187Y006244D01*
X008092Y006286D01*
X007956Y006232D01*
X007860Y006273D01*
X007833Y006341D01*
X007875Y006436D01*
X008011Y006490D01*
X008106Y006449D01*
X008234Y006579D02*
X008439Y006660D01*
X008534Y006619D01*
X008642Y006346D01*
X008601Y006250D01*
X008396Y006169D01*
X008234Y006579D01*
X007954Y006992D02*
X007866Y007272D01*
X007963Y007456D01*
X008147Y007360D01*
X008234Y007079D01*
X008393Y007129D02*
X008306Y007409D01*
X008349Y007269D02*
X008446Y007453D01*
X008516Y007475D01*
X008694Y007453D02*
X008742Y007545D01*
X008882Y007589D01*
X008974Y007541D01*
X008996Y007471D01*
X008716Y007383D01*
X008738Y007313D02*
X008694Y007453D01*
X008738Y007313D02*
X008830Y007265D01*
X008970Y007309D01*
X009269Y007402D02*
X009160Y007752D01*
X009208Y007844D01*
X009274Y007634D02*
X009134Y007590D01*
X008799Y006802D02*
X008989Y006720D01*
X009097Y006447D01*
X009016Y006652D02*
X008743Y006543D01*
X008716Y006612D02*
X008799Y006802D01*
X008716Y006612D02*
X008825Y006339D01*
X008168Y007290D02*
X007888Y007202D01*
X008024Y008014D02*
X007932Y008062D01*
X007844Y008343D01*
X007893Y008434D01*
X008033Y008478D01*
X008125Y008430D01*
X008168Y008290D02*
X008028Y008246D01*
X008168Y008290D02*
X008212Y008150D01*
X008164Y008058D01*
X008024Y008014D01*
X008393Y008129D02*
X008262Y008550D01*
X008673Y008216D01*
X008542Y008637D01*
X008702Y008686D02*
X008833Y008266D01*
X009043Y008331D01*
X009091Y008423D01*
X009004Y008704D01*
X008912Y008752D01*
X008702Y008686D01*
X008570Y008973D02*
X008423Y008973D01*
X008350Y009047D01*
X008183Y008973D02*
X007890Y008973D01*
X008036Y008973D02*
X008036Y009414D01*
X007890Y009267D01*
X008350Y009340D02*
X008423Y009414D01*
X008570Y009414D01*
X008643Y009340D01*
X008643Y009267D01*
X008570Y009193D01*
X008643Y009120D01*
X008643Y009047D01*
X008570Y008973D01*
X008570Y009193D02*
X008497Y009193D01*
X008643Y009973D02*
X008350Y009973D01*
X008643Y010267D01*
X008643Y010340D01*
X008570Y010414D01*
X008423Y010414D01*
X008350Y010340D01*
X008036Y010414D02*
X008036Y009973D01*
X007890Y009973D02*
X008183Y009973D01*
X007890Y010267D02*
X008036Y010414D01*
X008036Y010973D02*
X008036Y011414D01*
X007890Y011267D01*
X007890Y010973D02*
X008183Y010973D01*
X008350Y010973D02*
X008643Y010973D01*
X008497Y010973D02*
X008497Y011414D01*
X008350Y011267D01*
X008423Y011973D02*
X008350Y012047D01*
X008643Y012340D01*
X008643Y012047D01*
X008570Y011973D01*
X008423Y011973D01*
X008350Y012047D02*
X008350Y012340D01*
X008423Y012414D01*
X008570Y012414D01*
X008643Y012340D01*
X008183Y011973D02*
X007890Y011973D01*
X008036Y011973D02*
X008036Y012414D01*
X007890Y012267D01*
X007963Y012973D02*
X008110Y012973D01*
X008183Y013047D01*
X008183Y013340D01*
X008110Y013414D01*
X007963Y013414D01*
X007890Y013340D01*
X007890Y013267D01*
X007963Y013193D01*
X008183Y013193D01*
X007963Y012973D02*
X007890Y013047D01*
X007963Y013973D02*
X007890Y014047D01*
X007890Y014120D01*
X007963Y014193D01*
X008110Y014193D01*
X008183Y014120D01*
X008183Y014047D01*
X008110Y013973D01*
X007963Y013973D01*
X007963Y014193D02*
X007890Y014267D01*
X007890Y014340D01*
X007963Y014414D01*
X008110Y014414D01*
X008183Y014340D01*
X008183Y014267D01*
X008110Y014193D01*
X007890Y015473D02*
X007890Y015547D01*
X008183Y015840D01*
X008183Y015914D01*
X007890Y015914D01*
X007963Y016473D02*
X008110Y016473D01*
X008183Y016547D01*
X008183Y016620D01*
X008110Y016693D01*
X007890Y016693D01*
X007890Y016547D01*
X007963Y016473D01*
X007890Y016693D02*
X008036Y016840D01*
X008183Y016914D01*
X008110Y017473D02*
X007963Y017473D01*
X007890Y017547D01*
X007890Y017693D02*
X008036Y017767D01*
X008110Y017767D01*
X008183Y017693D01*
X008183Y017547D01*
X008110Y017473D01*
X007890Y017693D02*
X007890Y017914D01*
X008183Y017914D01*
X008110Y018473D02*
X008110Y018914D01*
X007890Y018693D01*
X008183Y018693D01*
X008110Y019473D02*
X007963Y019473D01*
X007890Y019547D01*
X008036Y019693D02*
X008110Y019693D01*
X008183Y019620D01*
X008183Y019547D01*
X008110Y019473D01*
X008110Y019693D02*
X008183Y019767D01*
X008183Y019840D01*
X008110Y019914D01*
X007963Y019914D01*
X007890Y019840D01*
X007890Y020473D02*
X008183Y020767D01*
X008183Y020840D01*
X008110Y020914D01*
X007963Y020914D01*
X007890Y020840D01*
X007890Y020473D02*
X008183Y020473D01*
X008036Y021473D02*
X008036Y021914D01*
X007890Y021914D02*
X008183Y021914D01*
X008350Y021914D02*
X008643Y021473D01*
X008350Y021473D02*
X008643Y021914D01*
X008643Y022473D02*
X008350Y022914D01*
X008183Y022840D02*
X008183Y022693D01*
X008110Y022620D01*
X007890Y022620D01*
X008036Y022620D02*
X008183Y022473D01*
X008350Y022473D02*
X008643Y022914D01*
X008183Y022840D02*
X008110Y022914D01*
X007890Y022914D01*
X007890Y022473D01*
X009330Y022963D02*
X009623Y022963D01*
X010050Y022890D02*
X010270Y022890D01*
X010343Y022963D01*
X010343Y023110D01*
X010270Y023184D01*
X010050Y023184D01*
X010050Y022743D01*
X010196Y022890D02*
X010343Y022743D01*
X010770Y022963D02*
X011063Y022963D01*
X010916Y023110D02*
X010916Y022817D01*
X012090Y022963D02*
X012383Y022963D01*
X012810Y022817D02*
X012883Y022743D01*
X013030Y022743D01*
X013103Y022817D01*
X013103Y022963D01*
X012956Y022963D01*
X012810Y022817D02*
X012810Y023110D01*
X012883Y023184D01*
X013030Y023184D01*
X013103Y023110D01*
X013530Y022963D02*
X013823Y022963D01*
X013676Y023110D02*
X013676Y022817D01*
X014850Y022963D02*
X015143Y022963D01*
X015570Y022963D02*
X015790Y022963D01*
X015863Y022890D01*
X015863Y022817D01*
X015790Y022743D01*
X015570Y022743D01*
X015570Y023184D01*
X015790Y023184D01*
X015863Y023110D01*
X015863Y023037D01*
X015790Y022963D01*
X016290Y022963D02*
X016583Y022963D01*
X016436Y023110D02*
X016436Y022817D01*
X017490Y022284D02*
X017783Y022284D01*
X017636Y022284D02*
X017636Y021843D01*
X017950Y021843D02*
X018243Y021843D01*
X018410Y021843D02*
X018410Y022284D01*
X018557Y022137D01*
X018704Y022284D01*
X018704Y021843D01*
X018871Y021843D02*
X018871Y022284D01*
X019091Y022284D01*
X019164Y022210D01*
X019164Y022063D01*
X019091Y021990D01*
X018871Y021990D01*
X018243Y022284D02*
X017950Y022284D01*
X017950Y021843D01*
X017950Y022063D02*
X018097Y022063D01*
X017600Y019719D02*
X017600Y019025D01*
X018720Y019025D02*
X018720Y019719D01*
X020661Y020239D02*
X022458Y020239D01*
X022458Y016468D01*
X020661Y016468D01*
X020661Y020239D01*
X020900Y019761D02*
X020902Y019787D01*
X020908Y019813D01*
X020917Y019837D01*
X020930Y019860D01*
X020946Y019881D01*
X020965Y019899D01*
X020986Y019915D01*
X021010Y019927D01*
X021034Y019935D01*
X021060Y019940D01*
X021087Y019941D01*
X021113Y019938D01*
X021138Y019931D01*
X021162Y019921D01*
X021185Y019907D01*
X021205Y019891D01*
X021222Y019871D01*
X021237Y019849D01*
X021248Y019825D01*
X021256Y019800D01*
X021260Y019774D01*
X021260Y019748D01*
X021256Y019722D01*
X021248Y019697D01*
X021237Y019673D01*
X021222Y019651D01*
X021205Y019631D01*
X021185Y019615D01*
X021162Y019601D01*
X021138Y019591D01*
X021113Y019584D01*
X021087Y019581D01*
X021060Y019582D01*
X021034Y019587D01*
X021010Y019595D01*
X020986Y019607D01*
X020965Y019623D01*
X020946Y019641D01*
X020930Y019662D01*
X020917Y019685D01*
X020908Y019709D01*
X020902Y019735D01*
X020900Y019761D01*
X023766Y020053D02*
X023766Y020683D01*
X023765Y020683D02*
X023765Y020702D01*
X023769Y020721D01*
X023775Y020739D01*
X023785Y020755D01*
X023797Y020770D01*
X023811Y020782D01*
X023828Y020792D01*
X023845Y020798D01*
X023864Y020802D01*
X023864Y020801D02*
X024455Y020801D01*
X024455Y020802D02*
X024474Y020798D01*
X024491Y020792D01*
X024508Y020782D01*
X024522Y020770D01*
X024534Y020755D01*
X024544Y020739D01*
X024550Y020721D01*
X024554Y020702D01*
X024554Y020683D01*
X024553Y020683D02*
X024553Y020053D01*
X024554Y020053D02*
X024554Y020034D01*
X024550Y020015D01*
X024544Y019997D01*
X024535Y019981D01*
X024522Y019966D01*
X024508Y019954D01*
X024491Y019944D01*
X024473Y019938D01*
X024455Y019934D01*
X024455Y019935D02*
X023864Y019935D01*
X023845Y019939D01*
X023828Y019945D01*
X023811Y019955D01*
X023797Y019967D01*
X023785Y019982D01*
X023775Y019998D01*
X023769Y020016D01*
X023765Y020035D01*
X023765Y020054D01*
X023864Y019051D02*
X024455Y019051D01*
X024455Y019052D02*
X024474Y019048D01*
X024491Y019042D01*
X024508Y019032D01*
X024522Y019020D01*
X024534Y019005D01*
X024544Y018989D01*
X024550Y018971D01*
X024554Y018952D01*
X024554Y018933D01*
X024553Y018933D02*
X024553Y018303D01*
X024554Y018303D02*
X024554Y018284D01*
X024550Y018265D01*
X024544Y018247D01*
X024535Y018231D01*
X024522Y018216D01*
X024508Y018204D01*
X024491Y018194D01*
X024473Y018188D01*
X024455Y018184D01*
X024455Y018185D02*
X023864Y018185D01*
X023845Y018189D01*
X023828Y018195D01*
X023811Y018205D01*
X023797Y018217D01*
X023785Y018232D01*
X023775Y018248D01*
X023769Y018266D01*
X023765Y018285D01*
X023765Y018304D01*
X023766Y018303D02*
X023766Y018933D01*
X023765Y018933D02*
X023765Y018952D01*
X023769Y018971D01*
X023775Y018989D01*
X023785Y019005D01*
X023797Y019020D01*
X023811Y019032D01*
X023828Y019042D01*
X023845Y019048D01*
X023864Y019052D01*
X024869Y018767D02*
X024869Y018473D01*
X024869Y018693D02*
X025162Y018693D01*
X025162Y018767D02*
X025162Y018473D01*
X025329Y018473D02*
X025623Y018473D01*
X025476Y018473D02*
X025476Y018914D01*
X025329Y018767D01*
X025162Y018767D02*
X025016Y018914D01*
X024869Y018767D01*
X024869Y019473D02*
X024869Y019767D01*
X025016Y019914D01*
X025162Y019767D01*
X025162Y019473D01*
X025329Y019473D02*
X025623Y019767D01*
X025623Y019840D01*
X025549Y019914D01*
X025403Y019914D01*
X025329Y019840D01*
X025162Y019693D02*
X024869Y019693D01*
X025329Y019473D02*
X025623Y019473D01*
X025549Y020473D02*
X025403Y020473D01*
X025329Y020547D01*
X025162Y020473D02*
X025162Y020767D01*
X025016Y020914D01*
X024869Y020767D01*
X024869Y020473D01*
X024869Y020693D02*
X025162Y020693D01*
X025329Y020840D02*
X025403Y020914D01*
X025549Y020914D01*
X025623Y020840D01*
X025623Y020767D01*
X025549Y020693D01*
X025623Y020620D01*
X025623Y020547D01*
X025549Y020473D01*
X025549Y020693D02*
X025476Y020693D01*
X025549Y021473D02*
X025549Y021914D01*
X025329Y021693D01*
X025623Y021693D01*
X025162Y021693D02*
X024869Y021693D01*
X024869Y021767D02*
X025016Y021914D01*
X025162Y021767D01*
X025162Y021473D01*
X024869Y021473D02*
X024869Y021767D01*
X024869Y022473D02*
X024869Y022767D01*
X025016Y022914D01*
X025162Y022767D01*
X025162Y022473D01*
X025329Y022547D02*
X025403Y022473D01*
X025549Y022473D01*
X025623Y022547D01*
X025623Y022693D01*
X025549Y022767D01*
X025476Y022767D01*
X025329Y022693D01*
X025329Y022914D01*
X025623Y022914D01*
X025162Y022693D02*
X024869Y022693D01*
X025016Y017914D02*
X025162Y017767D01*
X025162Y017473D01*
X025329Y017547D02*
X025329Y017840D01*
X025403Y017914D01*
X025549Y017914D01*
X025623Y017840D01*
X025329Y017547D01*
X025403Y017473D01*
X025549Y017473D01*
X025623Y017547D01*
X025623Y017840D01*
X025162Y017693D02*
X024869Y017693D01*
X024869Y017767D02*
X025016Y017914D01*
X024869Y017767D02*
X024869Y017473D01*
X025360Y016893D02*
X025360Y016693D01*
X025360Y016493D01*
X025360Y016693D02*
X025760Y016893D01*
X025760Y016693D01*
X025760Y016493D01*
X025360Y016693D01*
X025096Y015987D02*
X025096Y015914D01*
X025096Y015767D02*
X025096Y015473D01*
X025169Y015473D02*
X025022Y015473D01*
X024855Y015620D02*
X024855Y015914D01*
X025022Y015767D02*
X025096Y015767D01*
X025329Y015767D02*
X025329Y015473D01*
X025623Y015473D02*
X025623Y015693D01*
X025549Y015767D01*
X025329Y015767D01*
X024855Y015620D02*
X024709Y015473D01*
X024562Y015620D01*
X024562Y015914D01*
X024629Y014914D02*
X024482Y014914D01*
X024408Y014840D01*
X024408Y014547D01*
X024482Y014473D01*
X024629Y014473D01*
X024702Y014547D01*
X024702Y014693D01*
X024555Y014693D01*
X024702Y014840D02*
X024629Y014914D01*
X024869Y014914D02*
X025162Y014473D01*
X025162Y014914D01*
X025329Y014914D02*
X025329Y014473D01*
X025549Y014473D01*
X025623Y014547D01*
X025623Y014840D01*
X025549Y014914D01*
X025329Y014914D01*
X024869Y014914D02*
X024869Y014473D01*
X024869Y013914D02*
X025162Y013473D01*
X025162Y013914D01*
X025329Y013914D02*
X025329Y013473D01*
X025549Y013473D01*
X025623Y013547D01*
X025623Y013840D01*
X025549Y013914D01*
X025329Y013914D01*
X024869Y013914D02*
X024869Y013473D01*
X024702Y013547D02*
X024702Y013693D01*
X024555Y013693D01*
X024408Y013547D02*
X024482Y013473D01*
X024629Y013473D01*
X024702Y013547D01*
X024702Y013840D02*
X024629Y013914D01*
X024482Y013914D01*
X024408Y013840D01*
X024408Y013547D01*
X024869Y012914D02*
X024869Y012693D01*
X025016Y012767D01*
X025089Y012767D01*
X025162Y012693D01*
X025162Y012547D01*
X025089Y012473D01*
X024942Y012473D01*
X024869Y012547D01*
X024702Y012693D02*
X024408Y012693D01*
X024555Y012840D02*
X024555Y012547D01*
X024869Y012914D02*
X025162Y012914D01*
X025329Y012914D02*
X025329Y012620D01*
X025476Y012473D01*
X025623Y012620D01*
X025623Y012914D01*
X025549Y011914D02*
X025403Y011914D01*
X025329Y011840D01*
X025162Y011914D02*
X025162Y011620D01*
X025016Y011473D01*
X024869Y011620D01*
X024869Y011914D01*
X024702Y011840D02*
X024702Y011767D01*
X024629Y011693D01*
X024702Y011620D01*
X024702Y011547D01*
X024629Y011473D01*
X024482Y011473D01*
X024408Y011547D01*
X024555Y011693D02*
X024629Y011693D01*
X024702Y011840D02*
X024629Y011914D01*
X024482Y011914D01*
X024408Y011840D01*
X024408Y010914D02*
X024629Y010914D01*
X024702Y010840D01*
X024702Y010693D01*
X024629Y010620D01*
X024408Y010620D01*
X024408Y010473D02*
X024408Y010914D01*
X024555Y010620D02*
X024702Y010473D01*
X024869Y010547D02*
X024942Y010473D01*
X025089Y010473D01*
X025162Y010547D01*
X025162Y010620D01*
X025089Y010693D01*
X024942Y010693D01*
X024869Y010767D01*
X024869Y010840D01*
X024942Y010914D01*
X025089Y010914D01*
X025162Y010840D01*
X025329Y010914D02*
X025623Y010914D01*
X025476Y010914D02*
X025476Y010473D01*
X025329Y009914D02*
X025623Y009914D01*
X025476Y009693D02*
X025329Y009693D01*
X025329Y009473D02*
X025329Y009914D01*
X025162Y009914D02*
X024869Y009914D01*
X024869Y009473D01*
X025162Y009473D01*
X025016Y009693D02*
X024869Y009693D01*
X024702Y009693D02*
X024629Y009620D01*
X024408Y009620D01*
X024408Y009473D02*
X024408Y009914D01*
X024629Y009914D01*
X024702Y009840D01*
X024702Y009693D01*
X024555Y009620D02*
X024702Y009473D01*
X024242Y009547D02*
X024242Y009840D01*
X024168Y009914D01*
X024021Y009914D01*
X023948Y009840D01*
X023948Y009547D01*
X024021Y009473D01*
X024168Y009473D01*
X024242Y009547D01*
X023788Y009473D02*
X023641Y009473D01*
X023714Y009473D02*
X023714Y009914D01*
X023641Y009914D02*
X023788Y009914D01*
X025403Y011473D02*
X025329Y011547D01*
X025403Y011473D02*
X025549Y011473D01*
X025623Y011547D01*
X025623Y011620D01*
X025549Y011693D01*
X025476Y011693D01*
X025549Y011693D02*
X025623Y011767D01*
X025623Y011840D01*
X025549Y011914D01*
X022896Y013075D02*
X022896Y013311D01*
X022423Y013311D02*
X022423Y013075D01*
X022082Y013643D02*
X021935Y013643D01*
X021862Y013717D01*
X022156Y014010D01*
X022156Y013717D01*
X022082Y013643D01*
X021862Y013717D02*
X021862Y014010D01*
X021935Y014084D01*
X022082Y014084D01*
X022156Y014010D01*
X021705Y013717D02*
X021705Y013643D01*
X021632Y013643D01*
X021632Y013717D01*
X021705Y013717D01*
X021465Y013717D02*
X021465Y013790D01*
X021392Y013863D01*
X021318Y013863D01*
X021392Y013863D02*
X021465Y013937D01*
X021465Y014010D01*
X021392Y014084D01*
X021245Y014084D01*
X021171Y014010D01*
X021005Y014010D02*
X021005Y014084D01*
X021005Y014010D02*
X020858Y013863D01*
X020858Y013643D01*
X020858Y013863D02*
X020711Y014010D01*
X020711Y014084D01*
X020544Y014010D02*
X020544Y013937D01*
X020471Y013863D01*
X020251Y013863D01*
X020084Y013863D02*
X019790Y013863D01*
X019623Y013717D02*
X019550Y013643D01*
X019403Y013643D01*
X019330Y013717D01*
X019330Y014010D01*
X019403Y014084D01*
X019550Y014084D01*
X019623Y014010D01*
X019163Y014010D02*
X019090Y014084D01*
X018943Y014084D01*
X018870Y014010D01*
X018870Y013717D01*
X018943Y013643D01*
X019090Y013643D01*
X019163Y013717D01*
X020251Y013643D02*
X020471Y013643D01*
X020544Y013717D01*
X020544Y013790D01*
X020471Y013863D01*
X020544Y014010D02*
X020471Y014084D01*
X020251Y014084D01*
X020251Y013643D01*
X021171Y013717D02*
X021245Y013643D01*
X021392Y013643D01*
X021465Y013717D01*
X021360Y009593D02*
X021360Y009393D01*
X021360Y009193D01*
X021360Y009393D02*
X020960Y009593D01*
X020960Y009393D01*
X020960Y009193D01*
X021360Y009393D01*
X019363Y005863D02*
X019069Y005863D01*
X019260Y005593D02*
X018260Y005593D01*
X018243Y005591D01*
X018226Y005587D01*
X018210Y005580D01*
X018196Y005570D01*
X018183Y005557D01*
X018173Y005543D01*
X018166Y005527D01*
X018162Y005510D01*
X018160Y005493D01*
X018160Y004893D01*
X018162Y004876D01*
X018166Y004859D01*
X018173Y004843D01*
X018183Y004829D01*
X018196Y004816D01*
X018210Y004806D01*
X018226Y004799D01*
X018243Y004795D01*
X018260Y004793D01*
X019260Y004793D01*
X019277Y004795D01*
X019294Y004799D01*
X019310Y004806D01*
X019324Y004816D01*
X019337Y004829D01*
X019347Y004843D01*
X019354Y004859D01*
X019358Y004876D01*
X019360Y004893D01*
X019360Y005493D01*
X019358Y005510D01*
X019354Y005527D01*
X019347Y005543D01*
X019337Y005557D01*
X019324Y005570D01*
X019310Y005580D01*
X019294Y005587D01*
X019277Y005591D01*
X019260Y005593D01*
X018442Y005863D02*
X018148Y005863D01*
X018295Y006010D02*
X018295Y005717D01*
X022590Y004923D02*
X022883Y004923D01*
X022736Y005070D02*
X022736Y004777D01*
X023510Y004850D02*
X023657Y004703D01*
X023804Y004850D01*
X023804Y005144D01*
X023971Y005144D02*
X024117Y005144D01*
X024044Y005144D02*
X024044Y004703D01*
X023971Y004703D02*
X024117Y004703D01*
X024278Y004703D02*
X024278Y005144D01*
X024571Y004703D01*
X024571Y005144D01*
X025198Y004923D02*
X025492Y004923D01*
X023510Y004850D02*
X023510Y005144D01*
X014460Y011393D02*
X014260Y011393D01*
X014060Y011393D01*
X014260Y011793D01*
X014460Y011793D01*
X014260Y011793D02*
X014060Y011793D01*
X014260Y011793D02*
X014460Y011393D01*
X012760Y011393D02*
X012560Y011393D01*
X012360Y011393D01*
X012560Y011793D01*
X012760Y011793D01*
X012560Y011793D02*
X012360Y011793D01*
X012560Y011793D02*
X012760Y011393D01*
X011460Y011393D02*
X011260Y011393D01*
X011060Y011393D01*
X011260Y011793D01*
X011460Y011793D01*
X011260Y011793D02*
X011060Y011793D01*
X011260Y011793D02*
X011460Y011393D01*
X012541Y016857D02*
X012778Y016857D01*
X012778Y017330D02*
X012541Y017330D01*
X009978Y017330D02*
X009741Y017330D01*
X009741Y016857D02*
X009978Y016857D01*
X015241Y016857D02*
X015478Y016857D01*
X015478Y017330D02*
X015241Y017330D01*
D11*
X014060Y017443D03*
X016760Y017443D03*
X011262Y017443D03*
X019860Y009093D03*
X023560Y011393D03*
X023560Y012693D03*
D12*
X021060Y012970D02*
X021060Y010608D01*
X020706Y010608D01*
X018993Y010608D02*
X018659Y010608D01*
X018659Y012970D01*
X018993Y012970D01*
X018434Y013993D02*
X018434Y015774D01*
X018041Y016168D01*
X016260Y016168D01*
X015285Y015193D02*
X015285Y013019D01*
X017460Y013019D01*
X014934Y013993D02*
X014934Y015774D01*
X014541Y016168D01*
X012760Y016168D01*
X011785Y015193D02*
X011785Y013019D01*
X013960Y013019D01*
X011434Y013993D02*
X011434Y015774D01*
X011041Y016168D01*
X009260Y016168D01*
X008285Y015193D02*
X008285Y013019D01*
X010460Y013019D01*
X010903Y009153D02*
X010903Y007539D01*
X014762Y007539D01*
X014762Y009153D01*
X010903Y009153D01*
X011022Y007775D02*
X011024Y007796D01*
X011030Y007816D01*
X011039Y007836D01*
X011051Y007853D01*
X011066Y007867D01*
X011084Y007879D01*
X011104Y007887D01*
X011124Y007892D01*
X011145Y007893D01*
X011166Y007890D01*
X011186Y007884D01*
X011205Y007873D01*
X011222Y007860D01*
X011235Y007844D01*
X011246Y007826D01*
X011254Y007806D01*
X011258Y007786D01*
X011258Y007764D01*
X011254Y007744D01*
X011246Y007724D01*
X011235Y007706D01*
X011222Y007690D01*
X011205Y007677D01*
X011186Y007666D01*
X011166Y007660D01*
X011145Y007657D01*
X011124Y007658D01*
X011104Y007663D01*
X011084Y007671D01*
X011066Y007683D01*
X011051Y007697D01*
X011039Y007714D01*
X011030Y007734D01*
X011024Y007754D01*
X011022Y007775D01*
X020706Y012970D02*
X021060Y012970D01*
D13*
X017972Y009393D02*
X017948Y009393D01*
X017472Y009393D02*
X017448Y009393D01*
X016972Y009393D02*
X016948Y009393D01*
X016810Y005305D02*
X016810Y005281D01*
X010360Y009381D02*
X010360Y009405D01*
X018648Y017993D02*
X018672Y017993D01*
X021888Y020953D02*
X021912Y020953D01*
D14*
X017192Y020357D02*
X017192Y020167D01*
X017192Y019847D01*
X017192Y019674D01*
X008727Y019674D01*
X008727Y019847D01*
X017192Y019847D01*
X017192Y019674D02*
X017192Y019556D01*
X008727Y019556D01*
X008727Y019674D01*
X008727Y019847D02*
X008727Y020167D01*
X008727Y020357D01*
X017192Y020357D01*
X017192Y021559D01*
X008727Y021559D01*
X008727Y020357D01*
X008727Y020167D02*
X017192Y020167D01*
X015833Y020954D02*
X015835Y021001D01*
X015841Y021048D01*
X015850Y021094D01*
X015864Y021139D01*
X015881Y021183D01*
X015902Y021226D01*
X015926Y021266D01*
X015953Y021305D01*
X015984Y021341D01*
X016017Y021374D01*
X016053Y021405D01*
X016092Y021432D01*
X016132Y021456D01*
X016175Y021477D01*
X016219Y021494D01*
X016264Y021508D01*
X016310Y021517D01*
X016357Y021523D01*
X016404Y021525D01*
X016451Y021523D01*
X016498Y021517D01*
X016544Y021508D01*
X016589Y021494D01*
X016633Y021477D01*
X016676Y021456D01*
X016716Y021432D01*
X016755Y021405D01*
X016791Y021374D01*
X016824Y021341D01*
X016855Y021305D01*
X016882Y021266D01*
X016906Y021226D01*
X016927Y021183D01*
X016944Y021139D01*
X016958Y021094D01*
X016967Y021048D01*
X016973Y021001D01*
X016975Y020954D01*
X016973Y020907D01*
X016967Y020860D01*
X016958Y020814D01*
X016944Y020769D01*
X016927Y020725D01*
X016906Y020682D01*
X016882Y020642D01*
X016855Y020603D01*
X016824Y020567D01*
X016791Y020534D01*
X016755Y020503D01*
X016716Y020476D01*
X016676Y020452D01*
X016633Y020431D01*
X016589Y020414D01*
X016544Y020400D01*
X016498Y020391D01*
X016451Y020385D01*
X016404Y020383D01*
X016357Y020385D01*
X016310Y020391D01*
X016264Y020400D01*
X016219Y020414D01*
X016175Y020431D01*
X016132Y020452D01*
X016092Y020476D01*
X016053Y020503D01*
X016017Y020534D01*
X015984Y020567D01*
X015953Y020603D01*
X015926Y020642D01*
X015902Y020682D01*
X015881Y020725D01*
X015864Y020769D01*
X015850Y020814D01*
X015841Y020860D01*
X015835Y020907D01*
X015833Y020954D01*
X015499Y021231D02*
X015501Y021234D01*
X014455Y020954D02*
X014457Y021001D01*
X014463Y021048D01*
X014472Y021094D01*
X014486Y021139D01*
X014503Y021183D01*
X014524Y021226D01*
X014548Y021266D01*
X014575Y021305D01*
X014606Y021341D01*
X014639Y021374D01*
X014675Y021405D01*
X014714Y021432D01*
X014754Y021456D01*
X014797Y021477D01*
X014841Y021494D01*
X014886Y021508D01*
X014932Y021517D01*
X014979Y021523D01*
X015026Y021525D01*
X015073Y021523D01*
X015120Y021517D01*
X015166Y021508D01*
X015211Y021494D01*
X015255Y021477D01*
X015298Y021456D01*
X015338Y021432D01*
X015377Y021405D01*
X015413Y021374D01*
X015446Y021341D01*
X015477Y021305D01*
X015504Y021266D01*
X015528Y021226D01*
X015549Y021183D01*
X015566Y021139D01*
X015580Y021094D01*
X015589Y021048D01*
X015595Y021001D01*
X015597Y020954D01*
X015595Y020907D01*
X015589Y020860D01*
X015580Y020814D01*
X015566Y020769D01*
X015549Y020725D01*
X015528Y020682D01*
X015504Y020642D01*
X015477Y020603D01*
X015446Y020567D01*
X015413Y020534D01*
X015377Y020503D01*
X015338Y020476D01*
X015298Y020452D01*
X015255Y020431D01*
X015211Y020414D01*
X015166Y020400D01*
X015120Y020391D01*
X015073Y020385D01*
X015026Y020383D01*
X014979Y020385D01*
X014932Y020391D01*
X014886Y020400D01*
X014841Y020414D01*
X014797Y020431D01*
X014754Y020452D01*
X014714Y020476D01*
X014675Y020503D01*
X014639Y020534D01*
X014606Y020567D01*
X014575Y020603D01*
X014548Y020642D01*
X014524Y020682D01*
X014503Y020725D01*
X014486Y020769D01*
X014472Y020814D01*
X014463Y020860D01*
X014457Y020907D01*
X014455Y020954D01*
X014121Y021231D02*
X014123Y021234D01*
X013077Y020954D02*
X013079Y021001D01*
X013085Y021048D01*
X013094Y021094D01*
X013108Y021139D01*
X013125Y021183D01*
X013146Y021226D01*
X013170Y021266D01*
X013197Y021305D01*
X013228Y021341D01*
X013261Y021374D01*
X013297Y021405D01*
X013336Y021432D01*
X013376Y021456D01*
X013419Y021477D01*
X013463Y021494D01*
X013508Y021508D01*
X013554Y021517D01*
X013601Y021523D01*
X013648Y021525D01*
X013695Y021523D01*
X013742Y021517D01*
X013788Y021508D01*
X013833Y021494D01*
X013877Y021477D01*
X013920Y021456D01*
X013960Y021432D01*
X013999Y021405D01*
X014035Y021374D01*
X014068Y021341D01*
X014099Y021305D01*
X014126Y021266D01*
X014150Y021226D01*
X014171Y021183D01*
X014188Y021139D01*
X014202Y021094D01*
X014211Y021048D01*
X014217Y021001D01*
X014219Y020954D01*
X014217Y020907D01*
X014211Y020860D01*
X014202Y020814D01*
X014188Y020769D01*
X014171Y020725D01*
X014150Y020682D01*
X014126Y020642D01*
X014099Y020603D01*
X014068Y020567D01*
X014035Y020534D01*
X013999Y020503D01*
X013960Y020476D01*
X013920Y020452D01*
X013877Y020431D01*
X013833Y020414D01*
X013788Y020400D01*
X013742Y020391D01*
X013695Y020385D01*
X013648Y020383D01*
X013601Y020385D01*
X013554Y020391D01*
X013508Y020400D01*
X013463Y020414D01*
X013419Y020431D01*
X013376Y020452D01*
X013336Y020476D01*
X013297Y020503D01*
X013261Y020534D01*
X013228Y020567D01*
X013197Y020603D01*
X013170Y020642D01*
X013146Y020682D01*
X013125Y020725D01*
X013108Y020769D01*
X013094Y020814D01*
X013085Y020860D01*
X013079Y020907D01*
X013077Y020954D01*
X012743Y021231D02*
X012745Y021234D01*
X011700Y020954D02*
X011702Y021001D01*
X011708Y021048D01*
X011717Y021094D01*
X011731Y021139D01*
X011748Y021183D01*
X011769Y021226D01*
X011793Y021266D01*
X011820Y021305D01*
X011851Y021341D01*
X011884Y021374D01*
X011920Y021405D01*
X011959Y021432D01*
X011999Y021456D01*
X012042Y021477D01*
X012086Y021494D01*
X012131Y021508D01*
X012177Y021517D01*
X012224Y021523D01*
X012271Y021525D01*
X012318Y021523D01*
X012365Y021517D01*
X012411Y021508D01*
X012456Y021494D01*
X012500Y021477D01*
X012543Y021456D01*
X012583Y021432D01*
X012622Y021405D01*
X012658Y021374D01*
X012691Y021341D01*
X012722Y021305D01*
X012749Y021266D01*
X012773Y021226D01*
X012794Y021183D01*
X012811Y021139D01*
X012825Y021094D01*
X012834Y021048D01*
X012840Y021001D01*
X012842Y020954D01*
X012840Y020907D01*
X012834Y020860D01*
X012825Y020814D01*
X012811Y020769D01*
X012794Y020725D01*
X012773Y020682D01*
X012749Y020642D01*
X012722Y020603D01*
X012691Y020567D01*
X012658Y020534D01*
X012622Y020503D01*
X012583Y020476D01*
X012543Y020452D01*
X012500Y020431D01*
X012456Y020414D01*
X012411Y020400D01*
X012365Y020391D01*
X012318Y020385D01*
X012271Y020383D01*
X012224Y020385D01*
X012177Y020391D01*
X012131Y020400D01*
X012086Y020414D01*
X012042Y020431D01*
X011999Y020452D01*
X011959Y020476D01*
X011920Y020503D01*
X011884Y020534D01*
X011851Y020567D01*
X011820Y020603D01*
X011793Y020642D01*
X011769Y020682D01*
X011748Y020725D01*
X011731Y020769D01*
X011717Y020814D01*
X011708Y020860D01*
X011702Y020907D01*
X011700Y020954D01*
X011365Y021231D02*
X011367Y021234D01*
X010322Y020954D02*
X010324Y021001D01*
X010330Y021048D01*
X010339Y021094D01*
X010353Y021139D01*
X010370Y021183D01*
X010391Y021226D01*
X010415Y021266D01*
X010442Y021305D01*
X010473Y021341D01*
X010506Y021374D01*
X010542Y021405D01*
X010581Y021432D01*
X010621Y021456D01*
X010664Y021477D01*
X010708Y021494D01*
X010753Y021508D01*
X010799Y021517D01*
X010846Y021523D01*
X010893Y021525D01*
X010940Y021523D01*
X010987Y021517D01*
X011033Y021508D01*
X011078Y021494D01*
X011122Y021477D01*
X011165Y021456D01*
X011205Y021432D01*
X011244Y021405D01*
X011280Y021374D01*
X011313Y021341D01*
X011344Y021305D01*
X011371Y021266D01*
X011395Y021226D01*
X011416Y021183D01*
X011433Y021139D01*
X011447Y021094D01*
X011456Y021048D01*
X011462Y021001D01*
X011464Y020954D01*
X011462Y020907D01*
X011456Y020860D01*
X011447Y020814D01*
X011433Y020769D01*
X011416Y020725D01*
X011395Y020682D01*
X011371Y020642D01*
X011344Y020603D01*
X011313Y020567D01*
X011280Y020534D01*
X011244Y020503D01*
X011205Y020476D01*
X011165Y020452D01*
X011122Y020431D01*
X011078Y020414D01*
X011033Y020400D01*
X010987Y020391D01*
X010940Y020385D01*
X010893Y020383D01*
X010846Y020385D01*
X010799Y020391D01*
X010753Y020400D01*
X010708Y020414D01*
X010664Y020431D01*
X010621Y020452D01*
X010581Y020476D01*
X010542Y020503D01*
X010506Y020534D01*
X010473Y020567D01*
X010442Y020603D01*
X010415Y020642D01*
X010391Y020682D01*
X010370Y020725D01*
X010353Y020769D01*
X010339Y020814D01*
X010330Y020860D01*
X010324Y020907D01*
X010322Y020954D01*
X009987Y021231D02*
X009989Y021234D01*
X008944Y020954D02*
X008946Y021001D01*
X008952Y021048D01*
X008961Y021094D01*
X008975Y021139D01*
X008992Y021183D01*
X009013Y021226D01*
X009037Y021266D01*
X009064Y021305D01*
X009095Y021341D01*
X009128Y021374D01*
X009164Y021405D01*
X009203Y021432D01*
X009243Y021456D01*
X009286Y021477D01*
X009330Y021494D01*
X009375Y021508D01*
X009421Y021517D01*
X009468Y021523D01*
X009515Y021525D01*
X009562Y021523D01*
X009609Y021517D01*
X009655Y021508D01*
X009700Y021494D01*
X009744Y021477D01*
X009787Y021456D01*
X009827Y021432D01*
X009866Y021405D01*
X009902Y021374D01*
X009935Y021341D01*
X009966Y021305D01*
X009993Y021266D01*
X010017Y021226D01*
X010038Y021183D01*
X010055Y021139D01*
X010069Y021094D01*
X010078Y021048D01*
X010084Y021001D01*
X010086Y020954D01*
X010084Y020907D01*
X010078Y020860D01*
X010069Y020814D01*
X010055Y020769D01*
X010038Y020725D01*
X010017Y020682D01*
X009993Y020642D01*
X009966Y020603D01*
X009935Y020567D01*
X009902Y020534D01*
X009866Y020503D01*
X009827Y020476D01*
X009787Y020452D01*
X009744Y020431D01*
X009700Y020414D01*
X009655Y020400D01*
X009609Y020391D01*
X009562Y020385D01*
X009515Y020383D01*
X009468Y020385D01*
X009421Y020391D01*
X009375Y020400D01*
X009330Y020414D01*
X009286Y020431D01*
X009243Y020452D01*
X009203Y020476D01*
X009164Y020503D01*
X009128Y020534D01*
X009095Y020567D01*
X009064Y020603D01*
X009037Y020642D01*
X009013Y020682D01*
X008992Y020725D01*
X008975Y020769D01*
X008961Y020814D01*
X008952Y020860D01*
X008946Y020907D01*
X008944Y020954D01*
X008727Y021559D02*
X008727Y021746D01*
X017192Y021746D01*
X017192Y022430D01*
X008727Y022430D01*
X008727Y021746D01*
X009357Y021888D02*
X009664Y021888D01*
X009511Y021888D02*
X009511Y022349D01*
X009357Y022195D01*
X010732Y022272D02*
X010809Y022349D01*
X010963Y022349D01*
X011039Y022272D01*
X011039Y022195D01*
X010732Y021888D01*
X011039Y021888D01*
X012107Y021965D02*
X012184Y021888D01*
X012338Y021888D01*
X012414Y021965D01*
X012414Y022042D01*
X012338Y022119D01*
X012261Y022119D01*
X012338Y022119D02*
X012414Y022195D01*
X012414Y022272D01*
X012338Y022349D01*
X012184Y022349D01*
X012107Y022272D01*
X013482Y022119D02*
X013789Y022119D01*
X013713Y022349D02*
X013713Y021888D01*
X013482Y022119D02*
X013713Y022349D01*
X014857Y022349D02*
X014857Y022119D01*
X015011Y022195D01*
X015088Y022195D01*
X015164Y022119D01*
X015164Y021965D01*
X015088Y021888D01*
X014934Y021888D01*
X014857Y021965D01*
X014857Y022349D02*
X015164Y022349D01*
X016232Y022119D02*
X016463Y022119D01*
X016539Y022042D01*
X016539Y021965D01*
X016463Y021888D01*
X016309Y021888D01*
X016232Y021965D01*
X016232Y022119D01*
X016386Y022272D01*
X016539Y022349D01*
X017192Y021746D02*
X017192Y021559D01*
X016879Y021234D02*
X016877Y021231D01*
X009087Y020118D02*
X008962Y019868D01*
X008837Y020118D01*
X009087Y020118D01*
X009079Y020101D02*
X008846Y020101D01*
X008865Y020063D02*
X009060Y020063D01*
X009041Y020024D02*
X008884Y020024D01*
X008904Y019986D02*
X009021Y019986D01*
X009002Y019947D02*
X008923Y019947D01*
X008942Y019909D02*
X008983Y019909D01*
X008964Y019870D02*
X008961Y019870D01*
X020349Y008273D02*
X020585Y008273D01*
X020349Y008273D02*
X019680Y007604D01*
X019680Y005714D01*
X020585Y005714D01*
X021334Y005714D02*
X022239Y005714D01*
X022239Y007604D01*
X021570Y008273D01*
X021334Y008273D01*
X022583Y008230D02*
X022583Y008112D01*
X022583Y007939D01*
X025536Y007939D01*
X025536Y008112D01*
X025536Y008230D01*
X022583Y008230D01*
X022583Y008112D02*
X025536Y008112D01*
X025536Y007939D02*
X025536Y007620D01*
X025536Y007430D01*
X022583Y007430D01*
X022583Y007620D01*
X022583Y007939D01*
X022583Y007620D02*
X025536Y007620D01*
X025426Y007668D02*
X025301Y007918D01*
X025176Y007668D01*
X025426Y007668D01*
X025408Y007704D02*
X025194Y007704D01*
X025213Y007743D02*
X025388Y007743D01*
X025369Y007781D02*
X025232Y007781D01*
X025251Y007820D02*
X025350Y007820D01*
X025331Y007858D02*
X025271Y007858D01*
X025290Y007897D02*
X025311Y007897D01*
X025536Y007430D02*
X025536Y006228D01*
X022583Y006228D01*
X022583Y006040D01*
X022583Y005356D01*
X025536Y005356D01*
X025536Y006040D01*
X022583Y006040D01*
X022583Y006228D02*
X022583Y007430D01*
X022800Y006833D02*
X022802Y006880D01*
X022808Y006927D01*
X022817Y006973D01*
X022831Y007018D01*
X022848Y007062D01*
X022869Y007105D01*
X022893Y007145D01*
X022920Y007184D01*
X022951Y007220D01*
X022984Y007253D01*
X023020Y007284D01*
X023059Y007311D01*
X023099Y007335D01*
X023142Y007356D01*
X023186Y007373D01*
X023231Y007387D01*
X023277Y007396D01*
X023324Y007402D01*
X023371Y007404D01*
X023418Y007402D01*
X023465Y007396D01*
X023511Y007387D01*
X023556Y007373D01*
X023600Y007356D01*
X023643Y007335D01*
X023683Y007311D01*
X023722Y007284D01*
X023758Y007253D01*
X023791Y007220D01*
X023822Y007184D01*
X023849Y007145D01*
X023873Y007105D01*
X023894Y007062D01*
X023911Y007018D01*
X023925Y006973D01*
X023934Y006927D01*
X023940Y006880D01*
X023942Y006833D01*
X023940Y006786D01*
X023934Y006739D01*
X023925Y006693D01*
X023911Y006648D01*
X023894Y006604D01*
X023873Y006561D01*
X023849Y006521D01*
X023822Y006482D01*
X023791Y006446D01*
X023758Y006413D01*
X023722Y006382D01*
X023683Y006355D01*
X023643Y006331D01*
X023600Y006310D01*
X023556Y006293D01*
X023511Y006279D01*
X023465Y006270D01*
X023418Y006264D01*
X023371Y006262D01*
X023324Y006264D01*
X023277Y006270D01*
X023231Y006279D01*
X023186Y006293D01*
X023142Y006310D01*
X023099Y006331D01*
X023059Y006355D01*
X023020Y006382D01*
X022984Y006413D01*
X022951Y006446D01*
X022920Y006482D01*
X022893Y006521D01*
X022869Y006561D01*
X022848Y006604D01*
X022831Y006648D01*
X022817Y006693D01*
X022808Y006739D01*
X022802Y006786D01*
X022800Y006833D01*
X022898Y006555D02*
X022896Y006553D01*
X023187Y005899D02*
X023110Y005822D01*
X023187Y005899D02*
X023340Y005899D01*
X023417Y005822D01*
X023417Y005745D01*
X023110Y005438D01*
X023417Y005438D01*
X024485Y005438D02*
X024792Y005438D01*
X024639Y005438D02*
X024639Y005899D01*
X024485Y005745D01*
X024274Y006553D02*
X024276Y006555D01*
X024177Y006833D02*
X024179Y006880D01*
X024185Y006927D01*
X024194Y006973D01*
X024208Y007018D01*
X024225Y007062D01*
X024246Y007105D01*
X024270Y007145D01*
X024297Y007184D01*
X024328Y007220D01*
X024361Y007253D01*
X024397Y007284D01*
X024436Y007311D01*
X024476Y007335D01*
X024519Y007356D01*
X024563Y007373D01*
X024608Y007387D01*
X024654Y007396D01*
X024701Y007402D01*
X024748Y007404D01*
X024795Y007402D01*
X024842Y007396D01*
X024888Y007387D01*
X024933Y007373D01*
X024977Y007356D01*
X025020Y007335D01*
X025060Y007311D01*
X025099Y007284D01*
X025135Y007253D01*
X025168Y007220D01*
X025199Y007184D01*
X025226Y007145D01*
X025250Y007105D01*
X025271Y007062D01*
X025288Y007018D01*
X025302Y006973D01*
X025311Y006927D01*
X025317Y006880D01*
X025319Y006833D01*
X025317Y006786D01*
X025311Y006739D01*
X025302Y006693D01*
X025288Y006648D01*
X025271Y006604D01*
X025250Y006561D01*
X025226Y006521D01*
X025199Y006482D01*
X025168Y006446D01*
X025135Y006413D01*
X025099Y006382D01*
X025060Y006355D01*
X025020Y006331D01*
X024977Y006310D01*
X024933Y006293D01*
X024888Y006279D01*
X024842Y006270D01*
X024795Y006264D01*
X024748Y006262D01*
X024701Y006264D01*
X024654Y006270D01*
X024608Y006279D01*
X024563Y006293D01*
X024519Y006310D01*
X024476Y006331D01*
X024436Y006355D01*
X024397Y006382D01*
X024361Y006413D01*
X024328Y006446D01*
X024297Y006482D01*
X024270Y006521D01*
X024246Y006561D01*
X024225Y006604D01*
X024208Y006648D01*
X024194Y006693D01*
X024185Y006739D01*
X024179Y006786D01*
X024177Y006833D01*
X025536Y006228D02*
X025536Y006040D01*
X020586Y005832D02*
X020522Y005854D01*
X020459Y005881D01*
X020397Y005911D01*
X020338Y005944D01*
X020280Y005980D01*
X020224Y006020D01*
X020171Y006063D01*
X020120Y006108D01*
X020072Y006156D01*
X020027Y006207D01*
X019984Y006261D01*
X019945Y006317D01*
X019908Y006374D01*
X019875Y006434D01*
X019846Y006496D01*
X019820Y006559D01*
X019797Y006623D01*
X019778Y006689D01*
X019763Y006756D01*
X019752Y006823D01*
X019744Y006891D01*
X019740Y006959D01*
X019740Y007027D01*
X019744Y007095D01*
X019752Y007163D01*
X019763Y007230D01*
X019778Y007297D01*
X019797Y007363D01*
X019820Y007427D01*
X019846Y007490D01*
X019875Y007552D01*
X019908Y007612D01*
X019945Y007669D01*
X019984Y007725D01*
X020027Y007779D01*
X020072Y007830D01*
X020120Y007878D01*
X020171Y007923D01*
X020224Y007966D01*
X020280Y008006D01*
X020338Y008042D01*
X020397Y008075D01*
X020459Y008105D01*
X020522Y008132D01*
X020586Y008154D01*
X021334Y008154D02*
X021398Y008132D01*
X021461Y008105D01*
X021523Y008075D01*
X021582Y008042D01*
X021640Y008006D01*
X021696Y007966D01*
X021749Y007923D01*
X021800Y007878D01*
X021848Y007830D01*
X021893Y007779D01*
X021936Y007725D01*
X021975Y007669D01*
X022012Y007612D01*
X022045Y007552D01*
X022074Y007490D01*
X022100Y007427D01*
X022123Y007363D01*
X022142Y007297D01*
X022157Y007230D01*
X022168Y007163D01*
X022176Y007095D01*
X022180Y007027D01*
X022180Y006959D01*
X022176Y006891D01*
X022168Y006823D01*
X022157Y006756D01*
X022142Y006689D01*
X022123Y006623D01*
X022100Y006559D01*
X022074Y006496D01*
X022045Y006434D01*
X022012Y006374D01*
X021975Y006317D01*
X021936Y006261D01*
X021893Y006207D01*
X021848Y006156D01*
X021800Y006108D01*
X021749Y006063D01*
X021696Y006020D01*
X021640Y005980D01*
X021582Y005944D01*
X021523Y005911D01*
X021461Y005881D01*
X021398Y005854D01*
X021334Y005832D01*
D15*
X019626Y009812D02*
X019626Y009993D01*
X019504Y009901D01*
X019626Y009993D02*
X019626Y010174D01*
X019504Y010079D02*
X019620Y010003D01*
X021848Y010526D02*
X021951Y010526D01*
X021848Y010526D02*
X021848Y010605D01*
X022201Y010711D02*
X022203Y010729D01*
X022209Y010747D01*
X022218Y010763D01*
X022230Y010776D01*
X022245Y010787D01*
X022262Y010795D01*
X022280Y010799D01*
X022298Y010799D01*
X022316Y010795D01*
X022333Y010787D01*
X022348Y010776D01*
X022360Y010763D01*
X022369Y010747D01*
X022375Y010729D01*
X022377Y010711D01*
X022375Y010693D01*
X022369Y010675D01*
X022360Y010659D01*
X022348Y010646D01*
X022333Y010635D01*
X022316Y010627D01*
X022298Y010623D01*
X022280Y010623D01*
X022262Y010627D01*
X022245Y010635D01*
X022230Y010646D01*
X022218Y010659D01*
X022209Y010675D01*
X022203Y010693D01*
X022201Y010711D01*
X022408Y010526D02*
X022474Y010526D01*
X022474Y010605D01*
X022474Y011562D02*
X022474Y011652D01*
X022356Y011652D01*
X021951Y011644D02*
X021860Y011644D01*
X021860Y011534D01*
X023685Y015300D02*
X024314Y015300D01*
X024315Y015300D02*
X024331Y015305D01*
X024347Y015313D01*
X024361Y015323D01*
X024373Y015335D01*
X024383Y015350D01*
X024390Y015366D01*
X024394Y015383D01*
X024395Y015400D01*
X024393Y015418D01*
X024393Y015969D02*
X024395Y015987D01*
X024394Y016004D01*
X024390Y016021D01*
X024383Y016037D01*
X024373Y016052D01*
X024361Y016064D01*
X024347Y016074D01*
X024331Y016082D01*
X024315Y016087D01*
X024314Y016087D02*
X023685Y016087D01*
X023684Y016087D02*
X023668Y016082D01*
X023652Y016074D01*
X023638Y016064D01*
X023626Y016052D01*
X023616Y016037D01*
X023609Y016021D01*
X023605Y016004D01*
X023604Y015987D01*
X023606Y015969D01*
X023606Y015418D02*
X023604Y015400D01*
X023605Y015383D01*
X023609Y015366D01*
X023616Y015350D01*
X023626Y015335D01*
X023638Y015323D01*
X023652Y015313D01*
X023668Y015305D01*
X023684Y015300D01*
X019070Y020493D02*
X018570Y020493D01*
X018320Y020743D01*
X018070Y020493D01*
X017570Y020493D01*
X017320Y020743D01*
X017320Y021243D01*
X017570Y021493D01*
X018070Y021493D01*
X018320Y021243D01*
X018570Y021493D01*
X019070Y021493D01*
X019320Y021243D01*
X019320Y020743D01*
X019070Y020493D01*
X016911Y018969D02*
X016911Y018654D01*
X016911Y018969D02*
X016674Y018969D01*
X016045Y018969D02*
X015808Y018969D01*
X015808Y018654D01*
X014211Y018654D02*
X014211Y018969D01*
X013974Y018969D01*
X013345Y018969D02*
X013108Y018969D01*
X013108Y018654D01*
X011411Y018654D02*
X011411Y018969D01*
X011174Y018969D01*
X010545Y018969D02*
X010308Y018969D01*
X010308Y018654D01*
X014408Y006344D02*
X015511Y006344D01*
X015511Y005242D01*
X014408Y005242D01*
X014408Y006344D01*
X015156Y005478D02*
X015393Y005478D01*
X015392Y005478D02*
X015390Y005458D01*
X015385Y005438D01*
X015376Y005419D01*
X015364Y005402D01*
X015350Y005388D01*
X015333Y005376D01*
X015314Y005367D01*
X015294Y005362D01*
X015274Y005360D01*
X015254Y005362D01*
X015234Y005367D01*
X015215Y005376D01*
X015198Y005388D01*
X015184Y005402D01*
X015172Y005419D01*
X015163Y005438D01*
X015158Y005458D01*
X015156Y005478D01*
D16*
X022960Y020493D03*
D17*
X023860Y017493D03*
D18*
X022160Y010105D02*
X022160Y010081D01*
D19*
X018612Y019608D03*
D20*
X020751Y020149D02*
X022368Y020149D01*
X022368Y016558D01*
X020751Y016558D01*
X020751Y020149D01*
D21*
X020779Y015970D02*
X020540Y015970D01*
X020507Y015653D01*
X020401Y015618D01*
X020301Y015567D01*
X020054Y015769D01*
X019884Y015599D01*
X020086Y015352D01*
X020034Y015252D01*
X020000Y015146D01*
X019683Y015113D01*
X019683Y014873D01*
X020000Y014841D01*
X020034Y014734D01*
X020086Y014635D01*
X019884Y014387D01*
X020054Y014218D01*
X020301Y014419D01*
X020401Y014368D01*
X020542Y014709D01*
X020489Y014738D01*
X020442Y014776D01*
X020404Y014822D01*
X020375Y014876D01*
X020358Y014933D01*
X020352Y014993D01*
X020358Y015056D01*
X020378Y015116D01*
X020409Y015171D01*
X020450Y015219D01*
X020501Y015257D01*
X020558Y015284D01*
X020619Y015298D01*
X020682Y015300D01*
X020745Y015289D01*
X020803Y015265D01*
X020856Y015230D01*
X020900Y015185D01*
X020934Y015132D01*
X020957Y015073D01*
X020967Y015011D01*
X020964Y014947D01*
X020948Y014886D01*
X020920Y014830D01*
X020881Y014780D01*
X020833Y014739D01*
X020777Y014709D01*
X020918Y014368D01*
X021018Y014419D01*
X021265Y014218D01*
X021435Y014387D01*
X021233Y014635D01*
X021285Y014734D01*
X021319Y014841D01*
X021636Y014873D01*
X021636Y015113D01*
X021319Y015146D01*
X021285Y015252D01*
X021233Y015352D01*
X021435Y015599D01*
X021265Y015769D01*
X021018Y015567D01*
X020918Y015618D01*
X020812Y015653D01*
X020779Y015970D01*
X020780Y015962D02*
X020539Y015962D01*
X020533Y015904D02*
X020786Y015904D01*
X020792Y015847D02*
X020527Y015847D01*
X020521Y015789D02*
X020798Y015789D01*
X020804Y015732D02*
X020515Y015732D01*
X020509Y015674D02*
X020810Y015674D01*
X020922Y015617D02*
X020397Y015617D01*
X020240Y015617D02*
X019901Y015617D01*
X019917Y015559D02*
X021402Y015559D01*
X021418Y015617D02*
X021079Y015617D01*
X021149Y015674D02*
X021360Y015674D01*
X021303Y015732D02*
X021220Y015732D01*
X021355Y015501D02*
X019964Y015501D01*
X020011Y015444D02*
X021308Y015444D01*
X021261Y015386D02*
X020058Y015386D01*
X020074Y015329D02*
X021245Y015329D01*
X021275Y015271D02*
X020788Y015271D01*
X020872Y015214D02*
X021297Y015214D01*
X021315Y015156D02*
X020919Y015156D01*
X020947Y015099D02*
X021636Y015099D01*
X021636Y015041D02*
X020962Y015041D01*
X020965Y014983D02*
X021636Y014983D01*
X021636Y014926D02*
X020958Y014926D01*
X020939Y014868D02*
X021588Y014868D01*
X021309Y014811D02*
X020905Y014811D01*
X020849Y014753D02*
X021291Y014753D01*
X021265Y014696D02*
X020783Y014696D01*
X020807Y014638D02*
X021235Y014638D01*
X021278Y014581D02*
X020830Y014581D01*
X020854Y014523D02*
X021324Y014523D01*
X021371Y014465D02*
X020878Y014465D01*
X020902Y014408D02*
X020996Y014408D01*
X021032Y014408D02*
X021418Y014408D01*
X021398Y014350D02*
X021103Y014350D01*
X021173Y014293D02*
X021341Y014293D01*
X021283Y014235D02*
X021244Y014235D01*
X020489Y014581D02*
X020042Y014581D01*
X020084Y014638D02*
X020512Y014638D01*
X020536Y014696D02*
X020054Y014696D01*
X020028Y014753D02*
X020469Y014753D01*
X020413Y014811D02*
X020010Y014811D01*
X019731Y014868D02*
X020379Y014868D01*
X020360Y014926D02*
X019683Y014926D01*
X019683Y014983D02*
X020353Y014983D01*
X020357Y015041D02*
X019683Y015041D01*
X019683Y015099D02*
X020372Y015099D01*
X020400Y015156D02*
X020004Y015156D01*
X020022Y015214D02*
X020446Y015214D01*
X020532Y015271D02*
X020044Y015271D01*
X019959Y015674D02*
X020170Y015674D01*
X020099Y015732D02*
X020016Y015732D01*
X019995Y014523D02*
X020465Y014523D01*
X020441Y014465D02*
X019948Y014465D01*
X019901Y014408D02*
X020287Y014408D01*
X020323Y014408D02*
X020417Y014408D01*
X020216Y014350D02*
X019921Y014350D01*
X019978Y014293D02*
X020146Y014293D01*
X020075Y014235D02*
X020036Y014235D01*
M02*
