G75*
G70*
%OFA0B0*%
%FSLAX24Y24*%
%IPPOS*%
%LPD*%
%AMOC8*
5,1,8,0,0,1.08239X$1,22.5*
%
%ADD10C,0.0020*%
%ADD11C,0.0000*%
D10*
X006460Y004893D02*
X006460Y022993D01*
X006960Y023493D01*
X026560Y023493D01*
X027060Y022993D01*
X027060Y004893D01*
X026560Y004393D01*
X006960Y004393D01*
X006460Y004893D01*
D11*
X008830Y005693D02*
X008832Y005743D01*
X008838Y005793D01*
X008848Y005842D01*
X008862Y005890D01*
X008879Y005937D01*
X008900Y005982D01*
X008925Y006026D01*
X008953Y006067D01*
X008985Y006106D01*
X009019Y006143D01*
X009056Y006177D01*
X009096Y006207D01*
X009138Y006234D01*
X009182Y006258D01*
X009228Y006279D01*
X009275Y006295D01*
X009323Y006308D01*
X009373Y006317D01*
X009422Y006322D01*
X009473Y006323D01*
X009523Y006320D01*
X009572Y006313D01*
X009621Y006302D01*
X009669Y006287D01*
X009715Y006269D01*
X009760Y006247D01*
X009803Y006221D01*
X009844Y006192D01*
X009883Y006160D01*
X009919Y006125D01*
X009951Y006087D01*
X009981Y006047D01*
X010008Y006004D01*
X010031Y005960D01*
X010050Y005914D01*
X010066Y005866D01*
X010078Y005817D01*
X010086Y005768D01*
X010090Y005718D01*
X010090Y005668D01*
X010086Y005618D01*
X010078Y005569D01*
X010066Y005520D01*
X010050Y005472D01*
X010031Y005426D01*
X010008Y005382D01*
X009981Y005339D01*
X009951Y005299D01*
X009919Y005261D01*
X009883Y005226D01*
X009844Y005194D01*
X009803Y005165D01*
X009760Y005139D01*
X009715Y005117D01*
X009669Y005099D01*
X009621Y005084D01*
X009572Y005073D01*
X009523Y005066D01*
X009473Y005063D01*
X009422Y005064D01*
X009373Y005069D01*
X009323Y005078D01*
X009275Y005091D01*
X009228Y005107D01*
X009182Y005128D01*
X009138Y005152D01*
X009096Y005179D01*
X009056Y005209D01*
X009019Y005243D01*
X008985Y005280D01*
X008953Y005319D01*
X008925Y005360D01*
X008900Y005404D01*
X008879Y005449D01*
X008862Y005496D01*
X008848Y005544D01*
X008838Y005593D01*
X008832Y005643D01*
X008830Y005693D01*
X023530Y022393D02*
X023532Y022443D01*
X023538Y022493D01*
X023548Y022542D01*
X023562Y022590D01*
X023579Y022637D01*
X023600Y022682D01*
X023625Y022726D01*
X023653Y022767D01*
X023685Y022806D01*
X023719Y022843D01*
X023756Y022877D01*
X023796Y022907D01*
X023838Y022934D01*
X023882Y022958D01*
X023928Y022979D01*
X023975Y022995D01*
X024023Y023008D01*
X024073Y023017D01*
X024122Y023022D01*
X024173Y023023D01*
X024223Y023020D01*
X024272Y023013D01*
X024321Y023002D01*
X024369Y022987D01*
X024415Y022969D01*
X024460Y022947D01*
X024503Y022921D01*
X024544Y022892D01*
X024583Y022860D01*
X024619Y022825D01*
X024651Y022787D01*
X024681Y022747D01*
X024708Y022704D01*
X024731Y022660D01*
X024750Y022614D01*
X024766Y022566D01*
X024778Y022517D01*
X024786Y022468D01*
X024790Y022418D01*
X024790Y022368D01*
X024786Y022318D01*
X024778Y022269D01*
X024766Y022220D01*
X024750Y022172D01*
X024731Y022126D01*
X024708Y022082D01*
X024681Y022039D01*
X024651Y021999D01*
X024619Y021961D01*
X024583Y021926D01*
X024544Y021894D01*
X024503Y021865D01*
X024460Y021839D01*
X024415Y021817D01*
X024369Y021799D01*
X024321Y021784D01*
X024272Y021773D01*
X024223Y021766D01*
X024173Y021763D01*
X024122Y021764D01*
X024073Y021769D01*
X024023Y021778D01*
X023975Y021791D01*
X023928Y021807D01*
X023882Y021828D01*
X023838Y021852D01*
X023796Y021879D01*
X023756Y021909D01*
X023719Y021943D01*
X023685Y021980D01*
X023653Y022019D01*
X023625Y022060D01*
X023600Y022104D01*
X023579Y022149D01*
X023562Y022196D01*
X023548Y022244D01*
X023538Y022293D01*
X023532Y022343D01*
X023530Y022393D01*
M02*
