G75*
G70*
%OFA0B0*%
%FSLAX24Y24*%
%IPPOS*%
%LPD*%
%AMOC8*
5,1,8,0,0,1.08239X$1,22.5*
%
%ADD10R,0.0394X0.0433*%
%ADD11R,0.0433X0.0433*%
%ADD12R,0.0315X0.0472*%
%ADD13R,0.1181X0.0630*%
%ADD14R,0.0354X0.0276*%
%ADD15C,0.0740*%
%ADD16R,0.0276X0.0354*%
%ADD17R,0.1063X0.0630*%
%ADD18R,0.0551X0.1181*%
%ADD19R,0.0138X0.0413*%
%ADD20R,0.1870X0.1079*%
%ADD21R,0.0320X0.0320*%
%ADD22R,0.0315X0.0354*%
%ADD23C,0.0669*%
%ADD24R,0.0394X0.0272*%
%ADD25R,0.0433X0.0394*%
%ADD26R,0.1496X0.0669*%
%ADD27R,0.0630X0.0709*%
%ADD28R,0.0315X0.0315*%
%ADD29R,0.0250X0.0500*%
%ADD30R,0.0472X0.0315*%
%ADD31R,0.0394X0.0098*%
%ADD32R,0.0165X0.0315*%
%ADD33R,0.0390X0.0120*%
%ADD34R,0.0500X0.0250*%
%ADD35R,0.0240X0.0240*%
%ADD36C,0.0100*%
%ADD37C,0.0240*%
%ADD38C,0.0080*%
%ADD39C,0.0400*%
%ADD40C,0.0240*%
%ADD41C,0.0120*%
%ADD42C,0.0160*%
%ADD43C,0.0320*%
%ADD44C,0.0320*%
D10*
X011262Y017109D03*
X011262Y017778D03*
X014060Y017778D03*
X014060Y017109D03*
X016760Y017109D03*
X016760Y017778D03*
X023560Y013028D03*
X023560Y012359D03*
X023560Y011728D03*
X023560Y011059D03*
X019860Y009428D03*
X019860Y008759D03*
D11*
X020490Y009393D03*
X021829Y009393D03*
X014260Y010924D03*
X014260Y012263D03*
X012560Y012263D03*
X011260Y012263D03*
X011260Y010924D03*
X012560Y010924D03*
X024890Y016693D03*
X026229Y016693D03*
D12*
X015714Y017093D03*
X015005Y017093D03*
X013014Y017093D03*
X012305Y017093D03*
X010214Y017093D03*
X009505Y017093D03*
D13*
G36*
X009371Y015915D02*
X008538Y015082D01*
X008093Y015527D01*
X008926Y016360D01*
X009371Y015915D01*
G37*
G36*
X011626Y013660D02*
X010793Y012827D01*
X010348Y013272D01*
X011181Y014105D01*
X011626Y013660D01*
G37*
G36*
X012871Y015915D02*
X012038Y015082D01*
X011593Y015527D01*
X012426Y016360D01*
X012871Y015915D01*
G37*
G36*
X015126Y013660D02*
X014293Y012827D01*
X013848Y013272D01*
X014681Y014105D01*
X015126Y013660D01*
G37*
G36*
X016371Y015915D02*
X015538Y015082D01*
X015093Y015527D01*
X015926Y016360D01*
X016371Y015915D01*
G37*
G36*
X018626Y013660D02*
X017793Y012827D01*
X017348Y013272D01*
X018181Y014105D01*
X018626Y013660D01*
G37*
D14*
X017960Y009649D03*
X017960Y009137D03*
X017460Y009137D03*
X016960Y009137D03*
X016960Y009649D03*
X017460Y009649D03*
X017460Y008449D03*
X016960Y008449D03*
X016960Y007937D03*
X017460Y007937D03*
X017960Y007937D03*
X017960Y008449D03*
X023860Y017237D03*
X023860Y017749D03*
X021900Y020697D03*
X021900Y021209D03*
X018660Y018249D03*
X018660Y017737D03*
D15*
X018820Y020993D03*
X017820Y020993D03*
X026260Y020693D03*
X026260Y019693D03*
X026260Y018693D03*
X026260Y017693D03*
X026260Y015693D03*
X026260Y014693D03*
X026260Y013693D03*
X026260Y012693D03*
X026260Y011693D03*
X026260Y010693D03*
X026260Y009693D03*
X026260Y008693D03*
X026260Y021693D03*
X026260Y022693D03*
X007260Y022693D03*
X007260Y021693D03*
X007260Y020693D03*
X007260Y019693D03*
X007260Y018693D03*
X007260Y017693D03*
X007260Y016693D03*
X007260Y015693D03*
X007260Y014193D03*
X007260Y013193D03*
X007260Y012193D03*
X007260Y011193D03*
X007260Y010193D03*
X007260Y009193D03*
X007260Y008193D03*
X007260Y007193D03*
X007260Y006193D03*
X007260Y005193D03*
D16*
X010104Y009393D03*
X010615Y009393D03*
X016554Y005293D03*
X017065Y005293D03*
X022704Y020493D03*
X023215Y020493D03*
D17*
X016960Y012244D03*
X016960Y011142D03*
X009260Y011142D03*
X009260Y012244D03*
D18*
X020960Y007938D03*
X020960Y006048D03*
D19*
X014496Y007253D03*
X014240Y007253D03*
X013984Y007253D03*
X013728Y007253D03*
X013472Y007253D03*
X013216Y007253D03*
X012960Y007253D03*
X012704Y007253D03*
X012449Y007253D03*
X012193Y007253D03*
X011937Y007253D03*
X011681Y007253D03*
X011425Y007253D03*
X011169Y007253D03*
X011169Y009438D03*
X011425Y009438D03*
X011681Y009438D03*
X011937Y009438D03*
X012193Y009438D03*
X012449Y009438D03*
X012704Y009438D03*
X012960Y009438D03*
X013216Y009438D03*
X013472Y009438D03*
X013728Y009438D03*
X013984Y009438D03*
X014240Y009438D03*
X014496Y009438D03*
D20*
X012832Y008346D03*
D21*
X012832Y008246D03*
X012582Y008246D03*
X012332Y008246D03*
X012082Y008246D03*
X011832Y008246D03*
X011582Y008246D03*
X011582Y008496D03*
X011582Y008746D03*
X011832Y008746D03*
X011832Y008496D03*
X012082Y008496D03*
X012082Y008746D03*
X012332Y008746D03*
X012332Y008496D03*
X012582Y008496D03*
X012582Y008746D03*
X012832Y008746D03*
X012832Y008496D03*
X013082Y008496D03*
X013082Y008746D03*
X013332Y008746D03*
X013332Y008496D03*
X013332Y008246D03*
X013082Y008246D03*
X013082Y007996D03*
X012832Y007996D03*
X012582Y007996D03*
X012332Y007996D03*
X012082Y007996D03*
X011832Y007996D03*
X011582Y007996D03*
X011582Y007746D03*
X011832Y007746D03*
X012082Y007746D03*
X012332Y007746D03*
X012582Y007746D03*
X012832Y007746D03*
X013082Y007746D03*
X013332Y007746D03*
X013332Y007996D03*
X013582Y007996D03*
X013582Y008246D03*
X013582Y008496D03*
X013582Y008746D03*
X013832Y008746D03*
X013832Y008496D03*
X013832Y008246D03*
X013832Y007996D03*
X013832Y007746D03*
X013582Y007746D03*
X014082Y007746D03*
X014082Y007996D03*
X014082Y008246D03*
X014082Y008496D03*
X014082Y008746D03*
D22*
X014034Y018300D03*
X013285Y018300D03*
X013660Y019126D03*
X015985Y018300D03*
X016734Y018300D03*
X016360Y019126D03*
X011234Y018300D03*
X010485Y018300D03*
X010860Y019126D03*
D23*
X010893Y020954D03*
X012271Y020954D03*
X013648Y020954D03*
X015026Y020954D03*
X016404Y020954D03*
X009515Y020954D03*
X023371Y006833D03*
X024748Y006833D03*
D24*
X022671Y010719D03*
X022671Y011093D03*
X022671Y011467D03*
X021648Y011467D03*
X021648Y011093D03*
X021648Y010719D03*
D25*
X021825Y010093D03*
X022494Y010093D03*
D26*
X019860Y010667D03*
X019860Y012911D03*
D27*
X021608Y012193D03*
X022711Y012193D03*
D28*
X019855Y009993D03*
X019264Y009993D03*
D29*
X019110Y005193D03*
X018760Y005193D03*
X018410Y005193D03*
X023822Y015693D03*
X024177Y015693D03*
D30*
X022660Y013548D03*
X022660Y012839D03*
D31*
X015791Y006187D03*
X015791Y005990D03*
X015791Y005793D03*
X015791Y005596D03*
X015791Y005400D03*
X014128Y005400D03*
X014128Y005596D03*
X014128Y005793D03*
X014128Y005990D03*
X014128Y006187D03*
D32*
X017766Y018841D03*
X018022Y018841D03*
X018278Y018841D03*
X018534Y018841D03*
X018534Y019904D03*
X018278Y019904D03*
X018022Y019904D03*
X017766Y019904D03*
D33*
X020411Y020017D03*
X020411Y019761D03*
X020411Y019505D03*
X020411Y019249D03*
X020411Y018993D03*
X020411Y018737D03*
X020411Y018481D03*
X020411Y018225D03*
X020411Y017969D03*
X020411Y017714D03*
X020411Y017458D03*
X020411Y017202D03*
X020411Y016946D03*
X020411Y016690D03*
X022708Y016690D03*
X022708Y016946D03*
X022708Y017202D03*
X022708Y017458D03*
X022708Y017714D03*
X022708Y017969D03*
X022708Y018225D03*
X022708Y018481D03*
X022708Y018737D03*
X022708Y018993D03*
X022708Y019249D03*
X022708Y019505D03*
X022708Y019761D03*
X022708Y020017D03*
D34*
X024160Y020206D03*
X024160Y020530D03*
X024160Y018780D03*
X024160Y018456D03*
D35*
X020926Y018570D03*
X020926Y017610D03*
X020926Y016710D03*
X018926Y018770D03*
X020926Y020250D03*
X020460Y012093D03*
X020460Y011793D03*
X022160Y011093D03*
X017760Y011193D03*
X017760Y010893D03*
X017760Y010593D03*
X017410Y010543D03*
X017110Y010543D03*
X016810Y010543D03*
X016510Y010543D03*
X016160Y010593D03*
X016160Y010893D03*
X016160Y011193D03*
X016160Y011493D03*
X017760Y011493D03*
X014260Y011443D03*
X014260Y011743D03*
X012560Y011743D03*
X012560Y011443D03*
X011260Y011443D03*
X011260Y011743D03*
X010060Y011493D03*
X010060Y011193D03*
X010060Y010893D03*
X010060Y010593D03*
X009710Y010543D03*
X009410Y010543D03*
X009110Y010543D03*
X008810Y010543D03*
X008460Y010593D03*
X008460Y010893D03*
X008460Y011193D03*
X008460Y011493D03*
X020460Y005593D03*
X020460Y005193D03*
X020760Y005193D03*
X021160Y005193D03*
X021460Y005193D03*
X021460Y005593D03*
D36*
X006580Y004943D02*
X006580Y022944D01*
X007009Y023373D01*
X026510Y023373D01*
X026940Y022944D01*
X026940Y013253D01*
X026539Y013253D01*
X026598Y013297D01*
X026656Y013355D01*
X026704Y013421D01*
X026741Y013494D01*
X026767Y013572D01*
X026778Y013643D01*
X026310Y013643D01*
X026310Y013743D01*
X026778Y013743D01*
X026767Y013815D01*
X026741Y013893D01*
X026704Y013966D01*
X026656Y014032D01*
X026598Y014090D01*
X026532Y014138D01*
X026459Y014175D01*
X026403Y014193D01*
X026459Y014211D01*
X026532Y014249D01*
X026598Y014297D01*
X026656Y014355D01*
X026704Y014421D01*
X026741Y014494D01*
X026767Y014572D01*
X026778Y014643D01*
X026310Y014643D01*
X026310Y014743D01*
X026778Y014743D01*
X026767Y014815D01*
X026741Y014893D01*
X026704Y014966D01*
X026656Y015032D01*
X026598Y015090D01*
X026532Y015138D01*
X026459Y015175D01*
X026381Y015201D01*
X026347Y015206D01*
X026366Y015214D01*
X026412Y015234D01*
X026415Y015236D01*
X026418Y015238D01*
X026421Y015241D01*
X026531Y015286D01*
X026666Y015421D01*
X026740Y015598D01*
X026740Y015789D01*
X026666Y015965D01*
X026531Y016100D01*
X026514Y016108D01*
X026507Y016383D01*
X026555Y016431D01*
X026555Y016955D01*
X026491Y017020D01*
X025967Y017020D01*
X025902Y016955D01*
X025902Y016431D01*
X025967Y016367D01*
X025974Y016086D01*
X025853Y015965D01*
X025819Y015883D01*
X025620Y015883D01*
X025620Y017060D01*
X025526Y017153D01*
X024660Y017153D01*
X024594Y017154D01*
X024594Y017153D01*
X024593Y017153D01*
X024547Y017107D01*
X023974Y016538D01*
X023505Y016538D01*
X023510Y016543D01*
X023510Y018884D01*
X023410Y018983D01*
X023230Y019163D01*
X023052Y019163D01*
X023053Y019169D01*
X023053Y019249D01*
X023053Y019329D01*
X023052Y019335D01*
X023978Y019335D01*
X023990Y019323D01*
X023990Y019015D01*
X023864Y019015D01*
X023800Y018951D01*
X023800Y018286D01*
X023864Y018221D01*
X023990Y018221D01*
X023990Y018120D01*
X023867Y017997D01*
X023637Y017997D01*
X023572Y017933D01*
X023572Y017566D01*
X023637Y017501D01*
X024082Y017501D01*
X024147Y017566D01*
X024147Y017796D01*
X024230Y017879D01*
X024330Y017979D01*
X024330Y018221D01*
X024455Y018221D01*
X024520Y018286D01*
X024520Y018598D01*
X024627Y018600D01*
X024664Y018563D01*
X024855Y018563D01*
X024990Y018698D01*
X024990Y018889D01*
X024855Y019023D01*
X024664Y019023D01*
X024621Y018980D01*
X024493Y018978D01*
X024455Y019015D01*
X024330Y019015D01*
X024330Y019464D01*
X024230Y019563D01*
X024150Y019643D01*
X024230Y019723D01*
X024330Y019823D01*
X024330Y019971D01*
X024455Y019971D01*
X024493Y020009D01*
X024621Y020006D01*
X024664Y019963D01*
X024855Y019963D01*
X024990Y020098D01*
X024990Y020289D01*
X024855Y020423D01*
X024664Y020423D01*
X024627Y020386D01*
X024520Y020388D01*
X024520Y020701D01*
X024455Y020765D01*
X023864Y020765D01*
X023805Y020706D01*
X023463Y020712D01*
X023463Y020716D01*
X023399Y020780D01*
X023032Y020780D01*
X022968Y020716D01*
X022968Y020271D01*
X023032Y020206D01*
X023399Y020206D01*
X023463Y020271D01*
X023463Y020372D01*
X023800Y020367D01*
X023800Y020036D01*
X023864Y019971D01*
X023990Y019971D01*
X023990Y019964D01*
X023957Y019931D01*
X023013Y019931D01*
X023013Y020122D01*
X022949Y020187D01*
X022877Y020187D01*
X022876Y020206D01*
X022887Y020206D01*
X022951Y020271D01*
X022951Y020716D01*
X022887Y020780D01*
X022858Y020780D01*
X022850Y020789D01*
X022850Y020901D01*
X022888Y020940D01*
X022930Y021040D01*
X025390Y021040D01*
X025390Y021138D02*
X022930Y021138D01*
X022930Y021147D02*
X022888Y021246D01*
X022812Y021322D01*
X022713Y021363D01*
X022606Y021363D01*
X022507Y021322D01*
X022431Y021246D01*
X022390Y021147D01*
X022390Y021040D01*
X022224Y021040D01*
X022227Y021052D02*
X022227Y021190D01*
X021918Y021190D01*
X021918Y021228D01*
X021881Y021228D01*
X021881Y021497D01*
X021703Y021497D01*
X021664Y021487D01*
X021630Y021467D01*
X021602Y021439D01*
X021583Y021405D01*
X021572Y021367D01*
X021572Y021228D01*
X021881Y021228D01*
X021881Y021190D01*
X021572Y021190D01*
X021572Y021052D01*
X021583Y021014D01*
X021602Y020979D01*
X021630Y020951D01*
X021664Y020932D01*
X021612Y020881D01*
X021612Y020869D01*
X021560Y020867D01*
X021526Y020867D01*
X021030Y021363D01*
X019989Y021363D01*
X019890Y021264D01*
X018990Y020364D01*
X018990Y019864D01*
X018463Y019337D01*
X018364Y019238D01*
X018364Y019108D01*
X017893Y019108D01*
X017829Y019044D01*
X017829Y018638D01*
X017852Y018615D01*
X017852Y017411D01*
X017730Y017289D01*
X017730Y017098D01*
X017864Y016963D01*
X018055Y016963D01*
X018108Y017016D01*
X018108Y017005D01*
X018209Y016903D01*
X017066Y016903D01*
X017066Y017371D01*
X017002Y017435D01*
X016517Y017435D01*
X016505Y017424D01*
X016476Y017453D01*
X015315Y017453D01*
X015315Y020614D01*
X015403Y020702D01*
X015471Y020865D01*
X015471Y021042D01*
X015403Y021206D01*
X015278Y021331D01*
X015115Y021399D01*
X014938Y021399D01*
X014775Y021331D01*
X014649Y021206D01*
X014582Y021042D01*
X014582Y020865D01*
X014649Y020702D01*
X014695Y020656D01*
X014695Y016903D01*
X014366Y016903D01*
X014366Y017371D01*
X014302Y017435D01*
X013817Y017435D01*
X013805Y017424D01*
X013776Y017453D01*
X012615Y017453D01*
X012615Y020670D01*
X012647Y020702D01*
X012715Y020865D01*
X012715Y021042D01*
X012647Y021206D01*
X012522Y021331D01*
X012359Y021399D01*
X012182Y021399D01*
X012019Y021331D01*
X011894Y021206D01*
X011826Y021042D01*
X011826Y020865D01*
X011894Y020702D01*
X011995Y020600D01*
X011995Y016903D01*
X011569Y016903D01*
X011569Y017371D01*
X011504Y017435D01*
X011019Y017435D01*
X011007Y017422D01*
X010976Y017453D01*
X009815Y017453D01*
X009815Y020626D01*
X009892Y020702D01*
X009959Y020865D01*
X009959Y021042D01*
X009892Y021206D01*
X009767Y021331D01*
X009603Y021399D01*
X009426Y021399D01*
X009263Y021331D01*
X009138Y021206D01*
X009070Y021042D01*
X009070Y020865D01*
X009138Y020702D01*
X009195Y020645D01*
X009195Y016578D01*
X009180Y016563D01*
X009024Y016420D01*
X008972Y016471D01*
X008881Y016471D01*
X007982Y015571D01*
X007982Y015480D01*
X008200Y015263D01*
X008200Y011866D01*
X008293Y011773D01*
X010026Y011773D01*
X010120Y011866D01*
X010120Y011913D01*
X010350Y011913D01*
X010350Y011132D01*
X010397Y011018D01*
X010484Y010931D01*
X010753Y010661D01*
X010867Y010614D01*
X010955Y010614D01*
X010860Y010519D01*
X010755Y010623D01*
X010564Y010623D01*
X010430Y010489D01*
X010430Y010298D01*
X010534Y010193D01*
X010430Y010089D01*
X010430Y009898D01*
X010564Y009763D01*
X010663Y009763D01*
X010693Y009733D01*
X011033Y009733D01*
X010990Y009690D01*
X010990Y009553D01*
X010863Y009553D01*
X010863Y009616D01*
X010799Y009680D01*
X010432Y009680D01*
X010381Y009629D01*
X010361Y009663D01*
X010334Y009691D01*
X010299Y009710D01*
X010261Y009720D01*
X010123Y009720D01*
X010123Y009412D01*
X010085Y009412D01*
X010085Y009720D01*
X009946Y009720D01*
X009908Y009710D01*
X009874Y009691D01*
X009846Y009663D01*
X009826Y009628D01*
X009816Y009590D01*
X009816Y009412D01*
X010085Y009412D01*
X010085Y009374D01*
X010123Y009374D01*
X010123Y009066D01*
X010261Y009066D01*
X010299Y009076D01*
X010334Y009096D01*
X010361Y009124D01*
X010381Y009157D01*
X010432Y009106D01*
X010799Y009106D01*
X010863Y009171D01*
X010863Y009233D01*
X010990Y009233D01*
X010990Y009186D01*
X011000Y009176D01*
X011000Y009027D01*
X011093Y008933D01*
X014726Y008933D01*
X014820Y009027D01*
X014826Y009033D01*
X014920Y009127D01*
X014920Y009427D01*
X015326Y009833D01*
X016238Y009833D01*
X016307Y009764D01*
X016406Y009723D01*
X016513Y009723D01*
X016612Y009764D01*
X016632Y009784D01*
X016632Y009668D01*
X016941Y009668D01*
X016941Y009937D01*
X016763Y009937D01*
X016724Y009927D01*
X016730Y009940D01*
X016730Y010047D01*
X016688Y010146D01*
X016612Y010222D01*
X016513Y010263D01*
X016406Y010263D01*
X016307Y010222D01*
X016238Y010153D01*
X015193Y010153D01*
X015100Y010060D01*
X014713Y009673D01*
X014704Y009703D01*
X014685Y009737D01*
X014657Y009765D01*
X014623Y009785D01*
X014584Y009795D01*
X014496Y009795D01*
X014496Y009438D01*
X014496Y009513D01*
X014842Y009859D01*
X014851Y009811D02*
X014503Y009811D01*
X014496Y009795D02*
X014487Y009795D01*
X014626Y009933D01*
X014926Y009933D01*
X015426Y010433D01*
X015494Y010433D01*
X015564Y010363D01*
X015755Y010363D01*
X015890Y010498D01*
X015890Y010689D01*
X015785Y010793D01*
X015890Y010898D01*
X015890Y011089D01*
X015785Y011193D01*
X015890Y011298D01*
X015890Y011489D01*
X015755Y011623D01*
X015564Y011623D01*
X015494Y011553D01*
X015493Y011553D01*
X015470Y011530D01*
X015470Y011865D01*
X015518Y011913D01*
X015740Y011913D01*
X015739Y011885D01*
X015740Y011885D01*
X015787Y011837D01*
X015833Y011791D01*
X015833Y011791D01*
X015901Y011791D01*
X017902Y011791D01*
X018054Y011673D01*
X018134Y011593D01*
X018030Y011489D01*
X018030Y011298D01*
X018100Y011228D01*
X018100Y009937D01*
X017978Y009937D01*
X017978Y009668D01*
X017941Y009668D01*
X017941Y009937D01*
X017763Y009937D01*
X017724Y009927D01*
X017710Y009918D01*
X017695Y009927D01*
X017656Y009937D01*
X017478Y009937D01*
X017478Y009668D01*
X017441Y009668D01*
X017441Y009937D01*
X017263Y009937D01*
X017224Y009927D01*
X017210Y009918D01*
X017195Y009927D01*
X017156Y009937D01*
X016978Y009937D01*
X016978Y009668D01*
X016941Y009668D01*
X016941Y009630D01*
X016632Y009630D01*
X016632Y009492D01*
X016643Y009454D01*
X016662Y009419D01*
X016690Y009391D01*
X016724Y009372D01*
X016672Y009321D01*
X016672Y008954D01*
X016737Y008890D01*
X016800Y008890D01*
X016800Y008697D01*
X016737Y008697D01*
X016672Y008633D01*
X016672Y008266D01*
X016737Y008201D01*
X017182Y008201D01*
X017210Y008229D01*
X017237Y008201D01*
X017682Y008201D01*
X017710Y008229D01*
X017737Y008201D01*
X018100Y008201D01*
X018100Y008185D01*
X017737Y008185D01*
X017710Y008158D01*
X017682Y008185D01*
X017237Y008185D01*
X017210Y008158D01*
X017182Y008185D01*
X016737Y008185D01*
X016672Y008121D01*
X016672Y007754D01*
X016737Y007690D01*
X016800Y007690D01*
X016800Y007360D01*
X016393Y006953D01*
X014684Y006953D01*
X014685Y006954D01*
X014704Y006988D01*
X014715Y007027D01*
X014715Y007253D01*
X014496Y007253D01*
X014496Y007253D01*
X014715Y007253D01*
X014715Y007480D01*
X014704Y007518D01*
X014685Y007552D01*
X014657Y007580D01*
X014623Y007600D01*
X014584Y007610D01*
X014496Y007610D01*
X014496Y007253D01*
X014496Y007253D01*
X014277Y007253D01*
X014240Y007253D01*
X014240Y007253D01*
X014496Y007253D01*
X014496Y007253D01*
X014496Y007610D01*
X014407Y007610D01*
X014369Y007600D01*
X014368Y007599D01*
X014367Y007600D01*
X014329Y007610D01*
X014240Y007610D01*
X014240Y007253D01*
X014240Y007253D01*
X014240Y007610D01*
X014151Y007610D01*
X014113Y007600D01*
X014079Y007580D01*
X014069Y007570D01*
X013870Y007570D01*
X013856Y007556D01*
X013843Y007570D01*
X013614Y007570D01*
X013600Y007556D01*
X013587Y007570D01*
X013358Y007570D01*
X013344Y007556D01*
X013331Y007570D01*
X013102Y007570D01*
X013088Y007556D01*
X013075Y007570D01*
X012846Y007570D01*
X012832Y007556D01*
X012819Y007570D01*
X012590Y007570D01*
X012577Y007556D01*
X012563Y007570D01*
X012334Y007570D01*
X012321Y007556D01*
X012307Y007570D01*
X012078Y007570D01*
X012065Y007556D01*
X012051Y007570D01*
X011822Y007570D01*
X011809Y007556D01*
X011795Y007570D01*
X011566Y007570D01*
X011553Y007556D01*
X011539Y007570D01*
X011310Y007570D01*
X011297Y007556D01*
X011284Y007570D01*
X011055Y007570D01*
X010990Y007505D01*
X010990Y007001D01*
X011009Y006982D01*
X011009Y006218D01*
X012193Y005033D01*
X015326Y005033D01*
X015532Y005240D01*
X016306Y005240D01*
X016306Y005071D01*
X016370Y005006D01*
X016737Y005006D01*
X016788Y005057D01*
X016808Y005024D01*
X016836Y004996D01*
X016870Y004976D01*
X016908Y004966D01*
X017047Y004966D01*
X017047Y005274D01*
X017084Y005274D01*
X017084Y004966D01*
X017223Y004966D01*
X017261Y004976D01*
X017295Y004996D01*
X017323Y005024D01*
X017343Y005058D01*
X017353Y005096D01*
X017353Y005274D01*
X017084Y005274D01*
X017084Y005312D01*
X017047Y005312D01*
X017047Y005620D01*
X017013Y005620D01*
X017430Y006037D01*
X017430Y005998D01*
X017564Y005863D01*
X017755Y005863D01*
X017825Y005933D01*
X018493Y005933D01*
X018600Y005827D01*
X018600Y005553D01*
X018589Y005553D01*
X018585Y005549D01*
X018580Y005553D01*
X018239Y005553D01*
X018175Y005489D01*
X018175Y004898D01*
X018206Y004866D01*
X018093Y004753D01*
X009026Y004753D01*
X008020Y005760D01*
X008020Y013660D01*
X007693Y013986D01*
X007740Y014098D01*
X007740Y014289D01*
X007666Y014465D01*
X007531Y014600D01*
X007355Y014673D01*
X007164Y014673D01*
X006988Y014600D01*
X006853Y014465D01*
X006780Y014289D01*
X006780Y014098D01*
X006853Y013921D01*
X006988Y013786D01*
X007164Y013713D01*
X007355Y013713D01*
X007467Y013760D01*
X007700Y013527D01*
X007700Y013385D01*
X007666Y013465D01*
X007531Y013600D01*
X007355Y013673D01*
X007164Y013673D01*
X006988Y013600D01*
X006853Y013465D01*
X006780Y013289D01*
X006780Y013098D01*
X006853Y012921D01*
X006988Y012786D01*
X007164Y012713D01*
X007355Y012713D01*
X007531Y012786D01*
X007666Y012921D01*
X007700Y013001D01*
X007700Y012385D01*
X007666Y012465D01*
X007531Y012600D01*
X007355Y012673D01*
X007164Y012673D01*
X006988Y012600D01*
X006853Y012465D01*
X006780Y012289D01*
X006780Y012098D01*
X006853Y011921D01*
X006988Y011786D01*
X007164Y011713D01*
X007355Y011713D01*
X007531Y011786D01*
X007666Y011921D01*
X007700Y012001D01*
X007700Y011385D01*
X007666Y011465D01*
X007531Y011600D01*
X007355Y011673D01*
X007164Y011673D01*
X006988Y011600D01*
X006853Y011465D01*
X006780Y011289D01*
X006780Y011098D01*
X006853Y010921D01*
X006988Y010786D01*
X007164Y010713D01*
X007355Y010713D01*
X007531Y010786D01*
X007666Y010921D01*
X007700Y011001D01*
X007700Y010385D01*
X007666Y010465D01*
X007531Y010600D01*
X007355Y010673D01*
X007164Y010673D01*
X006988Y010600D01*
X006853Y010465D01*
X006780Y010289D01*
X006780Y010098D01*
X006853Y009921D01*
X006988Y009786D01*
X007164Y009713D01*
X007355Y009713D01*
X007531Y009786D01*
X007666Y009921D01*
X007700Y010001D01*
X007700Y009385D01*
X007666Y009465D01*
X007531Y009600D01*
X007355Y009673D01*
X007164Y009673D01*
X006988Y009600D01*
X006853Y009465D01*
X006780Y009289D01*
X006780Y009098D01*
X006853Y008921D01*
X006988Y008786D01*
X007164Y008713D01*
X007355Y008713D01*
X007531Y008786D01*
X007666Y008921D01*
X007700Y009001D01*
X007700Y008472D01*
X007656Y008532D01*
X007598Y008590D01*
X007532Y008638D01*
X007459Y008675D01*
X007381Y008701D01*
X007310Y008712D01*
X007310Y008243D01*
X007210Y008243D01*
X007210Y008712D01*
X007138Y008701D01*
X007060Y008675D01*
X006987Y008638D01*
X006921Y008590D01*
X006863Y008532D01*
X006815Y008466D01*
X006778Y008393D01*
X006752Y008315D01*
X006741Y008243D01*
X007210Y008243D01*
X007210Y008143D01*
X007310Y008143D01*
X007310Y007675D01*
X007381Y007686D01*
X007459Y007711D01*
X007532Y007749D01*
X007598Y007797D01*
X007656Y007855D01*
X007700Y007914D01*
X007700Y007385D01*
X007666Y007465D01*
X007531Y007600D01*
X007355Y007673D01*
X007164Y007673D01*
X006988Y007600D01*
X006853Y007465D01*
X006780Y007289D01*
X006780Y007098D01*
X006853Y006921D01*
X006988Y006786D01*
X007164Y006713D01*
X007355Y006713D01*
X007531Y006786D01*
X007666Y006921D01*
X007700Y007001D01*
X007700Y006385D01*
X007666Y006465D01*
X007531Y006600D01*
X007355Y006673D01*
X007164Y006673D01*
X006988Y006600D01*
X006853Y006465D01*
X006780Y006289D01*
X006780Y006098D01*
X006853Y005921D01*
X006988Y005786D01*
X007164Y005713D01*
X007355Y005713D01*
X007531Y005786D01*
X007666Y005921D01*
X007700Y006001D01*
X007700Y005627D01*
X007793Y005533D01*
X008813Y004513D01*
X007009Y004513D01*
X006580Y004943D01*
X006580Y004984D02*
X006827Y004984D01*
X006853Y004921D02*
X006780Y005098D01*
X006780Y005289D01*
X006853Y005465D01*
X006988Y005600D01*
X007164Y005673D01*
X007355Y005673D01*
X007531Y005600D01*
X007666Y005465D01*
X007740Y005289D01*
X007740Y005098D01*
X007666Y004921D01*
X007531Y004786D01*
X007355Y004713D01*
X007164Y004713D01*
X006988Y004786D01*
X006853Y004921D01*
X006888Y004886D02*
X006637Y004886D01*
X006735Y004787D02*
X006987Y004787D01*
X006834Y004689D02*
X008638Y004689D01*
X008736Y004590D02*
X006932Y004590D01*
X006786Y005083D02*
X006580Y005083D01*
X006580Y005181D02*
X006780Y005181D01*
X006780Y005280D02*
X006580Y005280D01*
X006580Y005378D02*
X006817Y005378D01*
X006864Y005477D02*
X006580Y005477D01*
X006580Y005575D02*
X006963Y005575D01*
X007022Y005772D02*
X006580Y005772D01*
X006580Y005674D02*
X007700Y005674D01*
X007700Y005772D02*
X007497Y005772D01*
X007616Y005871D02*
X007700Y005871D01*
X007686Y005969D02*
X007700Y005969D01*
X007860Y005693D02*
X007860Y013593D01*
X007260Y014193D01*
X007446Y013751D02*
X007476Y013751D01*
X007406Y013652D02*
X007574Y013652D01*
X007578Y013554D02*
X007673Y013554D01*
X007671Y013455D02*
X007700Y013455D01*
X008020Y013455D02*
X008200Y013455D01*
X008200Y013357D02*
X008020Y013357D01*
X008020Y013258D02*
X008200Y013258D01*
X008200Y013160D02*
X008020Y013160D01*
X008020Y013061D02*
X008200Y013061D01*
X008200Y012963D02*
X008020Y012963D01*
X008020Y012864D02*
X008200Y012864D01*
X008200Y012766D02*
X008020Y012766D01*
X008020Y012667D02*
X008200Y012667D01*
X008200Y012569D02*
X008020Y012569D01*
X008020Y012470D02*
X008200Y012470D01*
X008200Y012372D02*
X008020Y012372D01*
X008020Y012273D02*
X008200Y012273D01*
X008200Y012175D02*
X008020Y012175D01*
X008020Y012076D02*
X008200Y012076D01*
X008200Y011978D02*
X008020Y011978D01*
X008020Y011879D02*
X008200Y011879D01*
X008285Y011781D02*
X008020Y011781D01*
X008020Y011682D02*
X010350Y011682D01*
X010350Y011584D02*
X009871Y011584D01*
X009883Y011577D02*
X009849Y011597D01*
X009811Y011607D01*
X009310Y011607D01*
X009310Y011192D01*
X009941Y011192D01*
X009941Y011477D01*
X009931Y011515D01*
X009911Y011549D01*
X009883Y011577D01*
X009939Y011485D02*
X010350Y011485D01*
X010350Y011387D02*
X009941Y011387D01*
X009941Y011288D02*
X010350Y011288D01*
X010350Y011190D02*
X009310Y011190D01*
X009310Y011192D02*
X009310Y011092D01*
X009941Y011092D01*
X009941Y010807D01*
X009931Y010769D01*
X009911Y010735D01*
X009883Y010707D01*
X009849Y010687D01*
X009811Y010677D01*
X009310Y010677D01*
X009310Y011092D01*
X009210Y011092D01*
X009210Y010677D01*
X008708Y010677D01*
X008670Y010687D01*
X008636Y010707D01*
X008608Y010735D01*
X008588Y010769D01*
X008578Y010807D01*
X008578Y011092D01*
X009210Y011092D01*
X009210Y011192D01*
X009210Y011607D01*
X008708Y011607D01*
X008670Y011597D01*
X008636Y011577D01*
X008608Y011549D01*
X008588Y011515D01*
X008578Y011477D01*
X008578Y011192D01*
X009210Y011192D01*
X009310Y011192D01*
X009310Y011288D02*
X009210Y011288D01*
X009210Y011190D02*
X008020Y011190D01*
X008020Y011288D02*
X008578Y011288D01*
X008578Y011387D02*
X008020Y011387D01*
X008020Y011485D02*
X008580Y011485D01*
X008648Y011584D02*
X008020Y011584D01*
X007700Y011584D02*
X007548Y011584D01*
X007646Y011485D02*
X007700Y011485D01*
X007699Y011387D02*
X007700Y011387D01*
X007700Y011682D02*
X006580Y011682D01*
X006580Y011584D02*
X006971Y011584D01*
X006873Y011485D02*
X006580Y011485D01*
X006580Y011387D02*
X006820Y011387D01*
X006780Y011288D02*
X006580Y011288D01*
X006580Y011190D02*
X006780Y011190D01*
X006782Y011091D02*
X006580Y011091D01*
X006580Y010993D02*
X006823Y010993D01*
X006880Y010894D02*
X006580Y010894D01*
X006580Y010796D02*
X006978Y010796D01*
X006986Y010599D02*
X006580Y010599D01*
X006580Y010697D02*
X007700Y010697D01*
X007700Y010599D02*
X007533Y010599D01*
X007631Y010500D02*
X007700Y010500D01*
X007693Y010402D02*
X007700Y010402D01*
X008020Y010402D02*
X010430Y010402D01*
X010430Y010303D02*
X008020Y010303D01*
X008020Y010205D02*
X010523Y010205D01*
X010447Y010106D02*
X008020Y010106D01*
X008020Y010008D02*
X010430Y010008D01*
X010430Y009909D02*
X008020Y009909D01*
X008020Y009811D02*
X010517Y009811D01*
X010660Y009993D02*
X010760Y009893D01*
X011260Y009893D01*
X011425Y009728D01*
X011425Y009438D01*
X011681Y009438D02*
X011681Y009872D01*
X011460Y010093D01*
X010960Y010093D01*
X010660Y010393D01*
X010779Y010599D02*
X010940Y010599D01*
X011060Y010393D02*
X011460Y010393D01*
X011937Y009916D01*
X011937Y009438D01*
X012193Y009438D02*
X012193Y009960D01*
X012160Y009993D01*
X011360Y010993D01*
X011360Y010893D02*
X012160Y009993D01*
X011260Y010893D01*
X011260Y010924D01*
X011586Y010966D02*
X011586Y011186D01*
X011522Y011251D01*
X011041Y011251D01*
X010970Y011322D01*
X010970Y011913D01*
X011650Y011913D01*
X011650Y011132D01*
X011697Y011018D01*
X011784Y010931D01*
X012053Y010661D01*
X012167Y010614D01*
X012281Y010614D01*
X012289Y010606D01*
X012289Y010091D01*
X012279Y010100D01*
X011586Y010966D01*
X011586Y010993D02*
X011722Y010993D01*
X011666Y011091D02*
X011586Y011091D01*
X011582Y011190D02*
X011650Y011190D01*
X011650Y011288D02*
X011003Y011288D01*
X010970Y011387D02*
X011650Y011387D01*
X011650Y011485D02*
X010970Y011485D01*
X010970Y011584D02*
X011650Y011584D01*
X011650Y011682D02*
X010970Y011682D01*
X010970Y011781D02*
X011650Y011781D01*
X011650Y011879D02*
X010970Y011879D01*
X010970Y012073D02*
X010970Y012847D01*
X011737Y013615D01*
X011737Y013706D01*
X011227Y014216D01*
X011136Y014216D01*
X010237Y013317D01*
X010237Y013225D01*
X010350Y013113D01*
X010350Y012073D01*
X009960Y012073D01*
X009960Y011933D01*
X009941Y011933D01*
X009941Y012194D01*
X009310Y012194D01*
X009310Y012294D01*
X009941Y012294D01*
X009941Y012579D01*
X009931Y012617D01*
X009911Y012652D01*
X009883Y012679D01*
X009849Y012699D01*
X009811Y012709D01*
X009310Y012709D01*
X009310Y012294D01*
X009210Y012294D01*
X009210Y012194D01*
X008578Y012194D01*
X008578Y011933D01*
X008360Y011933D01*
X008360Y015103D01*
X008492Y014970D01*
X008583Y014970D01*
X009482Y015870D01*
X009482Y015961D01*
X009469Y015975D01*
X009768Y016274D01*
X009815Y016388D01*
X009815Y017293D01*
X009906Y017293D01*
X009906Y017122D01*
X010185Y017122D01*
X010185Y017065D01*
X009906Y017065D01*
X009906Y016837D01*
X009917Y016799D01*
X009936Y016765D01*
X009964Y016737D01*
X009998Y016717D01*
X010037Y016707D01*
X010185Y016707D01*
X010185Y017065D01*
X010243Y017065D01*
X010243Y017122D01*
X010521Y017122D01*
X010521Y017293D01*
X010910Y017293D01*
X010910Y016743D01*
X011041Y016743D01*
X011045Y016742D01*
X011213Y016742D01*
X011213Y016743D01*
X011310Y016743D01*
X011310Y016742D01*
X011478Y016742D01*
X011483Y016743D01*
X011995Y016743D01*
X011995Y016085D01*
X011482Y015571D01*
X011482Y015480D01*
X011992Y014970D01*
X012083Y014970D01*
X012982Y015870D01*
X012982Y015961D01*
X012615Y016328D01*
X012615Y017293D01*
X012706Y017293D01*
X012706Y017122D01*
X012985Y017122D01*
X012985Y017065D01*
X012706Y017065D01*
X012706Y016837D01*
X012717Y016799D01*
X012736Y016765D01*
X012764Y016737D01*
X012798Y016717D01*
X012837Y016707D01*
X012985Y016707D01*
X012985Y017065D01*
X013043Y017065D01*
X013043Y017122D01*
X013321Y017122D01*
X013321Y017293D01*
X013710Y017293D01*
X013710Y016743D01*
X013839Y016743D01*
X013843Y016742D01*
X014011Y016742D01*
X014011Y016743D01*
X014108Y016743D01*
X014108Y016742D01*
X014276Y016742D01*
X014281Y016743D01*
X014695Y016743D01*
X014695Y016386D01*
X014742Y016272D01*
X015212Y015802D01*
X014982Y015571D01*
X014982Y015480D01*
X015492Y014970D01*
X015583Y014970D01*
X016482Y015870D01*
X016482Y015961D01*
X015972Y016471D01*
X015881Y016471D01*
X015651Y016240D01*
X015315Y016576D01*
X015315Y017293D01*
X015406Y017293D01*
X015406Y017122D01*
X015685Y017122D01*
X015685Y017065D01*
X015406Y017065D01*
X015406Y016837D01*
X015417Y016799D01*
X015436Y016765D01*
X015464Y016737D01*
X015498Y016717D01*
X015537Y016707D01*
X015685Y016707D01*
X015685Y017065D01*
X015743Y017065D01*
X015743Y017122D01*
X016021Y017122D01*
X016021Y017293D01*
X016410Y017293D01*
X016410Y016743D01*
X016539Y016743D01*
X016543Y016742D01*
X016711Y016742D01*
X016711Y016743D01*
X016808Y016743D01*
X016808Y016742D01*
X016976Y016742D01*
X016981Y016743D01*
X018290Y016743D01*
X018290Y016223D01*
X018330Y016183D01*
X018330Y016098D01*
X018360Y016068D01*
X018360Y016018D01*
X018409Y016018D01*
X018464Y015963D01*
X018655Y015963D01*
X018711Y016019D01*
X019893Y016023D01*
X021730Y016023D01*
X021736Y016029D01*
X021898Y016030D01*
X021964Y015963D01*
X022155Y015963D01*
X022215Y016023D01*
X022990Y016023D01*
X023090Y016123D01*
X023345Y016378D01*
X024040Y016378D01*
X024660Y016993D01*
X025460Y016993D01*
X025460Y015883D01*
X024412Y015883D01*
X024412Y015989D01*
X024347Y016053D01*
X024049Y016053D01*
X024039Y016063D01*
X024005Y016083D01*
X023967Y016093D01*
X023835Y016093D01*
X023835Y015706D01*
X023810Y015706D01*
X023810Y016093D01*
X023678Y016093D01*
X023639Y016083D01*
X023605Y016063D01*
X023577Y016035D01*
X023558Y016001D01*
X023547Y015963D01*
X023547Y015706D01*
X023810Y015706D01*
X023810Y015681D01*
X023547Y015681D01*
X023547Y015424D01*
X023558Y015385D01*
X023577Y015351D01*
X023605Y015323D01*
X023639Y015304D01*
X023678Y015293D01*
X023810Y015293D01*
X023810Y015681D01*
X023835Y015681D01*
X023835Y015293D01*
X023967Y015293D01*
X024005Y015304D01*
X024039Y015323D01*
X024049Y015333D01*
X024347Y015333D01*
X024412Y015398D01*
X024412Y015503D01*
X025460Y015503D01*
X025460Y013093D01*
X025981Y013093D01*
X025853Y012965D01*
X025780Y012789D01*
X025780Y012598D01*
X025853Y012421D01*
X025988Y012286D01*
X026164Y012213D01*
X026355Y012213D01*
X026531Y012286D01*
X026666Y012421D01*
X026740Y012598D01*
X026740Y012789D01*
X026666Y012965D01*
X026538Y013093D01*
X026940Y013093D01*
X026940Y008093D01*
X023985Y008093D01*
X023985Y005593D01*
X022660Y005593D01*
X022660Y007043D01*
X020460Y007043D01*
X020460Y008743D01*
X022660Y008743D01*
X022910Y008993D01*
X022910Y010437D01*
X022920Y010459D01*
X022914Y010474D01*
X022978Y010538D01*
X022978Y010743D01*
X023306Y010743D01*
X023317Y010732D01*
X023802Y010732D01*
X023813Y010743D01*
X023860Y010743D01*
X023860Y010790D01*
X023866Y010797D01*
X023866Y011321D01*
X023860Y011328D01*
X023860Y011459D01*
X023866Y011466D01*
X023866Y011990D01*
X023860Y011997D01*
X023860Y012090D01*
X023866Y012097D01*
X023866Y012621D01*
X023860Y012628D01*
X023860Y012759D01*
X023866Y012766D01*
X025780Y012766D01*
X025780Y012667D02*
X023860Y012667D01*
X023866Y012569D02*
X025792Y012569D01*
X025832Y012470D02*
X023866Y012470D01*
X023866Y012372D02*
X025902Y012372D01*
X026019Y012273D02*
X023866Y012273D01*
X023866Y012175D02*
X026940Y012175D01*
X026940Y012273D02*
X026500Y012273D01*
X026617Y012372D02*
X026940Y012372D01*
X026940Y012470D02*
X026687Y012470D01*
X026728Y012569D02*
X026940Y012569D01*
X026940Y012667D02*
X026740Y012667D01*
X026740Y012766D02*
X026940Y012766D01*
X026940Y012864D02*
X026708Y012864D01*
X026667Y012963D02*
X026940Y012963D01*
X026940Y013061D02*
X026570Y013061D01*
X026545Y013258D02*
X026940Y013258D01*
X026940Y013357D02*
X026658Y013357D01*
X026722Y013455D02*
X026940Y013455D01*
X026940Y013554D02*
X026761Y013554D01*
X026777Y013751D02*
X026940Y013751D01*
X026940Y013849D02*
X026756Y013849D01*
X026713Y013948D02*
X026940Y013948D01*
X026940Y014046D02*
X026642Y014046D01*
X026519Y014145D02*
X026940Y014145D01*
X026940Y014243D02*
X026522Y014243D01*
X026643Y014342D02*
X026940Y014342D01*
X026940Y014440D02*
X026714Y014440D01*
X026756Y014539D02*
X026940Y014539D01*
X026940Y014637D02*
X026777Y014637D01*
X026940Y014736D02*
X026310Y014736D01*
X026310Y014643D02*
X026310Y014175D01*
X026310Y013743D01*
X026210Y013743D01*
X026210Y014643D01*
X026310Y014643D01*
X026310Y014637D02*
X026210Y014637D01*
X026210Y014643D02*
X025741Y014643D01*
X025752Y014572D01*
X025778Y014494D01*
X025815Y014421D01*
X025863Y014355D01*
X025921Y014297D01*
X025987Y014249D01*
X026060Y014211D01*
X026116Y014193D01*
X026060Y014175D01*
X025987Y014138D01*
X025921Y014090D01*
X025863Y014032D01*
X025815Y013966D01*
X025778Y013893D01*
X025752Y013815D01*
X025741Y013743D01*
X026210Y013743D01*
X026210Y013643D01*
X025741Y013643D01*
X025752Y013572D01*
X025778Y013494D01*
X025815Y013421D01*
X025863Y013355D01*
X025921Y013297D01*
X025980Y013253D01*
X025620Y013253D01*
X025620Y015503D01*
X025819Y015503D01*
X025853Y015421D01*
X025988Y015286D01*
X026101Y015240D01*
X026107Y015234D01*
X026110Y015232D01*
X026112Y015230D01*
X026159Y015212D01*
X026173Y015206D01*
X026138Y015201D01*
X026060Y015175D01*
X025987Y015138D01*
X025921Y015090D01*
X025863Y015032D01*
X025815Y014966D01*
X025778Y014893D01*
X025752Y014815D01*
X025741Y014743D01*
X026210Y014743D01*
X026210Y014643D01*
X026210Y014736D02*
X025620Y014736D01*
X025620Y014834D02*
X025759Y014834D01*
X025798Y014933D02*
X025620Y014933D01*
X025620Y015031D02*
X025862Y015031D01*
X025976Y015130D02*
X025620Y015130D01*
X025620Y015228D02*
X026117Y015228D01*
X025947Y015327D02*
X025620Y015327D01*
X025620Y015425D02*
X025851Y015425D01*
X026399Y015228D02*
X026940Y015228D01*
X026940Y015130D02*
X026543Y015130D01*
X026657Y015031D02*
X026940Y015031D01*
X026940Y014933D02*
X026721Y014933D01*
X026760Y014834D02*
X026940Y014834D01*
X026940Y015327D02*
X026572Y015327D01*
X026668Y015425D02*
X026940Y015425D01*
X026940Y015524D02*
X026709Y015524D01*
X026740Y015622D02*
X026940Y015622D01*
X026940Y015721D02*
X026740Y015721D01*
X026727Y015819D02*
X026940Y015819D01*
X026940Y015918D02*
X026686Y015918D01*
X026615Y016016D02*
X026940Y016016D01*
X026940Y016115D02*
X026513Y016115D01*
X026511Y016213D02*
X026940Y016213D01*
X026940Y016312D02*
X026508Y016312D01*
X026534Y016410D02*
X026940Y016410D01*
X026940Y016509D02*
X026555Y016509D01*
X026555Y016607D02*
X026940Y016607D01*
X026940Y016706D02*
X026555Y016706D01*
X026555Y016804D02*
X026940Y016804D01*
X026940Y016903D02*
X026555Y016903D01*
X026509Y017001D02*
X026940Y017001D01*
X026940Y017100D02*
X025579Y017100D01*
X025620Y017001D02*
X025948Y017001D01*
X025902Y016903D02*
X025620Y016903D01*
X025620Y016804D02*
X025902Y016804D01*
X025902Y016706D02*
X025620Y016706D01*
X025620Y016607D02*
X025902Y016607D01*
X025902Y016509D02*
X025620Y016509D01*
X025620Y016410D02*
X025923Y016410D01*
X025967Y016367D02*
X025967Y016367D01*
X025968Y016312D02*
X025620Y016312D01*
X025620Y016213D02*
X025971Y016213D01*
X025973Y016115D02*
X025620Y016115D01*
X025620Y016016D02*
X025904Y016016D01*
X025833Y015918D02*
X025620Y015918D01*
X025460Y015918D02*
X024412Y015918D01*
X024384Y016016D02*
X025460Y016016D01*
X025460Y016115D02*
X023081Y016115D01*
X023180Y016213D02*
X025460Y016213D01*
X025460Y016312D02*
X023278Y016312D01*
X022995Y016509D02*
X022215Y016509D01*
X022230Y016523D02*
X022230Y019323D01*
X022242Y019335D01*
X022365Y019335D01*
X022363Y019329D01*
X022363Y019249D01*
X022708Y019249D01*
X022708Y019249D01*
X022363Y019249D01*
X022363Y019169D01*
X022373Y019131D01*
X022393Y019097D01*
X022403Y019087D01*
X022403Y018899D01*
X022393Y018889D01*
X022373Y018855D01*
X022363Y018817D01*
X022363Y018737D01*
X022363Y018657D01*
X022373Y018619D01*
X022393Y018585D01*
X022403Y018575D01*
X022403Y018376D01*
X022426Y018353D01*
X022403Y018331D01*
X022403Y018120D01*
X022426Y018097D01*
X022403Y018075D01*
X022403Y017864D01*
X022426Y017841D01*
X022403Y017819D01*
X022403Y017608D01*
X022426Y017586D01*
X022403Y017563D01*
X022403Y017352D01*
X022426Y017330D01*
X022403Y017307D01*
X022403Y017096D01*
X022426Y017074D01*
X022403Y017051D01*
X022403Y016840D01*
X022426Y016818D01*
X022403Y016795D01*
X022403Y016584D01*
X022468Y016520D01*
X022949Y016520D01*
X023013Y016584D01*
X023013Y016795D01*
X022991Y016818D01*
X023013Y016840D01*
X023013Y017051D01*
X022991Y017074D01*
X023013Y017096D01*
X023013Y017307D01*
X022991Y017330D01*
X023013Y017352D01*
X023013Y017563D01*
X022991Y017586D01*
X023013Y017608D01*
X023013Y017819D01*
X022991Y017841D01*
X023013Y017864D01*
X023013Y018075D01*
X022991Y018097D01*
X023013Y018120D01*
X023013Y018331D01*
X022991Y018353D01*
X023013Y018376D01*
X023013Y018575D01*
X023023Y018585D01*
X023043Y018619D01*
X023053Y018657D01*
X023053Y018737D01*
X022708Y018737D01*
X022363Y018737D01*
X022708Y018737D01*
X022708Y018737D01*
X022708Y018737D01*
X023053Y018737D01*
X023053Y018817D01*
X023052Y018823D01*
X023089Y018823D01*
X023170Y018743D01*
X023170Y016684D01*
X022849Y016363D01*
X022215Y016363D01*
X022155Y016423D01*
X022130Y016423D01*
X022230Y016523D01*
X022230Y016607D02*
X022403Y016607D01*
X022403Y016706D02*
X022230Y016706D01*
X022230Y016804D02*
X022412Y016804D01*
X022403Y016903D02*
X022230Y016903D01*
X022230Y017001D02*
X022403Y017001D01*
X022403Y017100D02*
X022230Y017100D01*
X022230Y017198D02*
X022403Y017198D01*
X022403Y017297D02*
X022230Y017297D01*
X022230Y017395D02*
X022403Y017395D01*
X022403Y017494D02*
X022230Y017494D01*
X022230Y017592D02*
X022419Y017592D01*
X022403Y017691D02*
X022230Y017691D01*
X022230Y017789D02*
X022403Y017789D01*
X022403Y017888D02*
X022230Y017888D01*
X022230Y017986D02*
X022403Y017986D01*
X022413Y018085D02*
X022230Y018085D01*
X022230Y018183D02*
X022403Y018183D01*
X022403Y018282D02*
X022230Y018282D01*
X022230Y018380D02*
X022403Y018380D01*
X022403Y018479D02*
X022230Y018479D01*
X022230Y018577D02*
X022401Y018577D01*
X022363Y018676D02*
X022230Y018676D01*
X022230Y018774D02*
X022363Y018774D01*
X022384Y018873D02*
X022230Y018873D01*
X022230Y018971D02*
X022403Y018971D01*
X022403Y019070D02*
X022230Y019070D01*
X022230Y019168D02*
X022363Y019168D01*
X022363Y019267D02*
X022230Y019267D01*
X022708Y019249D02*
X023053Y019249D01*
X022708Y019249D01*
X022708Y019249D01*
X023053Y019267D02*
X023990Y019267D01*
X023990Y019168D02*
X023053Y019168D01*
X023323Y019070D02*
X023990Y019070D01*
X023820Y018971D02*
X023422Y018971D01*
X023510Y018873D02*
X023800Y018873D01*
X023800Y018774D02*
X023510Y018774D01*
X023510Y018676D02*
X023800Y018676D01*
X023800Y018577D02*
X023510Y018577D01*
X023510Y018479D02*
X023800Y018479D01*
X023800Y018380D02*
X023510Y018380D01*
X023510Y018282D02*
X023803Y018282D01*
X023990Y018183D02*
X023510Y018183D01*
X023510Y018085D02*
X023955Y018085D01*
X023626Y017986D02*
X023510Y017986D01*
X023510Y017888D02*
X023572Y017888D01*
X023572Y017789D02*
X023510Y017789D01*
X023510Y017691D02*
X023572Y017691D01*
X023572Y017592D02*
X023510Y017592D01*
X023510Y017494D02*
X025823Y017494D01*
X025853Y017421D02*
X025780Y017598D01*
X025780Y017789D01*
X024147Y017789D01*
X024147Y017691D02*
X025780Y017691D01*
X025780Y017789D02*
X025853Y017965D01*
X025988Y018100D01*
X026164Y018173D01*
X026355Y018173D01*
X026531Y018100D01*
X026666Y017965D01*
X026740Y017789D01*
X026740Y017598D01*
X026666Y017421D01*
X026531Y017286D01*
X026355Y017213D01*
X026164Y017213D01*
X025988Y017286D01*
X025853Y017421D01*
X025879Y017395D02*
X024147Y017395D01*
X024147Y017421D02*
X024082Y017485D01*
X023637Y017485D01*
X023572Y017421D01*
X023572Y017054D01*
X023637Y016990D01*
X023670Y016990D01*
X023670Y016929D01*
X023630Y016889D01*
X023630Y016698D01*
X023764Y016563D01*
X023955Y016563D01*
X024090Y016698D01*
X024090Y016889D01*
X024050Y016929D01*
X024050Y016990D01*
X024082Y016990D01*
X024147Y017054D01*
X024147Y017421D01*
X024147Y017297D02*
X025977Y017297D01*
X025782Y017592D02*
X024147Y017592D01*
X024239Y017888D02*
X025821Y017888D01*
X025874Y017986D02*
X024330Y017986D01*
X024330Y018085D02*
X025972Y018085D01*
X025999Y018282D02*
X024516Y018282D01*
X024520Y018380D02*
X025247Y018380D01*
X025264Y018363D02*
X025455Y018363D01*
X025590Y018498D01*
X025590Y018583D01*
X025730Y018723D01*
X025730Y021923D01*
X026062Y022256D01*
X026164Y022213D01*
X026355Y022213D01*
X026531Y022286D01*
X026666Y022421D01*
X026740Y022598D01*
X026740Y022789D01*
X026666Y022965D01*
X026531Y023100D01*
X026355Y023173D01*
X026164Y023173D01*
X025988Y023100D01*
X025853Y022965D01*
X025780Y022789D01*
X025780Y022598D01*
X025822Y022496D01*
X025489Y022163D01*
X025390Y022064D01*
X025390Y018864D01*
X025349Y018823D01*
X025264Y018823D01*
X025130Y018689D01*
X025130Y018498D01*
X025264Y018363D01*
X025149Y018479D02*
X024520Y018479D01*
X024520Y018577D02*
X024650Y018577D01*
X024869Y018577D02*
X025130Y018577D01*
X025130Y018676D02*
X024967Y018676D01*
X024990Y018774D02*
X025215Y018774D01*
X025390Y018873D02*
X024990Y018873D01*
X024907Y018971D02*
X025390Y018971D01*
X025390Y019070D02*
X024330Y019070D01*
X024330Y019168D02*
X025390Y019168D01*
X025390Y019267D02*
X024330Y019267D01*
X024330Y019365D02*
X025390Y019365D01*
X025390Y019464D02*
X024329Y019464D01*
X024231Y019562D02*
X025390Y019562D01*
X025390Y019661D02*
X024167Y019661D01*
X024266Y019759D02*
X025390Y019759D01*
X025390Y019858D02*
X024330Y019858D01*
X024330Y019956D02*
X025390Y019956D01*
X025390Y020055D02*
X024946Y020055D01*
X024990Y020153D02*
X025390Y020153D01*
X025390Y020252D02*
X024990Y020252D01*
X024928Y020350D02*
X025390Y020350D01*
X025390Y020449D02*
X024520Y020449D01*
X024520Y020547D02*
X025390Y020547D01*
X025390Y020646D02*
X024520Y020646D01*
X024476Y020744D02*
X025390Y020744D01*
X025390Y020843D02*
X022850Y020843D01*
X022889Y020941D02*
X025390Y020941D01*
X025390Y021237D02*
X022892Y021237D01*
X022930Y021147D02*
X022930Y021040D01*
X022923Y020744D02*
X022996Y020744D01*
X022968Y020646D02*
X022951Y020646D01*
X022951Y020547D02*
X022968Y020547D01*
X022968Y020449D02*
X022951Y020449D01*
X022951Y020350D02*
X022968Y020350D01*
X022986Y020252D02*
X022933Y020252D01*
X022982Y020153D02*
X023800Y020153D01*
X023800Y020055D02*
X023013Y020055D01*
X023013Y019956D02*
X023982Y019956D01*
X023800Y020252D02*
X023444Y020252D01*
X023463Y020350D02*
X023800Y020350D01*
X023843Y020744D02*
X023435Y020744D01*
X022781Y021335D02*
X025390Y021335D01*
X025390Y021434D02*
X022200Y021434D01*
X022197Y021439D02*
X022169Y021467D01*
X022135Y021487D01*
X022096Y021497D01*
X021918Y021497D01*
X021918Y021228D01*
X022227Y021228D01*
X022227Y021367D01*
X022216Y021405D01*
X022197Y021439D01*
X022227Y021335D02*
X022538Y021335D01*
X022427Y021237D02*
X022227Y021237D01*
X022227Y021138D02*
X022390Y021138D01*
X022390Y021040D02*
X022431Y020940D01*
X022470Y020901D01*
X022470Y020867D01*
X022187Y020867D01*
X022187Y020881D01*
X022135Y020932D01*
X022169Y020951D01*
X022197Y020979D01*
X022216Y021014D01*
X022227Y021052D01*
X022151Y020941D02*
X022430Y020941D01*
X022456Y020527D02*
X022187Y020527D01*
X022187Y020514D01*
X022122Y020450D01*
X021677Y020450D01*
X021612Y020514D01*
X021612Y020527D01*
X021567Y020527D01*
X021533Y020526D01*
X021530Y020523D01*
X021463Y020523D01*
X021396Y020521D01*
X021393Y020523D01*
X021389Y020523D01*
X021342Y020571D01*
X021292Y020616D01*
X021292Y020620D01*
X020889Y021023D01*
X020130Y021023D01*
X019970Y020863D01*
X020364Y020863D01*
X020424Y020923D01*
X020615Y020923D01*
X020750Y020789D01*
X020750Y020598D01*
X020615Y020463D01*
X020424Y020463D01*
X020364Y020523D01*
X019910Y020523D01*
X019810Y020423D01*
X019810Y020369D01*
X019864Y020423D01*
X020055Y020423D01*
X020190Y020289D01*
X020190Y020225D01*
X020237Y020187D01*
X020651Y020187D01*
X020716Y020122D01*
X020716Y019911D01*
X020693Y019889D01*
X020716Y019866D01*
X020716Y019655D01*
X020693Y019633D01*
X020716Y019610D01*
X020716Y019399D01*
X020693Y019377D01*
X020716Y019355D01*
X020716Y019143D01*
X020693Y019121D01*
X020716Y019099D01*
X020716Y018888D01*
X020693Y018865D01*
X020716Y018843D01*
X020716Y018632D01*
X020693Y018609D01*
X020716Y018587D01*
X020716Y018376D01*
X020693Y018353D01*
X020716Y018331D01*
X020716Y018120D01*
X020693Y018097D01*
X020716Y018075D01*
X020716Y017864D01*
X020693Y017841D01*
X020716Y017819D01*
X020716Y017608D01*
X020693Y017586D01*
X020716Y017563D01*
X020716Y017352D01*
X020693Y017330D01*
X020716Y017307D01*
X020716Y017096D01*
X020693Y017074D01*
X020716Y017051D01*
X020716Y016852D01*
X020726Y016842D01*
X020746Y016808D01*
X020756Y016770D01*
X020756Y016690D01*
X020411Y016690D01*
X020411Y016690D01*
X020756Y016690D01*
X020756Y016610D01*
X020746Y016572D01*
X020741Y016563D01*
X021489Y016563D01*
X021690Y016764D01*
X021690Y019564D01*
X021789Y019663D01*
X022057Y019931D01*
X022403Y019931D01*
X022403Y020122D01*
X022468Y020187D01*
X022537Y020187D01*
X022536Y020206D01*
X022520Y020206D01*
X022456Y020271D01*
X022456Y020527D01*
X022456Y020449D02*
X019835Y020449D01*
X020128Y020350D02*
X022456Y020350D01*
X022475Y020252D02*
X020190Y020252D01*
X020685Y020153D02*
X022434Y020153D01*
X022403Y020055D02*
X020716Y020055D01*
X020716Y019956D02*
X022403Y019956D01*
X021984Y019858D02*
X020716Y019858D01*
X020716Y019759D02*
X021885Y019759D01*
X021787Y019661D02*
X020716Y019661D01*
X020716Y019562D02*
X021690Y019562D01*
X021690Y019464D02*
X020716Y019464D01*
X020705Y019365D02*
X021690Y019365D01*
X021690Y019267D02*
X020716Y019267D01*
X020716Y019168D02*
X021690Y019168D01*
X021690Y019070D02*
X020716Y019070D01*
X020716Y018971D02*
X021690Y018971D01*
X021690Y018873D02*
X020701Y018873D01*
X020716Y018774D02*
X021690Y018774D01*
X021690Y018676D02*
X020716Y018676D01*
X020716Y018577D02*
X021690Y018577D01*
X021690Y018479D02*
X020716Y018479D01*
X020716Y018380D02*
X021690Y018380D01*
X021690Y018282D02*
X020716Y018282D01*
X020716Y018183D02*
X021690Y018183D01*
X021690Y018085D02*
X020706Y018085D01*
X020716Y017986D02*
X021690Y017986D01*
X021690Y017888D02*
X020716Y017888D01*
X020716Y017789D02*
X021690Y017789D01*
X021690Y017691D02*
X020716Y017691D01*
X020700Y017592D02*
X021690Y017592D01*
X021690Y017494D02*
X020716Y017494D01*
X020716Y017395D02*
X021690Y017395D01*
X021690Y017297D02*
X020716Y017297D01*
X020716Y017198D02*
X021690Y017198D01*
X021690Y017100D02*
X020716Y017100D01*
X020716Y017001D02*
X021690Y017001D01*
X021690Y016903D02*
X020716Y016903D01*
X020746Y016804D02*
X021690Y016804D01*
X021632Y016706D02*
X020756Y016706D01*
X020755Y016607D02*
X021533Y016607D01*
X022168Y016410D02*
X022896Y016410D01*
X023013Y016607D02*
X023093Y016607D01*
X023170Y016706D02*
X023013Y016706D01*
X023004Y016804D02*
X023170Y016804D01*
X023170Y016903D02*
X023013Y016903D01*
X023013Y017001D02*
X023170Y017001D01*
X023170Y017100D02*
X023013Y017100D01*
X023013Y017198D02*
X023170Y017198D01*
X023170Y017297D02*
X023013Y017297D01*
X023013Y017395D02*
X023170Y017395D01*
X023170Y017494D02*
X023013Y017494D01*
X022998Y017592D02*
X023170Y017592D01*
X023170Y017691D02*
X023013Y017691D01*
X023013Y017789D02*
X023170Y017789D01*
X023170Y017888D02*
X023013Y017888D01*
X023013Y017986D02*
X023170Y017986D01*
X023170Y018085D02*
X023003Y018085D01*
X023013Y018183D02*
X023170Y018183D01*
X023170Y018282D02*
X023013Y018282D01*
X023013Y018380D02*
X023170Y018380D01*
X023170Y018479D02*
X023013Y018479D01*
X023016Y018577D02*
X023170Y018577D01*
X023170Y018676D02*
X023053Y018676D01*
X023053Y018774D02*
X023138Y018774D01*
X024330Y018183D02*
X026940Y018183D01*
X026940Y018085D02*
X026547Y018085D01*
X026645Y017986D02*
X026940Y017986D01*
X026940Y017888D02*
X026698Y017888D01*
X026739Y017789D02*
X026940Y017789D01*
X026940Y017691D02*
X026740Y017691D01*
X026737Y017592D02*
X026940Y017592D01*
X026940Y017494D02*
X026696Y017494D01*
X026640Y017395D02*
X026940Y017395D01*
X026940Y017297D02*
X026542Y017297D01*
X026940Y017198D02*
X024147Y017198D01*
X024147Y017100D02*
X024540Y017100D01*
X024440Y017001D02*
X024094Y017001D01*
X024075Y016903D02*
X024341Y016903D01*
X024242Y016804D02*
X024090Y016804D01*
X024090Y016706D02*
X024143Y016706D01*
X024043Y016607D02*
X023999Y016607D01*
X024171Y016509D02*
X025460Y016509D01*
X025460Y016607D02*
X024270Y016607D01*
X024370Y016706D02*
X025460Y016706D01*
X025460Y016804D02*
X024469Y016804D01*
X024568Y016903D02*
X025460Y016903D01*
X025460Y016410D02*
X024072Y016410D01*
X023720Y016607D02*
X023510Y016607D01*
X023510Y016706D02*
X023630Y016706D01*
X023630Y016804D02*
X023510Y016804D01*
X023510Y016903D02*
X023644Y016903D01*
X023625Y017001D02*
X023510Y017001D01*
X023510Y017100D02*
X023572Y017100D01*
X023572Y017198D02*
X023510Y017198D01*
X023510Y017297D02*
X023572Y017297D01*
X023572Y017395D02*
X023510Y017395D01*
X023566Y016016D02*
X022208Y016016D01*
X021911Y016016D02*
X018708Y016016D01*
X018411Y016016D02*
X016427Y016016D01*
X016482Y015918D02*
X023547Y015918D01*
X023547Y015819D02*
X016432Y015819D01*
X016333Y015721D02*
X023547Y015721D01*
X023547Y015622D02*
X016235Y015622D01*
X016136Y015524D02*
X023547Y015524D01*
X023547Y015425D02*
X016038Y015425D01*
X015939Y015327D02*
X023602Y015327D01*
X023810Y015327D02*
X023835Y015327D01*
X023835Y015425D02*
X023810Y015425D01*
X023810Y015524D02*
X023835Y015524D01*
X023835Y015622D02*
X023810Y015622D01*
X023810Y015721D02*
X023835Y015721D01*
X023835Y015819D02*
X023810Y015819D01*
X023810Y015918D02*
X023835Y015918D01*
X023835Y016016D02*
X023810Y016016D01*
X024043Y015327D02*
X025460Y015327D01*
X025460Y015425D02*
X024412Y015425D01*
X025460Y015228D02*
X015841Y015228D01*
X015742Y015130D02*
X025460Y015130D01*
X025460Y015031D02*
X015644Y015031D01*
X015431Y015031D02*
X012144Y015031D01*
X012242Y015130D02*
X015332Y015130D01*
X015234Y015228D02*
X012341Y015228D01*
X012439Y015327D02*
X015135Y015327D01*
X015037Y015425D02*
X012538Y015425D01*
X012636Y015524D02*
X014982Y015524D01*
X015033Y015622D02*
X012735Y015622D01*
X012833Y015721D02*
X015131Y015721D01*
X015195Y015819D02*
X012932Y015819D01*
X012982Y015918D02*
X015097Y015918D01*
X014998Y016016D02*
X012927Y016016D01*
X012829Y016115D02*
X014900Y016115D01*
X014801Y016213D02*
X012730Y016213D01*
X012632Y016312D02*
X014726Y016312D01*
X014695Y016410D02*
X012615Y016410D01*
X012615Y016509D02*
X014695Y016509D01*
X014695Y016607D02*
X012615Y016607D01*
X012615Y016706D02*
X014695Y016706D01*
X014695Y017001D02*
X014366Y017001D01*
X014366Y017100D02*
X014695Y017100D01*
X014695Y017198D02*
X014366Y017198D01*
X014366Y017297D02*
X014695Y017297D01*
X014695Y017395D02*
X014342Y017395D01*
X014302Y017451D02*
X014366Y017516D01*
X014366Y018040D01*
X014304Y018103D01*
X014304Y018353D01*
X014301Y018359D01*
X014301Y018522D01*
X014237Y018587D01*
X013830Y018587D01*
X013766Y018522D01*
X013766Y018359D01*
X013764Y018353D01*
X013764Y018051D01*
X013753Y018040D01*
X013753Y017963D01*
X013715Y017963D01*
X013655Y018023D01*
X013499Y018023D01*
X013553Y018077D01*
X013553Y018522D01*
X013489Y018587D01*
X013082Y018587D01*
X013018Y018522D01*
X013018Y018273D01*
X012890Y018144D01*
X012890Y017949D01*
X012830Y017889D01*
X012830Y017698D01*
X012964Y017563D01*
X013155Y017563D01*
X013290Y017698D01*
X013290Y017889D01*
X013230Y017949D01*
X013230Y018003D01*
X013239Y018012D01*
X013453Y018012D01*
X013330Y017889D01*
X013330Y017698D01*
X013464Y017563D01*
X013655Y017563D01*
X013715Y017623D01*
X013753Y017623D01*
X013753Y017516D01*
X013817Y017451D01*
X014302Y017451D01*
X014344Y017494D02*
X014695Y017494D01*
X014695Y017592D02*
X014366Y017592D01*
X014366Y017691D02*
X014695Y017691D01*
X014695Y017789D02*
X014366Y017789D01*
X014366Y017888D02*
X014695Y017888D01*
X014695Y017986D02*
X014366Y017986D01*
X014322Y018085D02*
X014695Y018085D01*
X014695Y018183D02*
X014304Y018183D01*
X014304Y018282D02*
X014695Y018282D01*
X014695Y018380D02*
X014301Y018380D01*
X014301Y018479D02*
X014695Y018479D01*
X014695Y018577D02*
X014246Y018577D01*
X013927Y018904D02*
X013927Y018962D01*
X013970Y019065D01*
X013970Y020646D01*
X014025Y020702D01*
X014093Y020865D01*
X014093Y021042D01*
X014025Y021206D01*
X013900Y021331D01*
X013737Y021399D01*
X013560Y021399D01*
X013397Y021331D01*
X013272Y021206D01*
X013204Y021042D01*
X013204Y020865D01*
X013272Y020702D01*
X013350Y020624D01*
X013350Y019065D01*
X013392Y018962D01*
X013392Y018904D01*
X013456Y018839D01*
X013543Y018839D01*
X013598Y018816D01*
X013721Y018816D01*
X013776Y018839D01*
X013863Y018839D01*
X013927Y018904D01*
X013896Y018873D02*
X014695Y018873D01*
X014695Y018971D02*
X013931Y018971D01*
X013970Y019070D02*
X014695Y019070D01*
X014695Y019168D02*
X013970Y019168D01*
X013970Y019267D02*
X014695Y019267D01*
X014695Y019365D02*
X013970Y019365D01*
X013970Y019464D02*
X014695Y019464D01*
X014695Y019562D02*
X013970Y019562D01*
X013970Y019661D02*
X014695Y019661D01*
X014695Y019759D02*
X013970Y019759D01*
X013970Y019858D02*
X014695Y019858D01*
X014695Y019956D02*
X013970Y019956D01*
X013970Y020055D02*
X014695Y020055D01*
X014695Y020153D02*
X013970Y020153D01*
X013970Y020252D02*
X014695Y020252D01*
X014695Y020350D02*
X013970Y020350D01*
X013970Y020449D02*
X014695Y020449D01*
X014695Y020547D02*
X013970Y020547D01*
X013970Y020646D02*
X014695Y020646D01*
X014632Y020744D02*
X014043Y020744D01*
X014084Y020843D02*
X014591Y020843D01*
X014582Y020941D02*
X014093Y020941D01*
X014093Y021040D02*
X014582Y021040D01*
X014622Y021138D02*
X014053Y021138D01*
X013994Y021237D02*
X014681Y021237D01*
X014785Y021335D02*
X013890Y021335D01*
X013407Y021335D02*
X012512Y021335D01*
X012616Y021237D02*
X013303Y021237D01*
X013244Y021138D02*
X012675Y021138D01*
X012715Y021040D02*
X013204Y021040D01*
X013204Y020941D02*
X012715Y020941D01*
X012706Y020843D02*
X013213Y020843D01*
X013254Y020744D02*
X012665Y020744D01*
X012615Y020646D02*
X013328Y020646D01*
X013350Y020547D02*
X012615Y020547D01*
X012615Y020449D02*
X013350Y020449D01*
X013350Y020350D02*
X012615Y020350D01*
X012615Y020252D02*
X013350Y020252D01*
X013350Y020153D02*
X012615Y020153D01*
X012615Y020055D02*
X013350Y020055D01*
X013350Y019956D02*
X012615Y019956D01*
X012615Y019858D02*
X013350Y019858D01*
X013350Y019759D02*
X012615Y019759D01*
X012615Y019661D02*
X013350Y019661D01*
X013350Y019562D02*
X012615Y019562D01*
X012615Y019464D02*
X013350Y019464D01*
X013350Y019365D02*
X012615Y019365D01*
X012615Y019267D02*
X013350Y019267D01*
X013350Y019168D02*
X012615Y019168D01*
X012615Y019070D02*
X013350Y019070D01*
X013388Y018971D02*
X012615Y018971D01*
X012615Y018873D02*
X013423Y018873D01*
X013498Y018577D02*
X013821Y018577D01*
X013766Y018479D02*
X013553Y018479D01*
X013553Y018380D02*
X013766Y018380D01*
X013764Y018282D02*
X013553Y018282D01*
X013553Y018183D02*
X013764Y018183D01*
X013764Y018085D02*
X013553Y018085D01*
X013427Y017986D02*
X013230Y017986D01*
X013290Y017888D02*
X013330Y017888D01*
X013330Y017789D02*
X013290Y017789D01*
X013282Y017691D02*
X013337Y017691D01*
X013435Y017592D02*
X013184Y017592D01*
X012935Y017592D02*
X012615Y017592D01*
X012615Y017494D02*
X013775Y017494D01*
X013753Y017592D02*
X013684Y017592D01*
X013692Y017986D02*
X013753Y017986D01*
X013018Y018282D02*
X012615Y018282D01*
X012615Y018380D02*
X013018Y018380D01*
X013018Y018479D02*
X012615Y018479D01*
X012615Y018577D02*
X013073Y018577D01*
X012929Y018183D02*
X012615Y018183D01*
X012615Y018085D02*
X012890Y018085D01*
X012890Y017986D02*
X012615Y017986D01*
X012615Y017888D02*
X012830Y017888D01*
X012830Y017789D02*
X012615Y017789D01*
X012615Y017691D02*
X012837Y017691D01*
X012706Y017198D02*
X012615Y017198D01*
X012615Y017100D02*
X012985Y017100D01*
X013043Y017100D02*
X013710Y017100D01*
X013710Y017198D02*
X013321Y017198D01*
X013321Y017065D02*
X013043Y017065D01*
X013043Y016707D01*
X013191Y016707D01*
X013229Y016717D01*
X013263Y016737D01*
X013291Y016765D01*
X013311Y016799D01*
X013321Y016837D01*
X013321Y017065D01*
X013321Y017001D02*
X013710Y017001D01*
X013710Y016903D02*
X013321Y016903D01*
X013312Y016804D02*
X013710Y016804D01*
X013043Y016804D02*
X012985Y016804D01*
X012985Y016903D02*
X013043Y016903D01*
X013043Y017001D02*
X012985Y017001D01*
X012706Y017001D02*
X012615Y017001D01*
X012615Y016903D02*
X012706Y016903D01*
X012715Y016804D02*
X012615Y016804D01*
X011995Y016706D02*
X009815Y016706D01*
X009815Y016804D02*
X009915Y016804D01*
X009906Y016903D02*
X009815Y016903D01*
X009815Y017001D02*
X009906Y017001D01*
X009815Y017100D02*
X010185Y017100D01*
X010214Y017093D02*
X010760Y017093D01*
X010910Y017100D02*
X010243Y017100D01*
X010243Y017065D02*
X010521Y017065D01*
X010521Y016837D01*
X010511Y016799D01*
X010491Y016765D01*
X010463Y016737D01*
X010429Y016717D01*
X010391Y016707D01*
X010243Y016707D01*
X010243Y017065D01*
X010243Y017001D02*
X010185Y017001D01*
X010185Y016903D02*
X010243Y016903D01*
X010243Y016804D02*
X010185Y016804D01*
X010512Y016804D02*
X010910Y016804D01*
X010910Y016903D02*
X010521Y016903D01*
X010521Y017001D02*
X010910Y017001D01*
X010910Y017198D02*
X010521Y017198D01*
X010955Y017516D02*
X011019Y017451D01*
X011504Y017451D01*
X011569Y017516D01*
X011569Y017709D01*
X011572Y017716D01*
X011572Y018333D01*
X011525Y018447D01*
X011501Y018471D01*
X011501Y018522D01*
X011437Y018587D01*
X011350Y018587D01*
X011295Y018610D01*
X011172Y018610D01*
X011117Y018587D01*
X011030Y018587D01*
X010966Y018522D01*
X010966Y018464D01*
X010924Y018361D01*
X010924Y018238D01*
X010952Y018170D01*
X010952Y017963D01*
X010915Y017963D01*
X010855Y018023D01*
X010699Y018023D01*
X010753Y018077D01*
X010753Y018522D01*
X010689Y018587D01*
X010282Y018587D01*
X010218Y018522D01*
X010218Y018273D01*
X010090Y018144D01*
X010090Y017949D01*
X010030Y017889D01*
X010030Y017698D01*
X010164Y017563D01*
X010355Y017563D01*
X010490Y017698D01*
X010490Y017889D01*
X010430Y017949D01*
X010430Y018003D01*
X010439Y018012D01*
X010653Y018012D01*
X010530Y017889D01*
X010530Y017698D01*
X010664Y017563D01*
X010855Y017563D01*
X010915Y017623D01*
X010955Y017623D01*
X010955Y017516D01*
X010977Y017494D02*
X009815Y017494D01*
X009815Y017592D02*
X010135Y017592D01*
X010037Y017691D02*
X009815Y017691D01*
X009815Y017789D02*
X010030Y017789D01*
X010030Y017888D02*
X009815Y017888D01*
X009815Y017986D02*
X010090Y017986D01*
X010090Y018085D02*
X009815Y018085D01*
X009815Y018183D02*
X010129Y018183D01*
X010218Y018282D02*
X009815Y018282D01*
X009815Y018380D02*
X010218Y018380D01*
X010218Y018479D02*
X009815Y018479D01*
X009815Y018577D02*
X010273Y018577D01*
X010698Y018577D02*
X011021Y018577D01*
X010966Y018479D02*
X010753Y018479D01*
X010753Y018380D02*
X010931Y018380D01*
X010924Y018282D02*
X010753Y018282D01*
X010753Y018183D02*
X010946Y018183D01*
X010952Y018085D02*
X010753Y018085D01*
X010627Y017986D02*
X010430Y017986D01*
X010490Y017888D02*
X010530Y017888D01*
X010530Y017789D02*
X010490Y017789D01*
X010482Y017691D02*
X010537Y017691D01*
X010635Y017592D02*
X010384Y017592D01*
X010884Y017592D02*
X010955Y017592D01*
X010952Y017986D02*
X010892Y017986D01*
X011572Y017986D02*
X011995Y017986D01*
X011995Y017888D02*
X011572Y017888D01*
X011572Y017789D02*
X011995Y017789D01*
X011995Y017691D02*
X011569Y017691D01*
X011569Y017592D02*
X011995Y017592D01*
X011995Y017494D02*
X011547Y017494D01*
X011544Y017395D02*
X011995Y017395D01*
X011995Y017297D02*
X011569Y017297D01*
X011569Y017198D02*
X011995Y017198D01*
X011995Y017100D02*
X011569Y017100D01*
X011569Y017001D02*
X011995Y017001D01*
X011995Y016607D02*
X009815Y016607D01*
X009815Y016509D02*
X011995Y016509D01*
X011995Y016410D02*
X009815Y016410D01*
X009784Y016312D02*
X011995Y016312D01*
X011995Y016213D02*
X009708Y016213D01*
X009609Y016115D02*
X011995Y016115D01*
X011927Y016016D02*
X009511Y016016D01*
X009482Y015918D02*
X011828Y015918D01*
X011730Y015819D02*
X009432Y015819D01*
X009333Y015721D02*
X011631Y015721D01*
X011533Y015622D02*
X009235Y015622D01*
X009136Y015524D02*
X011482Y015524D01*
X011537Y015425D02*
X009038Y015425D01*
X008939Y015327D02*
X011635Y015327D01*
X011734Y015228D02*
X008841Y015228D01*
X008742Y015130D02*
X011832Y015130D01*
X011931Y015031D02*
X008644Y015031D01*
X008431Y015031D02*
X008360Y015031D01*
X008360Y014933D02*
X025460Y014933D01*
X025460Y014834D02*
X008360Y014834D01*
X008360Y014736D02*
X025460Y014736D01*
X025460Y014637D02*
X008360Y014637D01*
X008360Y014539D02*
X025460Y014539D01*
X025460Y014440D02*
X008360Y014440D01*
X008360Y014342D02*
X025460Y014342D01*
X025460Y014243D02*
X008360Y014243D01*
X008360Y014145D02*
X011065Y014145D01*
X010966Y014046D02*
X008360Y014046D01*
X008360Y013948D02*
X010868Y013948D01*
X010769Y013849D02*
X008360Y013849D01*
X008360Y013751D02*
X010671Y013751D01*
X010572Y013652D02*
X008360Y013652D01*
X008360Y013554D02*
X010474Y013554D01*
X010375Y013455D02*
X008360Y013455D01*
X008360Y013357D02*
X010277Y013357D01*
X010237Y013258D02*
X008360Y013258D01*
X008360Y013160D02*
X010302Y013160D01*
X010350Y013061D02*
X008360Y013061D01*
X008360Y012963D02*
X010350Y012963D01*
X010350Y012864D02*
X008360Y012864D01*
X008360Y012766D02*
X010350Y012766D01*
X010350Y012667D02*
X009895Y012667D01*
X009941Y012569D02*
X010350Y012569D01*
X010350Y012470D02*
X009941Y012470D01*
X009941Y012372D02*
X010350Y012372D01*
X010350Y012273D02*
X009310Y012273D01*
X009310Y012372D02*
X009210Y012372D01*
X009210Y012294D02*
X009210Y012709D01*
X008708Y012709D01*
X008670Y012699D01*
X008636Y012679D01*
X008608Y012652D01*
X008588Y012617D01*
X008578Y012579D01*
X008578Y012294D01*
X009210Y012294D01*
X009210Y012273D02*
X008360Y012273D01*
X008360Y012175D02*
X008578Y012175D01*
X008578Y012076D02*
X008360Y012076D01*
X008360Y011978D02*
X008578Y011978D01*
X008578Y012372D02*
X008360Y012372D01*
X008360Y012470D02*
X008578Y012470D01*
X008578Y012569D02*
X008360Y012569D01*
X008360Y012667D02*
X008624Y012667D01*
X009210Y012667D02*
X009310Y012667D01*
X009310Y012569D02*
X009210Y012569D01*
X009210Y012470D02*
X009310Y012470D01*
X009941Y012175D02*
X010350Y012175D01*
X010350Y012076D02*
X009941Y012076D01*
X009941Y011978D02*
X009960Y011978D01*
X010120Y011879D02*
X010350Y011879D01*
X010350Y011781D02*
X010034Y011781D01*
X009310Y011584D02*
X009210Y011584D01*
X009210Y011485D02*
X009310Y011485D01*
X009310Y011387D02*
X009210Y011387D01*
X009210Y011091D02*
X009310Y011091D01*
X009310Y010993D02*
X009210Y010993D01*
X009210Y010894D02*
X009310Y010894D01*
X009310Y010796D02*
X009210Y010796D01*
X009210Y010697D02*
X009310Y010697D01*
X009866Y010697D02*
X010717Y010697D01*
X010619Y010796D02*
X009938Y010796D01*
X009941Y010894D02*
X010520Y010894D01*
X010422Y010993D02*
X009941Y010993D01*
X009941Y011091D02*
X010366Y011091D01*
X010540Y010599D02*
X008020Y010599D01*
X008020Y010697D02*
X008653Y010697D01*
X008581Y010796D02*
X008020Y010796D01*
X008020Y010894D02*
X008578Y010894D01*
X008578Y010993D02*
X008020Y010993D01*
X008020Y011091D02*
X008578Y011091D01*
X008020Y010500D02*
X010441Y010500D01*
X010292Y009712D02*
X011012Y009712D01*
X010990Y009614D02*
X010863Y009614D01*
X010615Y009393D02*
X011124Y009393D01*
X011160Y009429D01*
X011160Y009093D01*
X014660Y009093D01*
X014760Y009193D01*
X014760Y009493D01*
X015260Y009993D01*
X016460Y009993D01*
X016705Y010106D02*
X018100Y010106D01*
X018100Y010008D02*
X016730Y010008D01*
X016724Y009927D02*
X016724Y009927D01*
X016941Y009909D02*
X016978Y009909D01*
X016978Y009811D02*
X016941Y009811D01*
X016941Y009712D02*
X016978Y009712D01*
X016978Y009668D02*
X017287Y009668D01*
X017441Y009668D01*
X017441Y009630D01*
X016978Y009630D01*
X016978Y009668D01*
X016632Y009712D02*
X015205Y009712D01*
X015106Y009614D02*
X016632Y009614D01*
X016632Y009515D02*
X015008Y009515D01*
X014920Y009417D02*
X016665Y009417D01*
X016672Y009318D02*
X014920Y009318D01*
X014920Y009220D02*
X016672Y009220D01*
X016672Y009121D02*
X014914Y009121D01*
X014820Y009027D02*
X014820Y009027D01*
X014815Y009023D02*
X016672Y009023D01*
X016702Y008924D02*
X008020Y008924D01*
X008020Y008826D02*
X016800Y008826D01*
X016800Y008727D02*
X008020Y008727D01*
X008020Y008629D02*
X016672Y008629D01*
X016672Y008530D02*
X008020Y008530D01*
X008020Y008432D02*
X016672Y008432D01*
X016672Y008333D02*
X008020Y008333D01*
X008020Y008235D02*
X016703Y008235D01*
X016688Y008136D02*
X008020Y008136D01*
X008020Y008038D02*
X016672Y008038D01*
X016672Y007939D02*
X008020Y007939D01*
X008020Y007841D02*
X016672Y007841D01*
X016684Y007742D02*
X008020Y007742D01*
X008020Y007644D02*
X016800Y007644D01*
X016800Y007545D02*
X014689Y007545D01*
X014715Y007447D02*
X016800Y007447D01*
X016788Y007348D02*
X014715Y007348D01*
X014715Y007250D02*
X016690Y007250D01*
X016591Y007151D02*
X014715Y007151D01*
X014715Y007053D02*
X016493Y007053D01*
X016394Y006954D02*
X014685Y006954D01*
X014496Y007348D02*
X014496Y007348D01*
X014496Y007447D02*
X014496Y007447D01*
X014496Y007545D02*
X014496Y007545D01*
X014240Y007545D02*
X014240Y007545D01*
X014240Y007447D02*
X014240Y007447D01*
X014240Y007348D02*
X014240Y007348D01*
X013984Y007253D02*
X013984Y006884D01*
X014075Y006793D01*
X016460Y006793D01*
X016960Y007293D01*
X016960Y007937D01*
X017460Y007937D02*
X017460Y007493D01*
X016560Y006593D01*
X014015Y006593D01*
X013728Y006880D01*
X013728Y007253D01*
X013472Y007253D02*
X013472Y006876D01*
X013955Y006393D01*
X016660Y006393D01*
X017960Y007693D01*
X017960Y007937D01*
X018260Y007693D02*
X016360Y005793D01*
X015791Y005793D01*
X015791Y005596D02*
X015795Y005593D01*
X016460Y005593D01*
X018460Y007593D01*
X018460Y011193D01*
X018560Y011293D01*
X018560Y011593D01*
X018720Y011428D02*
X018790Y011498D01*
X018790Y011689D01*
X018655Y011823D01*
X018464Y011823D01*
X018330Y011689D01*
X018330Y011623D01*
X018160Y011793D01*
X017956Y011951D01*
X017641Y011951D01*
X017641Y012194D01*
X017010Y012194D01*
X017010Y012294D01*
X017641Y012294D01*
X017641Y012579D01*
X017631Y012617D01*
X017611Y012652D01*
X017583Y012679D01*
X017549Y012699D01*
X017511Y012709D01*
X017010Y012709D01*
X017010Y012294D01*
X016910Y012294D01*
X016910Y012194D01*
X016278Y012194D01*
X016278Y011951D01*
X015900Y011951D01*
X015900Y012073D01*
X015678Y012073D01*
X016488Y012883D01*
X017579Y012883D01*
X017747Y012716D01*
X017838Y012716D01*
X018737Y013615D01*
X018737Y013706D01*
X018227Y014216D01*
X018136Y014216D01*
X017423Y013503D01*
X016298Y013503D01*
X016184Y013456D01*
X016097Y013369D01*
X014897Y012169D01*
X014857Y012073D01*
X012270Y012073D01*
X012270Y012565D01*
X012588Y012883D01*
X014079Y012883D01*
X014247Y012716D01*
X014338Y012716D01*
X015237Y013615D01*
X015237Y013706D01*
X014727Y014216D01*
X014636Y014216D01*
X013923Y013503D01*
X012398Y013503D01*
X012284Y013456D01*
X012197Y013369D01*
X011697Y012869D01*
X011650Y012755D01*
X011650Y012073D01*
X010970Y012073D01*
X010970Y012076D02*
X011650Y012076D01*
X011650Y012175D02*
X010970Y012175D01*
X010970Y012273D02*
X011650Y012273D01*
X011650Y012372D02*
X010970Y012372D01*
X010970Y012470D02*
X011650Y012470D01*
X011650Y012569D02*
X010970Y012569D01*
X010970Y012667D02*
X011650Y012667D01*
X011654Y012766D02*
X010970Y012766D01*
X010986Y012864D02*
X011695Y012864D01*
X011791Y012963D02*
X011085Y012963D01*
X011183Y013061D02*
X011889Y013061D01*
X011988Y013160D02*
X011282Y013160D01*
X011380Y013258D02*
X012086Y013258D01*
X012185Y013357D02*
X011479Y013357D01*
X011577Y013455D02*
X012283Y013455D01*
X011737Y013652D02*
X014072Y013652D01*
X013974Y013554D02*
X011676Y013554D01*
X011693Y013751D02*
X014171Y013751D01*
X014269Y013849D02*
X011594Y013849D01*
X011496Y013948D02*
X014368Y013948D01*
X014466Y014046D02*
X011397Y014046D01*
X011299Y014145D02*
X014565Y014145D01*
X014799Y014145D02*
X018065Y014145D01*
X017966Y014046D02*
X014897Y014046D01*
X014996Y013948D02*
X017868Y013948D01*
X017769Y013849D02*
X015094Y013849D01*
X015193Y013751D02*
X017671Y013751D01*
X017572Y013652D02*
X015237Y013652D01*
X015176Y013554D02*
X017474Y013554D01*
X018085Y012963D02*
X019001Y012963D01*
X019001Y012969D02*
X018999Y012954D01*
X019000Y012953D01*
X019000Y012952D01*
X019001Y012950D01*
X019001Y012531D01*
X019066Y012467D01*
X019130Y012467D01*
X019130Y011689D01*
X018720Y011279D01*
X018720Y011428D01*
X018720Y011387D02*
X018828Y011387D01*
X018777Y011485D02*
X018926Y011485D01*
X019025Y011584D02*
X018790Y011584D01*
X018790Y011682D02*
X019123Y011682D01*
X019130Y011781D02*
X018697Y011781D01*
X018422Y011781D02*
X018172Y011781D01*
X018270Y011682D02*
X018330Y011682D01*
X018125Y011584D02*
X017571Y011584D01*
X017583Y011577D02*
X017549Y011597D01*
X017511Y011607D01*
X017010Y011607D01*
X017010Y011192D01*
X017641Y011192D01*
X017641Y011477D01*
X017631Y011515D01*
X017611Y011549D01*
X017583Y011577D01*
X017639Y011485D02*
X018030Y011485D01*
X018030Y011387D02*
X017641Y011387D01*
X017641Y011288D02*
X018039Y011288D01*
X018100Y011190D02*
X017010Y011190D01*
X017010Y011192D02*
X017010Y011092D01*
X017641Y011092D01*
X017641Y010807D01*
X017631Y010769D01*
X017611Y010735D01*
X017583Y010707D01*
X017549Y010687D01*
X017511Y010677D01*
X017010Y010677D01*
X017010Y011092D01*
X016910Y011092D01*
X016910Y010677D01*
X016408Y010677D01*
X016370Y010687D01*
X016336Y010707D01*
X016308Y010735D01*
X016288Y010769D01*
X016278Y010807D01*
X016278Y011092D01*
X016910Y011092D01*
X016910Y011192D01*
X016910Y011607D01*
X016408Y011607D01*
X016370Y011597D01*
X016336Y011577D01*
X016308Y011549D01*
X016288Y011515D01*
X016278Y011477D01*
X016278Y011192D01*
X016910Y011192D01*
X017010Y011192D01*
X017010Y011288D02*
X016910Y011288D01*
X016910Y011190D02*
X015788Y011190D01*
X015880Y011288D02*
X016278Y011288D01*
X016278Y011387D02*
X015890Y011387D01*
X015890Y011485D02*
X016280Y011485D01*
X016348Y011584D02*
X015794Y011584D01*
X015833Y011791D02*
X015833Y011791D01*
X015745Y011879D02*
X015484Y011879D01*
X015470Y011781D02*
X017914Y011781D01*
X018042Y011682D02*
X015470Y011682D01*
X015470Y011584D02*
X015525Y011584D01*
X015560Y011393D02*
X015660Y011393D01*
X015560Y011393D02*
X014660Y010493D01*
X014360Y010493D01*
X013728Y009862D01*
X013728Y009438D01*
X013472Y009438D02*
X013472Y009906D01*
X014360Y010793D01*
X014260Y010793D02*
X013960Y010493D01*
X013890Y010717D02*
X013890Y010889D01*
X013785Y010993D01*
X013933Y010993D01*
X013933Y011091D02*
X013883Y011091D01*
X013890Y011098D02*
X013890Y011289D01*
X013785Y011393D01*
X013890Y011498D01*
X013890Y011689D01*
X013755Y011823D01*
X013564Y011823D01*
X013430Y011689D01*
X013430Y011590D01*
X013000Y011160D01*
X013000Y010660D01*
X012668Y010328D01*
X012699Y010597D01*
X012822Y010597D01*
X012886Y010662D01*
X012886Y011186D01*
X012822Y011251D01*
X012341Y011251D01*
X012270Y011322D01*
X012270Y011913D01*
X014850Y011913D01*
X014850Y011622D01*
X014697Y011469D01*
X014478Y011251D01*
X013997Y011251D01*
X013933Y011186D01*
X013933Y010771D01*
X013890Y010717D01*
X013890Y010796D02*
X013933Y010796D01*
X013933Y010894D02*
X013884Y010894D01*
X013785Y010993D02*
X013890Y011098D01*
X013890Y011190D02*
X013937Y011190D01*
X013890Y011288D02*
X014516Y011288D01*
X014615Y011387D02*
X013791Y011387D01*
X013877Y011485D02*
X014713Y011485D01*
X014812Y011584D02*
X013890Y011584D01*
X013890Y011682D02*
X014850Y011682D01*
X014850Y011781D02*
X013797Y011781D01*
X013660Y011593D02*
X013160Y011093D01*
X013160Y010593D01*
X012704Y010138D01*
X012704Y009438D01*
X012449Y009438D02*
X012449Y009804D01*
X012560Y010793D01*
X012449Y010813D02*
X012449Y009804D01*
X012449Y010924D01*
X012560Y010924D01*
X012449Y010813D01*
X012289Y010599D02*
X011880Y010599D01*
X011801Y010697D02*
X012017Y010697D01*
X011919Y010796D02*
X011722Y010796D01*
X011644Y010894D02*
X011820Y010894D01*
X012270Y011387D02*
X013227Y011387D01*
X013325Y011485D02*
X012270Y011485D01*
X012270Y011584D02*
X013424Y011584D01*
X013430Y011682D02*
X012270Y011682D01*
X012270Y011781D02*
X013522Y011781D01*
X013660Y011193D02*
X013360Y010893D01*
X013360Y010493D01*
X012960Y010094D01*
X012960Y009438D01*
X013216Y009438D02*
X013216Y010050D01*
X013660Y010493D01*
X013660Y010793D01*
X014260Y010793D02*
X014260Y010893D01*
X014260Y010924D01*
X013472Y009937D01*
X013472Y009906D01*
X013984Y009818D02*
X013984Y009438D01*
X014240Y009438D02*
X014240Y009774D01*
X014560Y010093D01*
X014860Y010093D01*
X015360Y010593D01*
X015660Y010593D01*
X015890Y010599D02*
X018100Y010599D01*
X018100Y010697D02*
X017566Y010697D01*
X017638Y010796D02*
X018100Y010796D01*
X018100Y010894D02*
X017641Y010894D01*
X017641Y010993D02*
X018100Y010993D01*
X018100Y011091D02*
X017641Y011091D01*
X017010Y011091D02*
X016910Y011091D01*
X016910Y010993D02*
X017010Y010993D01*
X017010Y010894D02*
X016910Y010894D01*
X016910Y010796D02*
X017010Y010796D01*
X017010Y010697D02*
X016910Y010697D01*
X016353Y010697D02*
X015881Y010697D01*
X015787Y010796D02*
X016281Y010796D01*
X016278Y010894D02*
X015886Y010894D01*
X015890Y010993D02*
X016278Y010993D01*
X016278Y011091D02*
X015887Y011091D01*
X015660Y010993D02*
X015460Y010993D01*
X014760Y010293D01*
X014460Y010293D01*
X013984Y009818D01*
X014496Y009795D02*
X014496Y009438D01*
X014496Y009513D01*
X014496Y009515D02*
X014496Y009515D01*
X014496Y009438D02*
X014496Y009438D01*
X014496Y009614D02*
X014496Y009614D01*
X014496Y009712D02*
X014496Y009712D01*
X014699Y009712D02*
X014752Y009712D01*
X014602Y009909D02*
X014949Y009909D01*
X015000Y010008D02*
X015048Y010008D01*
X015099Y010106D02*
X015146Y010106D01*
X015197Y010205D02*
X016289Y010205D01*
X016148Y010332D02*
X016226Y010410D01*
X016148Y010332D02*
X015393Y010332D01*
X015394Y010402D02*
X015526Y010402D01*
X015296Y010303D02*
X018100Y010303D01*
X018100Y010205D02*
X016630Y010205D01*
X016260Y009811D02*
X015303Y009811D01*
X015793Y010402D02*
X018100Y010402D01*
X018100Y010500D02*
X015890Y010500D01*
X016910Y011387D02*
X017010Y011387D01*
X017010Y011485D02*
X016910Y011485D01*
X016910Y011584D02*
X017010Y011584D01*
X017010Y012273D02*
X019130Y012273D01*
X019130Y012175D02*
X017641Y012175D01*
X017641Y012076D02*
X019130Y012076D01*
X019130Y011978D02*
X017641Y011978D01*
X018049Y011879D02*
X019130Y011879D01*
X019590Y011879D02*
X021183Y011879D01*
X021183Y011793D02*
X021248Y011729D01*
X021372Y011729D01*
X021378Y011688D01*
X021378Y011686D01*
X021341Y011649D01*
X021341Y011286D01*
X021346Y011280D01*
X021341Y011275D01*
X021341Y010949D01*
X021134Y010949D01*
X021091Y010968D01*
X021043Y010949D01*
X020990Y010949D01*
X020957Y010916D01*
X020718Y010824D01*
X020718Y011048D01*
X020653Y011112D01*
X019203Y011112D01*
X019455Y011363D01*
X019590Y011498D01*
X019590Y012467D01*
X020653Y012467D01*
X020718Y012531D01*
X020718Y012763D01*
X020979Y012763D01*
X021076Y012723D01*
X021183Y012723D01*
X021270Y012759D01*
X021270Y012658D01*
X021248Y012658D01*
X021183Y012593D01*
X021183Y011793D01*
X021196Y011781D02*
X019590Y011781D01*
X019590Y011682D02*
X021374Y011682D01*
X021341Y011584D02*
X019590Y011584D01*
X019577Y011485D02*
X021341Y011485D01*
X021341Y011387D02*
X019478Y011387D01*
X019455Y011363D02*
X019455Y011363D01*
X019380Y011288D02*
X021341Y011288D01*
X021341Y011190D02*
X019281Y011190D01*
X018729Y011288D02*
X018720Y011288D01*
X018260Y011393D02*
X018260Y007693D01*
X018660Y007493D02*
X016554Y005387D01*
X016554Y005293D01*
X016554Y005400D01*
X015791Y005400D01*
X015466Y005400D01*
X015260Y005193D01*
X012260Y005193D01*
X011169Y006284D01*
X011169Y007253D01*
X010990Y007250D02*
X008020Y007250D01*
X008020Y007348D02*
X010990Y007348D01*
X010990Y007447D02*
X008020Y007447D01*
X008020Y007545D02*
X011030Y007545D01*
X010990Y007151D02*
X008020Y007151D01*
X008020Y007053D02*
X010990Y007053D01*
X011009Y006954D02*
X008020Y006954D01*
X008020Y006856D02*
X011009Y006856D01*
X011009Y006757D02*
X008020Y006757D01*
X008020Y006659D02*
X011009Y006659D01*
X011009Y006560D02*
X008020Y006560D01*
X008020Y006462D02*
X011009Y006462D01*
X011009Y006363D02*
X009775Y006363D01*
X009879Y006321D02*
X009607Y006433D01*
X009312Y006433D01*
X009040Y006321D01*
X008832Y006112D01*
X008720Y005840D01*
X008720Y005546D01*
X008832Y005274D01*
X009040Y005066D01*
X009312Y004953D01*
X009607Y004953D01*
X009879Y005066D01*
X010087Y005274D01*
X010199Y005546D01*
X010199Y005840D01*
X010087Y006112D01*
X009879Y006321D01*
X009934Y006265D02*
X011009Y006265D01*
X011060Y006166D02*
X010033Y006166D01*
X010105Y006068D02*
X011159Y006068D01*
X011257Y005969D02*
X010146Y005969D01*
X010187Y005871D02*
X011356Y005871D01*
X011454Y005772D02*
X010199Y005772D01*
X010199Y005674D02*
X011553Y005674D01*
X011651Y005575D02*
X010199Y005575D01*
X010171Y005477D02*
X011750Y005477D01*
X011848Y005378D02*
X010130Y005378D01*
X010089Y005280D02*
X011947Y005280D01*
X012045Y005181D02*
X009994Y005181D01*
X009895Y005083D02*
X012144Y005083D01*
X012360Y005493D02*
X011425Y006428D01*
X011425Y007253D01*
X011681Y007253D02*
X011681Y006572D01*
X012760Y005493D01*
X013160Y005493D02*
X011937Y006716D01*
X011937Y007253D01*
X012449Y007253D02*
X012449Y006604D01*
X013456Y005596D01*
X014128Y005596D01*
X014128Y005400D02*
X013781Y005400D01*
X013781Y005436D01*
X013390Y005436D01*
X013390Y005437D01*
X013390Y005398D01*
X013345Y005353D01*
X013781Y005353D01*
X013781Y005400D01*
X014128Y005400D01*
X014474Y005400D01*
X014474Y005469D01*
X014464Y005507D01*
X014444Y005541D01*
X014434Y005551D01*
X014434Y005691D01*
X014431Y005695D01*
X014434Y005699D01*
X014434Y005888D01*
X014431Y005892D01*
X014434Y005895D01*
X014434Y006085D01*
X014431Y006089D01*
X014434Y006092D01*
X014434Y006233D01*
X015485Y006233D01*
X015485Y006092D01*
X015488Y006089D01*
X015485Y006085D01*
X015485Y005895D01*
X015488Y005892D01*
X015485Y005888D01*
X015485Y005699D01*
X015488Y005695D01*
X015485Y005691D01*
X015485Y005560D01*
X015400Y005560D01*
X015306Y005466D01*
X015193Y005353D01*
X014474Y005353D01*
X014474Y005400D01*
X014128Y005400D01*
X014128Y005400D01*
X014128Y005400D01*
X013781Y005378D02*
X013370Y005378D01*
X013560Y005793D02*
X012704Y006648D01*
X012704Y007253D01*
X012960Y007253D02*
X012960Y006692D01*
X013660Y005993D01*
X013663Y005990D01*
X014128Y005990D01*
X014128Y005793D02*
X013560Y005793D01*
X013766Y006187D02*
X013760Y006193D01*
X013216Y006737D01*
X013216Y007253D01*
X013766Y006187D02*
X014128Y006187D01*
X014434Y006166D02*
X015485Y006166D01*
X015485Y006068D02*
X014434Y006068D01*
X014434Y005969D02*
X015485Y005969D01*
X015485Y005871D02*
X014434Y005871D01*
X014434Y005772D02*
X015485Y005772D01*
X015485Y005674D02*
X014434Y005674D01*
X014434Y005575D02*
X015485Y005575D01*
X015317Y005477D02*
X014472Y005477D01*
X014474Y005378D02*
X015218Y005378D01*
X015474Y005181D02*
X016306Y005181D01*
X016306Y005083D02*
X015375Y005083D01*
X015791Y005990D02*
X016156Y005990D01*
X016260Y006093D01*
X017066Y005674D02*
X018600Y005674D01*
X018600Y005772D02*
X017165Y005772D01*
X017263Y005871D02*
X017557Y005871D01*
X017458Y005969D02*
X017362Y005969D01*
X017660Y006093D02*
X018560Y006093D01*
X018760Y005893D01*
X018760Y005193D01*
X019097Y005181D02*
X019097Y004793D01*
X018965Y004793D01*
X018927Y004804D01*
X018892Y004823D01*
X018882Y004833D01*
X018589Y004833D01*
X018585Y004838D01*
X018580Y004833D01*
X018570Y004833D01*
X018570Y004777D01*
X018320Y004527D01*
X018320Y004527D01*
X018306Y004513D01*
X026510Y004513D01*
X026940Y004943D01*
X026940Y007933D01*
X024145Y007933D01*
X024145Y005527D01*
X024051Y005433D01*
X022593Y005433D01*
X022500Y005527D01*
X022500Y006883D01*
X020393Y006883D01*
X020300Y006977D01*
X020300Y008810D01*
X020393Y008903D01*
X022593Y008903D01*
X022750Y009060D01*
X022750Y009786D01*
X022232Y009786D01*
X022168Y009851D01*
X022168Y010336D01*
X022232Y010400D01*
X022384Y010400D01*
X022422Y010480D01*
X022364Y010538D01*
X022364Y010855D01*
X022354Y010865D01*
X022335Y010900D01*
X022324Y010938D01*
X022324Y011075D01*
X022653Y011075D01*
X022653Y011111D01*
X022324Y011111D01*
X022324Y011249D01*
X022335Y011287D01*
X022354Y011321D01*
X022364Y011331D01*
X022364Y011649D01*
X022405Y011689D01*
X022376Y011689D01*
X022338Y011699D01*
X022304Y011719D01*
X022276Y011747D01*
X022256Y011781D01*
X022246Y011819D01*
X022246Y012143D01*
X022661Y012143D01*
X022661Y012243D01*
X022246Y012243D01*
X022246Y012567D01*
X022256Y012606D01*
X022276Y012640D01*
X022278Y012642D01*
X022273Y012662D01*
X022273Y012810D01*
X022631Y012810D01*
X022688Y012810D01*
X022688Y012531D01*
X022761Y012531D01*
X022761Y012243D01*
X023176Y012243D01*
X023176Y012567D01*
X023165Y012606D01*
X023146Y012640D01*
X023118Y012668D01*
X023084Y012687D01*
X023046Y012698D01*
X023046Y012810D01*
X022688Y012810D01*
X022688Y012868D01*
X022631Y012868D01*
X022631Y013146D01*
X022439Y013146D01*
X022520Y013227D01*
X022520Y013280D01*
X022941Y013280D01*
X022984Y013323D01*
X023204Y013323D01*
X023253Y013275D01*
X023253Y012766D01*
X023046Y012766D01*
X023046Y012868D02*
X023046Y013016D01*
X023036Y013054D01*
X023016Y013089D01*
X022988Y013116D01*
X022954Y013136D01*
X022915Y013146D01*
X022688Y013146D01*
X022688Y012868D01*
X023046Y012868D01*
X023046Y012963D02*
X023253Y012963D01*
X023253Y013061D02*
X023031Y013061D01*
X023253Y013160D02*
X022452Y013160D01*
X022360Y013133D02*
X022331Y013116D01*
X022303Y013089D01*
X022284Y013054D01*
X022273Y013016D01*
X022273Y012868D01*
X022631Y012868D01*
X022631Y012810D01*
X022631Y012698D01*
X022661Y012698D01*
X022661Y012243D01*
X022761Y012243D01*
X022761Y012143D01*
X023176Y012143D01*
X023176Y011819D01*
X023165Y011781D01*
X023253Y011781D01*
X023253Y011746D02*
X023204Y011697D01*
X023077Y011697D01*
X023084Y011699D01*
X023118Y011719D01*
X023146Y011747D01*
X023165Y011781D01*
X023253Y011746D02*
X023253Y011990D01*
X023306Y012043D01*
X023253Y012097D01*
X023253Y012621D01*
X023317Y012685D01*
X023700Y012685D01*
X023700Y012701D01*
X023317Y012701D01*
X023253Y012766D01*
X023253Y012864D02*
X022688Y012864D01*
X022631Y012864D02*
X021890Y012864D01*
X021890Y012766D02*
X022273Y012766D01*
X022273Y012667D02*
X021890Y012667D01*
X021890Y012658D02*
X021890Y013133D01*
X022360Y013133D01*
X022288Y013061D02*
X021890Y013061D01*
X021890Y012963D02*
X022273Y012963D01*
X022360Y013293D02*
X021560Y013293D01*
X021560Y012993D01*
X021400Y012993D01*
X021400Y013047D01*
X021358Y013146D01*
X021282Y013222D01*
X021183Y013263D01*
X021076Y013263D01*
X020979Y013223D01*
X020718Y013223D01*
X020718Y013292D01*
X020653Y013356D01*
X019066Y013356D01*
X019001Y013292D01*
X019001Y012969D01*
X019001Y013061D02*
X018183Y013061D01*
X018282Y013160D02*
X019001Y013160D01*
X019001Y013258D02*
X018380Y013258D01*
X018479Y013357D02*
X022313Y013357D01*
X022313Y013345D02*
X022360Y013298D01*
X022360Y013293D01*
X022313Y013345D02*
X022313Y013751D01*
X022378Y013815D01*
X022445Y013815D01*
X022452Y013822D01*
X022551Y013863D01*
X023313Y013863D01*
X023412Y013822D01*
X023488Y013746D01*
X023528Y013650D01*
X023790Y013389D01*
X023790Y013354D01*
X023802Y013354D01*
X023866Y013290D01*
X023866Y012766D01*
X023866Y012864D02*
X025811Y012864D01*
X025852Y012963D02*
X023866Y012963D01*
X023866Y013061D02*
X025949Y013061D01*
X025974Y013258D02*
X025620Y013258D01*
X025620Y013357D02*
X025861Y013357D01*
X025797Y013455D02*
X025620Y013455D01*
X025620Y013554D02*
X025758Y013554D01*
X025620Y013652D02*
X026210Y013652D01*
X026210Y013751D02*
X026310Y013751D01*
X026310Y013849D02*
X026210Y013849D01*
X026210Y013948D02*
X026310Y013948D01*
X026310Y014046D02*
X026210Y014046D01*
X026210Y014145D02*
X026310Y014145D01*
X026310Y014243D02*
X026210Y014243D01*
X026210Y014342D02*
X026310Y014342D01*
X026310Y014440D02*
X026210Y014440D01*
X026210Y014539D02*
X026310Y014539D01*
X025997Y014243D02*
X025620Y014243D01*
X025620Y014145D02*
X026000Y014145D01*
X025877Y014046D02*
X025620Y014046D01*
X025620Y013948D02*
X025806Y013948D01*
X025763Y013849D02*
X025620Y013849D01*
X025620Y013751D02*
X025742Y013751D01*
X025460Y013751D02*
X023484Y013751D01*
X023527Y013652D02*
X025460Y013652D01*
X025460Y013554D02*
X023624Y013554D01*
X023723Y013455D02*
X025460Y013455D01*
X025460Y013357D02*
X023790Y013357D01*
X023866Y013258D02*
X025460Y013258D01*
X025460Y013160D02*
X023866Y013160D01*
X023253Y013258D02*
X022520Y013258D01*
X022631Y013061D02*
X022688Y013061D01*
X022688Y012963D02*
X022631Y012963D01*
X022631Y012766D02*
X022688Y012766D01*
X022688Y012667D02*
X022661Y012667D01*
X022661Y012569D02*
X022688Y012569D01*
X022661Y012470D02*
X022761Y012470D01*
X022761Y012372D02*
X022661Y012372D01*
X022661Y012273D02*
X022761Y012273D01*
X022761Y012175D02*
X023253Y012175D01*
X023253Y012273D02*
X023176Y012273D01*
X023176Y012372D02*
X023253Y012372D01*
X023253Y012470D02*
X023176Y012470D01*
X023175Y012569D02*
X023253Y012569D01*
X023299Y012667D02*
X023118Y012667D01*
X023176Y012076D02*
X023273Y012076D01*
X023253Y011978D02*
X023176Y011978D01*
X023176Y011879D02*
X023253Y011879D01*
X023866Y011879D02*
X025817Y011879D01*
X025853Y011965D02*
X025780Y011789D01*
X025780Y011598D01*
X025853Y011421D01*
X025988Y011286D01*
X026164Y011213D01*
X026355Y011213D01*
X026531Y011286D01*
X026666Y011421D01*
X026740Y011598D01*
X026740Y011789D01*
X026666Y011965D01*
X026531Y012100D01*
X026355Y012173D01*
X026164Y012173D01*
X025988Y012100D01*
X025853Y011965D01*
X025865Y011978D02*
X023866Y011978D01*
X023860Y012076D02*
X025964Y012076D01*
X025780Y011781D02*
X023866Y011781D01*
X023866Y011682D02*
X025780Y011682D01*
X025785Y011584D02*
X023866Y011584D01*
X023866Y011485D02*
X025826Y011485D01*
X025887Y011387D02*
X023860Y011387D01*
X023866Y011288D02*
X025986Y011288D01*
X025988Y011100D02*
X025853Y010965D01*
X025780Y010789D01*
X025780Y010598D01*
X025853Y010421D01*
X025988Y010286D01*
X026164Y010213D01*
X026355Y010213D01*
X026531Y010286D01*
X026666Y010421D01*
X026740Y010598D01*
X026740Y010789D01*
X026666Y010965D01*
X026531Y011100D01*
X026355Y011173D01*
X026164Y011173D01*
X025988Y011100D01*
X025979Y011091D02*
X023866Y011091D01*
X023866Y010993D02*
X025880Y010993D01*
X025823Y010894D02*
X023866Y010894D01*
X023866Y010796D02*
X025782Y010796D01*
X025780Y010697D02*
X022978Y010697D01*
X022978Y010599D02*
X025780Y010599D01*
X025820Y010500D02*
X022941Y010500D01*
X022910Y010402D02*
X025872Y010402D01*
X025971Y010303D02*
X022910Y010303D01*
X022910Y010205D02*
X026940Y010205D01*
X026940Y010303D02*
X026548Y010303D01*
X026647Y010402D02*
X026940Y010402D01*
X026940Y010500D02*
X026699Y010500D01*
X026740Y010599D02*
X026940Y010599D01*
X026940Y010697D02*
X026740Y010697D01*
X026737Y010796D02*
X026940Y010796D01*
X026940Y010894D02*
X026696Y010894D01*
X026639Y010993D02*
X026940Y010993D01*
X026940Y011091D02*
X026540Y011091D01*
X026533Y011288D02*
X026940Y011288D01*
X026940Y011190D02*
X023866Y011190D01*
X023511Y011107D02*
X023511Y011010D01*
X023213Y011010D01*
X023213Y010903D01*
X023009Y010903D01*
X023018Y010938D01*
X023018Y011075D01*
X022689Y011075D01*
X022689Y011111D01*
X023018Y011111D01*
X023018Y011237D01*
X023213Y011237D01*
X023213Y011107D01*
X023511Y011107D01*
X023511Y011091D02*
X022689Y011091D01*
X022653Y011091D02*
X021955Y011091D01*
X021955Y010993D02*
X022324Y010993D01*
X022338Y010894D02*
X021955Y010894D01*
X021955Y010901D02*
X021949Y010906D01*
X021955Y010912D01*
X021955Y011275D01*
X021949Y011280D01*
X021955Y011286D01*
X021955Y011649D01*
X021890Y011713D01*
X021840Y011713D01*
X021838Y011725D01*
X021838Y011729D01*
X021969Y011729D01*
X022033Y011793D01*
X022033Y012593D01*
X021969Y012658D01*
X021890Y012658D01*
X022033Y012569D02*
X022246Y012569D01*
X022246Y012470D02*
X022033Y012470D01*
X022033Y012372D02*
X022246Y012372D01*
X022246Y012273D02*
X022033Y012273D01*
X022033Y012175D02*
X022661Y012175D01*
X022246Y012076D02*
X022033Y012076D01*
X022033Y011978D02*
X022246Y011978D01*
X022246Y011879D02*
X022033Y011879D01*
X022021Y011781D02*
X022256Y011781D01*
X022398Y011682D02*
X021921Y011682D01*
X021955Y011584D02*
X022364Y011584D01*
X022364Y011485D02*
X021955Y011485D01*
X021955Y011387D02*
X022364Y011387D01*
X022335Y011288D02*
X021955Y011288D01*
X021955Y011190D02*
X022324Y011190D01*
X021955Y010901D02*
X021955Y010538D01*
X021897Y010480D01*
X021935Y010400D01*
X022087Y010400D01*
X022151Y010336D01*
X022151Y009851D01*
X022087Y009786D01*
X022055Y009786D01*
X022055Y009720D01*
X022091Y009720D01*
X022155Y009655D01*
X022155Y009131D01*
X022091Y009067D01*
X021567Y009067D01*
X021502Y009131D01*
X021502Y009655D01*
X021567Y009720D01*
X021595Y009720D01*
X021595Y009786D01*
X021563Y009786D01*
X021498Y009851D01*
X021498Y010247D01*
X021457Y010336D01*
X021418Y010375D01*
X021418Y010419D01*
X021399Y010459D01*
X021405Y010474D01*
X021389Y010489D01*
X021128Y010489D01*
X020888Y010396D01*
X020855Y010363D01*
X020802Y010363D01*
X020754Y010344D01*
X020718Y010360D01*
X020718Y010287D01*
X020653Y010223D01*
X020096Y010223D01*
X020122Y010196D01*
X020122Y009790D01*
X020090Y009758D01*
X020090Y009754D01*
X020102Y009754D01*
X020166Y009690D01*
X020166Y009166D01*
X020115Y009115D01*
X020148Y009095D01*
X020176Y009067D01*
X020196Y009033D01*
X020206Y008995D01*
X020206Y008807D01*
X019908Y008807D01*
X019908Y008710D01*
X019908Y008392D01*
X020076Y008392D01*
X020114Y008402D01*
X020148Y008422D01*
X020176Y008450D01*
X020196Y008484D01*
X020206Y008522D01*
X020206Y008710D01*
X019908Y008710D01*
X019811Y008710D01*
X019811Y008392D01*
X019643Y008392D01*
X019605Y008402D01*
X019571Y008422D01*
X019543Y008450D01*
X019523Y008484D01*
X019513Y008522D01*
X019513Y008710D01*
X019811Y008710D01*
X019811Y008807D01*
X019513Y008807D01*
X019513Y008995D01*
X019523Y009033D01*
X019543Y009067D01*
X019571Y009095D01*
X019604Y009115D01*
X019553Y009166D01*
X019553Y009690D01*
X019617Y009754D01*
X019623Y009754D01*
X019587Y009790D01*
X019587Y010196D01*
X019614Y010223D01*
X019505Y010223D01*
X019532Y010196D01*
X019532Y009790D01*
X019467Y009726D01*
X019061Y009726D01*
X019024Y009763D01*
X018910Y009763D01*
X018820Y009726D01*
X018820Y007427D01*
X017716Y006323D01*
X017755Y006323D01*
X017825Y006253D01*
X018626Y006253D01*
X018720Y006160D01*
X018826Y006053D01*
X018920Y005960D01*
X018920Y005579D01*
X018927Y005583D01*
X018965Y005593D01*
X019097Y005593D01*
X019097Y005206D01*
X019122Y005206D01*
X019122Y005593D01*
X019254Y005593D01*
X019292Y005583D01*
X019327Y005563D01*
X019355Y005535D01*
X019374Y005501D01*
X019385Y005463D01*
X019385Y005206D01*
X019122Y005206D01*
X019122Y005181D01*
X019385Y005181D01*
X019385Y004924D01*
X019374Y004885D01*
X019355Y004851D01*
X019327Y004823D01*
X019292Y004804D01*
X019254Y004793D01*
X019122Y004793D01*
X019122Y005181D01*
X019097Y005181D01*
X019122Y005181D02*
X026940Y005181D01*
X026940Y005083D02*
X019385Y005083D01*
X019385Y004984D02*
X026940Y004984D01*
X026882Y004886D02*
X019374Y004886D01*
X019122Y004886D02*
X019097Y004886D01*
X019097Y004984D02*
X019122Y004984D01*
X019122Y005083D02*
X019097Y005083D01*
X019097Y005280D02*
X019122Y005280D01*
X019122Y005378D02*
X019097Y005378D01*
X019097Y005477D02*
X019122Y005477D01*
X019122Y005575D02*
X019097Y005575D01*
X018920Y005674D02*
X020534Y005674D01*
X020534Y005772D02*
X018920Y005772D01*
X018920Y005871D02*
X020534Y005871D01*
X020534Y005969D02*
X018910Y005969D01*
X018811Y006068D02*
X020910Y006068D01*
X020910Y006098D02*
X020910Y005998D01*
X021010Y005998D01*
X021010Y006098D01*
X021385Y006098D01*
X021385Y006659D01*
X022500Y006659D01*
X022500Y006757D02*
X021329Y006757D01*
X021327Y006759D02*
X021293Y006779D01*
X021255Y006789D01*
X021010Y006789D01*
X021010Y006098D01*
X020910Y006098D01*
X020910Y006789D01*
X020664Y006789D01*
X020626Y006779D01*
X020592Y006759D01*
X020564Y006731D01*
X020544Y006697D01*
X020534Y006659D01*
X018051Y006659D01*
X017953Y006560D02*
X020534Y006560D01*
X020534Y006462D02*
X017854Y006462D01*
X017756Y006363D02*
X020534Y006363D01*
X020534Y006265D02*
X017813Y006265D01*
X017762Y005871D02*
X018556Y005871D01*
X018600Y005575D02*
X017311Y005575D01*
X017323Y005563D02*
X017295Y005591D01*
X017261Y005610D01*
X017223Y005620D01*
X017084Y005620D01*
X017084Y005312D01*
X017353Y005312D01*
X017353Y005490D01*
X017343Y005528D01*
X017323Y005563D01*
X017353Y005477D02*
X018175Y005477D01*
X018175Y005378D02*
X017353Y005378D01*
X017353Y005181D02*
X018175Y005181D01*
X018175Y005083D02*
X017350Y005083D01*
X017275Y004984D02*
X018175Y004984D01*
X018186Y004886D02*
X008893Y004886D01*
X008795Y004984D02*
X009238Y004984D01*
X009024Y005083D02*
X008696Y005083D01*
X008598Y005181D02*
X008925Y005181D01*
X008830Y005280D02*
X008499Y005280D01*
X008401Y005378D02*
X008789Y005378D01*
X008748Y005477D02*
X008302Y005477D01*
X008204Y005575D02*
X008720Y005575D01*
X008720Y005674D02*
X008105Y005674D01*
X008020Y005772D02*
X008720Y005772D01*
X008732Y005871D02*
X008020Y005871D01*
X008020Y005969D02*
X008773Y005969D01*
X008814Y006068D02*
X008020Y006068D01*
X008020Y006166D02*
X008886Y006166D01*
X008985Y006265D02*
X008020Y006265D01*
X008020Y006363D02*
X009144Y006363D01*
X008047Y005280D02*
X007740Y005280D01*
X007740Y005181D02*
X008145Y005181D01*
X008244Y005083D02*
X007733Y005083D01*
X007692Y004984D02*
X008342Y004984D01*
X008441Y004886D02*
X007631Y004886D01*
X007532Y004787D02*
X008539Y004787D01*
X008992Y004787D02*
X018127Y004787D01*
X018160Y004593D02*
X008960Y004593D01*
X007860Y005693D01*
X007751Y005575D02*
X007556Y005575D01*
X007655Y005477D02*
X007850Y005477D01*
X007948Y005378D02*
X007702Y005378D01*
X006903Y005871D02*
X006580Y005871D01*
X006580Y005969D02*
X006833Y005969D01*
X006792Y006068D02*
X006580Y006068D01*
X006580Y006166D02*
X006780Y006166D01*
X006780Y006265D02*
X006580Y006265D01*
X006580Y006363D02*
X006810Y006363D01*
X006851Y006462D02*
X006580Y006462D01*
X006580Y006560D02*
X006948Y006560D01*
X007129Y006659D02*
X006580Y006659D01*
X006580Y006757D02*
X007058Y006757D01*
X006918Y006856D02*
X006580Y006856D01*
X006580Y006954D02*
X006839Y006954D01*
X006798Y007053D02*
X006580Y007053D01*
X006580Y007151D02*
X006780Y007151D01*
X006780Y007250D02*
X006580Y007250D01*
X006580Y007348D02*
X006804Y007348D01*
X006845Y007447D02*
X006580Y007447D01*
X006580Y007545D02*
X006933Y007545D01*
X007093Y007644D02*
X006580Y007644D01*
X006580Y007742D02*
X006999Y007742D01*
X006987Y007749D02*
X007060Y007711D01*
X007138Y007686D01*
X007210Y007675D01*
X007210Y008143D01*
X006741Y008143D01*
X006752Y008072D01*
X006778Y007994D01*
X006815Y007921D01*
X006863Y007855D01*
X006921Y007797D01*
X006987Y007749D01*
X006877Y007841D02*
X006580Y007841D01*
X006580Y007939D02*
X006805Y007939D01*
X006763Y008038D02*
X006580Y008038D01*
X006580Y008136D02*
X006742Y008136D01*
X006580Y008235D02*
X007210Y008235D01*
X007210Y008333D02*
X007310Y008333D01*
X007310Y008432D02*
X007210Y008432D01*
X007210Y008530D02*
X007310Y008530D01*
X007310Y008629D02*
X007210Y008629D01*
X007130Y008727D02*
X006580Y008727D01*
X006580Y008629D02*
X006974Y008629D01*
X006862Y008530D02*
X006580Y008530D01*
X006580Y008432D02*
X006797Y008432D01*
X006758Y008333D02*
X006580Y008333D01*
X006580Y008826D02*
X006948Y008826D01*
X006851Y008924D02*
X006580Y008924D01*
X006580Y009023D02*
X006811Y009023D01*
X006780Y009121D02*
X006580Y009121D01*
X006580Y009220D02*
X006780Y009220D01*
X006792Y009318D02*
X006580Y009318D01*
X006580Y009417D02*
X006833Y009417D01*
X006903Y009515D02*
X006580Y009515D01*
X006580Y009614D02*
X007020Y009614D01*
X006963Y009811D02*
X006580Y009811D01*
X006580Y009909D02*
X006865Y009909D01*
X006817Y010008D02*
X006580Y010008D01*
X006580Y010106D02*
X006780Y010106D01*
X006780Y010205D02*
X006580Y010205D01*
X006580Y010303D02*
X006786Y010303D01*
X006826Y010402D02*
X006580Y010402D01*
X006580Y010500D02*
X006888Y010500D01*
X007541Y010796D02*
X007700Y010796D01*
X007700Y010894D02*
X007639Y010894D01*
X007696Y010993D02*
X007700Y010993D01*
X007700Y011781D02*
X007518Y011781D01*
X007624Y011879D02*
X007700Y011879D01*
X007690Y011978D02*
X007700Y011978D01*
X007700Y012470D02*
X007661Y012470D01*
X007700Y012569D02*
X007563Y012569D01*
X007700Y012667D02*
X007369Y012667D01*
X007482Y012766D02*
X007700Y012766D01*
X007700Y012864D02*
X007609Y012864D01*
X007684Y012963D02*
X007700Y012963D01*
X007150Y012667D02*
X006580Y012667D01*
X006580Y012569D02*
X006956Y012569D01*
X006858Y012470D02*
X006580Y012470D01*
X006580Y012372D02*
X006814Y012372D01*
X006780Y012273D02*
X006580Y012273D01*
X006580Y012175D02*
X006780Y012175D01*
X006788Y012076D02*
X006580Y012076D01*
X006580Y011978D02*
X006829Y011978D01*
X006895Y011879D02*
X006580Y011879D01*
X006580Y011781D02*
X007001Y011781D01*
X007037Y012766D02*
X006580Y012766D01*
X006580Y012864D02*
X006910Y012864D01*
X006835Y012963D02*
X006580Y012963D01*
X006580Y013061D02*
X006795Y013061D01*
X006780Y013160D02*
X006580Y013160D01*
X006580Y013258D02*
X006780Y013258D01*
X006808Y013357D02*
X006580Y013357D01*
X006580Y013455D02*
X006849Y013455D01*
X006941Y013554D02*
X006580Y013554D01*
X006580Y013652D02*
X007113Y013652D01*
X007073Y013751D02*
X006580Y013751D01*
X006580Y013849D02*
X006925Y013849D01*
X006842Y013948D02*
X006580Y013948D01*
X006580Y014046D02*
X006801Y014046D01*
X006780Y014145D02*
X006580Y014145D01*
X006580Y014243D02*
X006780Y014243D01*
X006801Y014342D02*
X006580Y014342D01*
X006580Y014440D02*
X006842Y014440D01*
X006926Y014539D02*
X006580Y014539D01*
X006580Y014637D02*
X007077Y014637D01*
X007442Y014637D02*
X008200Y014637D01*
X008200Y014539D02*
X007593Y014539D01*
X007677Y014440D02*
X008200Y014440D01*
X008200Y014342D02*
X007718Y014342D01*
X007740Y014243D02*
X008200Y014243D01*
X008200Y014145D02*
X007740Y014145D01*
X007718Y014046D02*
X008200Y014046D01*
X008200Y013948D02*
X007731Y013948D01*
X007830Y013849D02*
X008200Y013849D01*
X008200Y013751D02*
X007928Y013751D01*
X008020Y013652D02*
X008200Y013652D01*
X008200Y013554D02*
X008020Y013554D01*
X008200Y014736D02*
X006580Y014736D01*
X006580Y014834D02*
X008200Y014834D01*
X008200Y014933D02*
X006580Y014933D01*
X006580Y015031D02*
X008200Y015031D01*
X008200Y015130D02*
X006580Y015130D01*
X006580Y015228D02*
X007128Y015228D01*
X007164Y015213D02*
X007355Y015213D01*
X007531Y015286D01*
X007666Y015421D01*
X007740Y015598D01*
X007740Y015789D01*
X007666Y015965D01*
X007531Y016100D01*
X007355Y016173D01*
X007164Y016173D01*
X006988Y016100D01*
X006853Y015965D01*
X006780Y015789D01*
X006780Y015598D01*
X006853Y015421D01*
X006988Y015286D01*
X007164Y015213D01*
X007391Y015228D02*
X008200Y015228D01*
X008135Y015327D02*
X007572Y015327D01*
X007668Y015425D02*
X008037Y015425D01*
X007982Y015524D02*
X007709Y015524D01*
X007740Y015622D02*
X008033Y015622D01*
X008131Y015721D02*
X007740Y015721D01*
X007727Y015819D02*
X008230Y015819D01*
X008328Y015918D02*
X007686Y015918D01*
X007615Y016016D02*
X008427Y016016D01*
X008525Y016115D02*
X007496Y016115D01*
X007355Y016213D02*
X008624Y016213D01*
X008722Y016312D02*
X007557Y016312D01*
X007531Y016286D02*
X007666Y016421D01*
X007740Y016598D01*
X007740Y016789D01*
X007666Y016965D01*
X007531Y017100D01*
X007355Y017173D01*
X007164Y017173D01*
X006988Y017100D01*
X006853Y016965D01*
X006780Y016789D01*
X006780Y016598D01*
X006853Y016421D01*
X006988Y016286D01*
X007164Y016213D01*
X007355Y016213D01*
X007531Y016286D01*
X007655Y016410D02*
X008821Y016410D01*
X009121Y016509D02*
X007703Y016509D01*
X007740Y016607D02*
X009195Y016607D01*
X009195Y016706D02*
X007740Y016706D01*
X007733Y016804D02*
X009195Y016804D01*
X009195Y016903D02*
X007692Y016903D01*
X007630Y017001D02*
X009195Y017001D01*
X009195Y017100D02*
X007532Y017100D01*
X007531Y017286D02*
X007666Y017421D01*
X007740Y017598D01*
X007740Y017789D01*
X007666Y017965D01*
X007531Y018100D01*
X007355Y018173D01*
X007164Y018173D01*
X006988Y018100D01*
X006853Y017965D01*
X006780Y017789D01*
X006580Y017789D01*
X006580Y017691D02*
X006780Y017691D01*
X006780Y017598D02*
X006853Y017421D01*
X006988Y017286D01*
X007164Y017213D01*
X007355Y017213D01*
X007531Y017286D01*
X007542Y017297D02*
X009195Y017297D01*
X009195Y017395D02*
X007640Y017395D01*
X007696Y017494D02*
X009195Y017494D01*
X009195Y017592D02*
X007737Y017592D01*
X007740Y017691D02*
X009195Y017691D01*
X009195Y017789D02*
X007739Y017789D01*
X007698Y017888D02*
X009195Y017888D01*
X009195Y017986D02*
X007645Y017986D01*
X007547Y018085D02*
X009195Y018085D01*
X009195Y018183D02*
X006580Y018183D01*
X006580Y018085D02*
X006972Y018085D01*
X006874Y017986D02*
X006580Y017986D01*
X006580Y017888D02*
X006821Y017888D01*
X006780Y017789D02*
X006780Y017598D01*
X006782Y017592D02*
X006580Y017592D01*
X006580Y017494D02*
X006823Y017494D01*
X006879Y017395D02*
X006580Y017395D01*
X006580Y017297D02*
X006977Y017297D01*
X006987Y017100D02*
X006580Y017100D01*
X006580Y017198D02*
X009195Y017198D01*
X009815Y017198D02*
X009906Y017198D01*
X009195Y018282D02*
X007520Y018282D01*
X007531Y018286D02*
X007666Y018421D01*
X007740Y018598D01*
X007740Y018789D01*
X007666Y018965D01*
X007531Y019100D01*
X007355Y019173D01*
X007164Y019173D01*
X006988Y019100D01*
X006853Y018965D01*
X006780Y018789D01*
X006780Y018598D01*
X006853Y018421D01*
X006988Y018286D01*
X007164Y018213D01*
X007355Y018213D01*
X007531Y018286D01*
X007625Y018380D02*
X009195Y018380D01*
X009195Y018479D02*
X007690Y018479D01*
X007731Y018577D02*
X009195Y018577D01*
X009195Y018676D02*
X007740Y018676D01*
X007740Y018774D02*
X009195Y018774D01*
X009195Y018873D02*
X007705Y018873D01*
X007660Y018971D02*
X009195Y018971D01*
X009195Y019070D02*
X007562Y019070D01*
X007484Y019267D02*
X009195Y019267D01*
X009195Y019365D02*
X007610Y019365D01*
X007666Y019421D02*
X007740Y019598D01*
X007740Y019789D01*
X007666Y019965D01*
X007531Y020100D01*
X007355Y020173D01*
X007164Y020173D01*
X006988Y020100D01*
X006853Y019965D01*
X006780Y019789D01*
X006780Y019598D01*
X006853Y019421D01*
X006988Y019286D01*
X007164Y019213D01*
X007355Y019213D01*
X007531Y019286D01*
X007666Y019421D01*
X007684Y019464D02*
X009195Y019464D01*
X009195Y019562D02*
X007725Y019562D01*
X007740Y019661D02*
X009195Y019661D01*
X009195Y019759D02*
X007740Y019759D01*
X007711Y019858D02*
X009195Y019858D01*
X009195Y019956D02*
X007670Y019956D01*
X007577Y020055D02*
X009195Y020055D01*
X009195Y020153D02*
X007403Y020153D01*
X007355Y020213D02*
X007531Y020286D01*
X007666Y020421D01*
X007740Y020598D01*
X007740Y020789D01*
X007666Y020965D01*
X007531Y021100D01*
X007355Y021173D01*
X007164Y021173D01*
X006988Y021100D01*
X006853Y020965D01*
X006780Y020789D01*
X006780Y020598D01*
X006853Y020421D01*
X006988Y020286D01*
X007164Y020213D01*
X007355Y020213D01*
X007448Y020252D02*
X009195Y020252D01*
X009195Y020350D02*
X007595Y020350D01*
X007678Y020449D02*
X009195Y020449D01*
X009195Y020547D02*
X007719Y020547D01*
X007740Y020646D02*
X009194Y020646D01*
X009120Y020744D02*
X007740Y020744D01*
X007717Y020843D02*
X009079Y020843D01*
X009070Y020941D02*
X007676Y020941D01*
X007592Y021040D02*
X009070Y021040D01*
X009110Y021138D02*
X007439Y021138D01*
X007412Y021237D02*
X009169Y021237D01*
X009274Y021335D02*
X007580Y021335D01*
X007531Y021286D02*
X007666Y021421D01*
X007740Y021598D01*
X007740Y021789D01*
X007666Y021965D01*
X007531Y022100D01*
X007355Y022173D01*
X007164Y022173D01*
X006988Y022100D01*
X006853Y021965D01*
X006780Y021789D01*
X006780Y021598D01*
X006853Y021421D01*
X006988Y021286D01*
X007164Y021213D01*
X007355Y021213D01*
X007531Y021286D01*
X007672Y021434D02*
X017629Y021434D01*
X017548Y021400D02*
X017413Y021265D01*
X017340Y021089D01*
X017340Y020898D01*
X017413Y020721D01*
X017548Y020586D01*
X017724Y020513D01*
X017915Y020513D01*
X017997Y020547D01*
X018088Y020456D01*
X018088Y020109D01*
X018085Y020107D01*
X018085Y019700D01*
X018149Y019636D01*
X018662Y019636D01*
X018726Y019700D01*
X018726Y020107D01*
X018724Y020109D01*
X018724Y020514D01*
X018724Y020513D01*
X018915Y020513D01*
X019091Y020586D01*
X019226Y020721D01*
X019300Y020898D01*
X019300Y021089D01*
X019226Y021265D01*
X019091Y021400D01*
X018915Y021473D01*
X018724Y021473D01*
X018548Y021400D01*
X018413Y021265D01*
X018340Y021089D01*
X018340Y020898D01*
X018373Y020816D01*
X018344Y020786D01*
X018344Y020738D01*
X018266Y020816D01*
X018300Y020898D01*
X018300Y021089D01*
X018226Y021265D01*
X018091Y021400D01*
X017915Y021473D01*
X017724Y021473D01*
X017548Y021400D01*
X017483Y021335D02*
X016645Y021335D01*
X016656Y021331D02*
X016493Y021399D01*
X016316Y021399D01*
X016153Y021331D01*
X016027Y021206D01*
X015960Y021042D01*
X015960Y020865D01*
X016027Y020702D01*
X016050Y020680D01*
X016050Y019065D01*
X016092Y018962D01*
X016092Y018904D01*
X016156Y018839D01*
X016243Y018839D01*
X016298Y018816D01*
X016421Y018816D01*
X016476Y018839D01*
X016563Y018839D01*
X016627Y018904D01*
X016627Y018962D01*
X016670Y019065D01*
X016670Y020590D01*
X016781Y020702D01*
X016849Y020865D01*
X016849Y021042D01*
X016781Y021206D01*
X016656Y021331D01*
X016750Y021237D02*
X017401Y021237D01*
X017360Y021138D02*
X016809Y021138D01*
X016849Y021040D02*
X017340Y021040D01*
X017340Y020941D02*
X016849Y020941D01*
X016840Y020843D02*
X017362Y020843D01*
X017403Y020744D02*
X016799Y020744D01*
X016725Y020646D02*
X017488Y020646D01*
X017642Y020547D02*
X016670Y020547D01*
X016670Y020449D02*
X018088Y020449D01*
X018088Y020350D02*
X016670Y020350D01*
X016670Y020252D02*
X018088Y020252D01*
X018088Y020153D02*
X016670Y020153D01*
X016670Y020055D02*
X018085Y020055D01*
X018085Y019956D02*
X016670Y019956D01*
X016670Y019858D02*
X018085Y019858D01*
X018085Y019759D02*
X016670Y019759D01*
X016670Y019661D02*
X018125Y019661D01*
X018491Y019365D02*
X016670Y019365D01*
X016670Y019267D02*
X018393Y019267D01*
X018364Y019168D02*
X016670Y019168D01*
X016670Y019070D02*
X017855Y019070D01*
X017829Y018971D02*
X016631Y018971D01*
X016596Y018873D02*
X017829Y018873D01*
X017829Y018774D02*
X015315Y018774D01*
X015315Y018676D02*
X017829Y018676D01*
X017852Y018577D02*
X016946Y018577D01*
X016937Y018587D02*
X016850Y018587D01*
X016795Y018610D01*
X016672Y018610D01*
X016617Y018587D01*
X016530Y018587D01*
X016466Y018522D01*
X016466Y018464D01*
X016424Y018361D01*
X016424Y018238D01*
X016450Y018175D01*
X016450Y017963D01*
X016415Y017963D01*
X016355Y018023D01*
X016199Y018023D01*
X016253Y018077D01*
X016253Y018522D01*
X016189Y018587D01*
X015782Y018587D01*
X015718Y018522D01*
X015718Y018273D01*
X015590Y018144D01*
X015590Y017949D01*
X015530Y017889D01*
X015530Y017698D01*
X015664Y017563D01*
X015855Y017563D01*
X015990Y017698D01*
X015990Y017889D01*
X015930Y017949D01*
X015930Y018003D01*
X015939Y018012D01*
X016153Y018012D01*
X016030Y017889D01*
X016030Y017698D01*
X016164Y017563D01*
X016355Y017563D01*
X016415Y017623D01*
X016453Y017623D01*
X016453Y017516D01*
X016517Y017451D01*
X017002Y017451D01*
X017066Y017516D01*
X017066Y017709D01*
X017070Y017716D01*
X017070Y018335D01*
X017022Y018449D01*
X017001Y018471D01*
X017001Y018522D01*
X016937Y018587D01*
X017001Y018479D02*
X017852Y018479D01*
X017852Y018380D02*
X017051Y018380D01*
X017070Y018282D02*
X017852Y018282D01*
X017852Y018183D02*
X017070Y018183D01*
X017070Y018085D02*
X017852Y018085D01*
X017852Y017986D02*
X017070Y017986D01*
X017070Y017888D02*
X017852Y017888D01*
X017852Y017789D02*
X017070Y017789D01*
X017066Y017691D02*
X017852Y017691D01*
X017852Y017592D02*
X017066Y017592D01*
X017044Y017494D02*
X017852Y017494D01*
X017836Y017395D02*
X017042Y017395D01*
X017066Y017297D02*
X017738Y017297D01*
X017730Y017198D02*
X017066Y017198D01*
X017066Y017100D02*
X017730Y017100D01*
X017826Y017001D02*
X017066Y017001D01*
X016410Y017001D02*
X016021Y017001D01*
X016021Y017065D02*
X015743Y017065D01*
X015743Y016707D01*
X015891Y016707D01*
X015929Y016717D01*
X015963Y016737D01*
X015991Y016765D01*
X016011Y016799D01*
X016021Y016837D01*
X016021Y017065D01*
X016021Y017198D02*
X016410Y017198D01*
X016410Y017100D02*
X015743Y017100D01*
X015685Y017100D02*
X015315Y017100D01*
X015315Y017198D02*
X015406Y017198D01*
X015406Y017001D02*
X015315Y017001D01*
X015315Y016903D02*
X015406Y016903D01*
X015415Y016804D02*
X015315Y016804D01*
X015315Y016706D02*
X018290Y016706D01*
X018290Y016607D02*
X015315Y016607D01*
X015382Y016509D02*
X018290Y016509D01*
X018290Y016410D02*
X016033Y016410D01*
X016132Y016312D02*
X018290Y016312D01*
X018299Y016213D02*
X016230Y016213D01*
X016329Y016115D02*
X018330Y016115D01*
X018830Y016664D02*
X018830Y017164D01*
X018790Y017204D01*
X018790Y017289D01*
X018655Y017423D01*
X018464Y017423D01*
X018448Y017407D01*
X018448Y017454D01*
X018463Y017450D01*
X018641Y017450D01*
X018641Y017718D01*
X018678Y017718D01*
X018678Y017450D01*
X018856Y017450D01*
X018895Y017460D01*
X018929Y017480D01*
X018957Y017508D01*
X018976Y017542D01*
X018987Y017580D01*
X018987Y017719D01*
X018678Y017719D01*
X018678Y017756D01*
X018987Y017756D01*
X018987Y017895D01*
X018976Y017933D01*
X018957Y017967D01*
X018929Y017995D01*
X018895Y018015D01*
X018947Y018066D01*
X018947Y018433D01*
X018882Y018497D01*
X018704Y018497D01*
X018704Y018615D01*
X018726Y018638D01*
X018726Y019044D01*
X018704Y019066D01*
X018704Y019097D01*
X019330Y019723D01*
X019330Y020223D01*
X019470Y020363D01*
X019470Y020120D01*
X019467Y020118D01*
X019470Y020051D01*
X019470Y019983D01*
X019472Y019981D01*
X019472Y019977D01*
X019521Y019931D01*
X019569Y019883D01*
X019572Y019883D01*
X019636Y019823D01*
X019564Y019823D01*
X019430Y019689D01*
X019430Y019498D01*
X019534Y019393D01*
X019430Y019289D01*
X019430Y019098D01*
X019534Y018993D01*
X019430Y018889D01*
X019430Y018698D01*
X019564Y018563D01*
X019603Y018563D01*
X019093Y018053D01*
X019000Y017960D01*
X019000Y017423D01*
X018964Y017423D01*
X018830Y017289D01*
X018830Y017098D01*
X018964Y016963D01*
X019130Y016963D01*
X019130Y016898D01*
X019264Y016763D01*
X019455Y016763D01*
X019590Y016898D01*
X019590Y016963D01*
X019755Y016963D01*
X019890Y017098D01*
X019890Y017289D01*
X019755Y017423D01*
X019720Y017423D01*
X019720Y017627D01*
X020106Y018013D01*
X020106Y017864D01*
X020128Y017841D01*
X020106Y017819D01*
X020106Y017608D01*
X020128Y017586D01*
X020106Y017563D01*
X020106Y017352D01*
X020128Y017330D01*
X020106Y017307D01*
X020106Y017096D01*
X020128Y017074D01*
X020106Y017051D01*
X020106Y016852D01*
X020096Y016842D01*
X020076Y016808D01*
X020066Y016770D01*
X020066Y016690D01*
X020411Y016690D01*
X020411Y016690D01*
X020066Y016690D01*
X020066Y016610D01*
X020076Y016572D01*
X020081Y016563D01*
X018930Y016563D01*
X018830Y016664D01*
X018830Y016706D02*
X020066Y016706D01*
X020067Y016607D02*
X018886Y016607D01*
X018830Y016804D02*
X019223Y016804D01*
X019130Y016903D02*
X018830Y016903D01*
X018830Y017001D02*
X018926Y017001D01*
X018830Y017100D02*
X018830Y017100D01*
X018830Y017198D02*
X018795Y017198D01*
X018781Y017297D02*
X018838Y017297D01*
X018936Y017395D02*
X018683Y017395D01*
X018678Y017494D02*
X018641Y017494D01*
X018641Y017592D02*
X018678Y017592D01*
X018678Y017691D02*
X018641Y017691D01*
X018987Y017691D02*
X019000Y017691D01*
X018987Y017789D02*
X019000Y017789D01*
X018987Y017888D02*
X019000Y017888D01*
X019026Y017986D02*
X018938Y017986D01*
X018947Y018085D02*
X019125Y018085D01*
X019223Y018183D02*
X018947Y018183D01*
X018947Y018282D02*
X019322Y018282D01*
X019420Y018380D02*
X018947Y018380D01*
X018900Y018479D02*
X019519Y018479D01*
X019550Y018577D02*
X018704Y018577D01*
X018726Y018676D02*
X019452Y018676D01*
X019430Y018774D02*
X018726Y018774D01*
X018726Y018873D02*
X019430Y018873D01*
X019512Y018971D02*
X018726Y018971D01*
X018704Y019070D02*
X019458Y019070D01*
X019430Y019168D02*
X018775Y019168D01*
X018873Y019267D02*
X019430Y019267D01*
X019506Y019365D02*
X018972Y019365D01*
X019070Y019464D02*
X019464Y019464D01*
X019430Y019562D02*
X019169Y019562D01*
X019267Y019661D02*
X019430Y019661D01*
X019500Y019759D02*
X019330Y019759D01*
X019330Y019858D02*
X019600Y019858D01*
X019494Y019956D02*
X019330Y019956D01*
X019330Y020055D02*
X019469Y020055D01*
X019470Y020153D02*
X019330Y020153D01*
X019358Y020252D02*
X019470Y020252D01*
X019457Y020350D02*
X019470Y020350D01*
X019272Y020646D02*
X019151Y020646D01*
X019173Y020547D02*
X018997Y020547D01*
X019075Y020449D02*
X018724Y020449D01*
X018724Y020350D02*
X018990Y020350D01*
X018990Y020252D02*
X018724Y020252D01*
X018724Y020153D02*
X018990Y020153D01*
X018990Y020055D02*
X018726Y020055D01*
X018726Y019956D02*
X018990Y019956D01*
X018984Y019858D02*
X018726Y019858D01*
X018726Y019759D02*
X018885Y019759D01*
X018787Y019661D02*
X018687Y019661D01*
X018688Y019562D02*
X016670Y019562D01*
X016670Y019464D02*
X018590Y019464D01*
X019660Y018793D02*
X019859Y018993D01*
X020411Y018993D01*
X020411Y018737D02*
X020003Y018737D01*
X019160Y017893D01*
X019160Y017293D01*
X019060Y017193D01*
X019000Y017494D02*
X018943Y017494D01*
X018987Y017592D02*
X019000Y017592D01*
X019360Y017793D02*
X019360Y016993D01*
X019496Y016804D02*
X020075Y016804D01*
X020106Y016903D02*
X019590Y016903D01*
X019793Y017001D02*
X020106Y017001D01*
X020106Y017100D02*
X019890Y017100D01*
X019890Y017198D02*
X020106Y017198D01*
X020106Y017297D02*
X019881Y017297D01*
X019783Y017395D02*
X020106Y017395D01*
X020106Y017494D02*
X019720Y017494D01*
X019720Y017592D02*
X020121Y017592D01*
X020106Y017691D02*
X019783Y017691D01*
X019882Y017789D02*
X020106Y017789D01*
X020106Y017888D02*
X019980Y017888D01*
X020079Y017986D02*
X020106Y017986D01*
X020092Y018225D02*
X019560Y017693D01*
X019560Y017293D01*
X019660Y017193D01*
X019360Y017793D02*
X020047Y018481D01*
X020411Y018481D01*
X020411Y018225D02*
X020092Y018225D01*
X018111Y017001D02*
X018093Y017001D01*
X016410Y016903D02*
X016021Y016903D01*
X016012Y016804D02*
X016410Y016804D01*
X015743Y016804D02*
X015685Y016804D01*
X015685Y016903D02*
X015743Y016903D01*
X015743Y017001D02*
X015685Y017001D01*
X015635Y017592D02*
X015315Y017592D01*
X015315Y017494D02*
X016475Y017494D01*
X016453Y017592D02*
X016384Y017592D01*
X016135Y017592D02*
X015884Y017592D01*
X015982Y017691D02*
X016037Y017691D01*
X016030Y017789D02*
X015990Y017789D01*
X015990Y017888D02*
X016030Y017888D01*
X016127Y017986D02*
X015930Y017986D01*
X016253Y018085D02*
X016450Y018085D01*
X016446Y018183D02*
X016253Y018183D01*
X016253Y018282D02*
X016424Y018282D01*
X016431Y018380D02*
X016253Y018380D01*
X016253Y018479D02*
X016466Y018479D01*
X016521Y018577D02*
X016198Y018577D01*
X016123Y018873D02*
X015315Y018873D01*
X015315Y018971D02*
X016088Y018971D01*
X016050Y019070D02*
X015315Y019070D01*
X015315Y019168D02*
X016050Y019168D01*
X016050Y019267D02*
X015315Y019267D01*
X015315Y019365D02*
X016050Y019365D01*
X016050Y019464D02*
X015315Y019464D01*
X015315Y019562D02*
X016050Y019562D01*
X016050Y019661D02*
X015315Y019661D01*
X015315Y019759D02*
X016050Y019759D01*
X016050Y019858D02*
X015315Y019858D01*
X015315Y019956D02*
X016050Y019956D01*
X016050Y020055D02*
X015315Y020055D01*
X015315Y020153D02*
X016050Y020153D01*
X016050Y020252D02*
X015315Y020252D01*
X015315Y020350D02*
X016050Y020350D01*
X016050Y020449D02*
X015315Y020449D01*
X015315Y020547D02*
X016050Y020547D01*
X016050Y020646D02*
X015347Y020646D01*
X015421Y020744D02*
X016010Y020744D01*
X015969Y020843D02*
X015462Y020843D01*
X015471Y020941D02*
X015960Y020941D01*
X015960Y021040D02*
X015471Y021040D01*
X015431Y021138D02*
X016000Y021138D01*
X016058Y021237D02*
X015372Y021237D01*
X015268Y021335D02*
X016163Y021335D01*
X018010Y021434D02*
X018629Y021434D01*
X018483Y021335D02*
X018156Y021335D01*
X018238Y021237D02*
X018401Y021237D01*
X018360Y021138D02*
X018279Y021138D01*
X018300Y021040D02*
X018340Y021040D01*
X018340Y020941D02*
X018300Y020941D01*
X018277Y020843D02*
X018362Y020843D01*
X018344Y020744D02*
X018337Y020744D01*
X019236Y020744D02*
X019370Y020744D01*
X019277Y020843D02*
X019469Y020843D01*
X019567Y020941D02*
X019300Y020941D01*
X019300Y021040D02*
X019666Y021040D01*
X019764Y021138D02*
X019279Y021138D01*
X019238Y021237D02*
X019863Y021237D01*
X019961Y021335D02*
X019156Y021335D01*
X019010Y021434D02*
X021599Y021434D01*
X021572Y021335D02*
X021058Y021335D01*
X021156Y021237D02*
X021572Y021237D01*
X021572Y021138D02*
X021255Y021138D01*
X021353Y021040D02*
X021576Y021040D01*
X021648Y020941D02*
X021452Y020941D01*
X021168Y020744D02*
X020750Y020744D01*
X020750Y020646D02*
X021267Y020646D01*
X021365Y020547D02*
X020699Y020547D01*
X020695Y020843D02*
X021070Y020843D01*
X020971Y020941D02*
X020048Y020941D01*
X021881Y021237D02*
X021918Y021237D01*
X021918Y021335D02*
X021881Y021335D01*
X021881Y021434D02*
X021918Y021434D01*
X023470Y022123D02*
X007476Y022123D01*
X007376Y022222D02*
X023430Y022222D01*
X023420Y022246D02*
X023532Y021974D01*
X023740Y021766D01*
X024012Y021653D01*
X024307Y021653D01*
X024579Y021766D01*
X024787Y021974D01*
X024899Y022246D01*
X024899Y022540D01*
X024787Y022812D01*
X024579Y023021D01*
X024307Y023133D01*
X024012Y023133D01*
X023740Y023021D01*
X023532Y022812D01*
X023420Y022540D01*
X023420Y022246D01*
X023420Y022320D02*
X007565Y022320D01*
X007531Y022286D02*
X007666Y022421D01*
X007740Y022598D01*
X007740Y022789D01*
X007666Y022965D01*
X007531Y023100D01*
X007355Y023173D01*
X007164Y023173D01*
X006988Y023100D01*
X006853Y022965D01*
X006780Y022789D01*
X006780Y022598D01*
X006853Y022421D01*
X006988Y022286D01*
X007164Y022213D01*
X007355Y022213D01*
X007531Y022286D01*
X007664Y022419D02*
X023420Y022419D01*
X023420Y022517D02*
X007706Y022517D01*
X007740Y022616D02*
X023451Y022616D01*
X023492Y022714D02*
X007740Y022714D01*
X007730Y022813D02*
X023533Y022813D01*
X023631Y022911D02*
X007689Y022911D01*
X007622Y023010D02*
X023730Y023010D01*
X023952Y023108D02*
X007512Y023108D01*
X007007Y023108D02*
X006744Y023108D01*
X006646Y023010D02*
X006897Y023010D01*
X006830Y022911D02*
X006580Y022911D01*
X006580Y022813D02*
X006789Y022813D01*
X006780Y022714D02*
X006580Y022714D01*
X006580Y022616D02*
X006780Y022616D01*
X006813Y022517D02*
X006580Y022517D01*
X006580Y022419D02*
X006855Y022419D01*
X006954Y022320D02*
X006580Y022320D01*
X006580Y022222D02*
X007143Y022222D01*
X007043Y022123D02*
X006580Y022123D01*
X006580Y022025D02*
X006912Y022025D01*
X006836Y021926D02*
X006580Y021926D01*
X006580Y021828D02*
X006796Y021828D01*
X006780Y021729D02*
X006580Y021729D01*
X006580Y021631D02*
X006780Y021631D01*
X006807Y021532D02*
X006580Y021532D01*
X006580Y021434D02*
X006847Y021434D01*
X006939Y021335D02*
X006580Y021335D01*
X006580Y021237D02*
X007107Y021237D01*
X007080Y021138D02*
X006580Y021138D01*
X006580Y021040D02*
X006927Y021040D01*
X006843Y020941D02*
X006580Y020941D01*
X006580Y020843D02*
X006802Y020843D01*
X006780Y020744D02*
X006580Y020744D01*
X006580Y020646D02*
X006780Y020646D01*
X006800Y020547D02*
X006580Y020547D01*
X006580Y020449D02*
X006841Y020449D01*
X006924Y020350D02*
X006580Y020350D01*
X006580Y020252D02*
X007071Y020252D01*
X007116Y020153D02*
X006580Y020153D01*
X006580Y020055D02*
X006942Y020055D01*
X006849Y019956D02*
X006580Y019956D01*
X006580Y019858D02*
X006808Y019858D01*
X006780Y019759D02*
X006580Y019759D01*
X006580Y019661D02*
X006780Y019661D01*
X006794Y019562D02*
X006580Y019562D01*
X006580Y019464D02*
X006835Y019464D01*
X006909Y019365D02*
X006580Y019365D01*
X006580Y019267D02*
X007035Y019267D01*
X007152Y019168D02*
X006580Y019168D01*
X006580Y019070D02*
X006957Y019070D01*
X006859Y018971D02*
X006580Y018971D01*
X006580Y018873D02*
X006814Y018873D01*
X006780Y018774D02*
X006580Y018774D01*
X006580Y018676D02*
X006780Y018676D01*
X006788Y018577D02*
X006580Y018577D01*
X006580Y018479D02*
X006829Y018479D01*
X006894Y018380D02*
X006580Y018380D01*
X006580Y018282D02*
X006999Y018282D01*
X007367Y019168D02*
X009195Y019168D01*
X009815Y019168D02*
X010550Y019168D01*
X010550Y019070D02*
X009815Y019070D01*
X009815Y018971D02*
X010588Y018971D01*
X010592Y018962D02*
X010592Y018904D01*
X010656Y018839D01*
X010743Y018839D01*
X010798Y018816D01*
X010921Y018816D01*
X010976Y018839D01*
X011063Y018839D01*
X011127Y018904D01*
X011127Y018962D01*
X011170Y019065D01*
X011170Y020602D01*
X011270Y020702D01*
X011337Y020865D01*
X011337Y021042D01*
X011270Y021206D01*
X011144Y021331D01*
X010981Y021399D01*
X010804Y021399D01*
X010641Y021331D01*
X010516Y021206D01*
X010448Y021042D01*
X010448Y020865D01*
X010516Y020702D01*
X010550Y020668D01*
X010550Y019065D01*
X010592Y018962D01*
X010623Y018873D02*
X009815Y018873D01*
X009815Y018774D02*
X011995Y018774D01*
X011995Y018676D02*
X009815Y018676D01*
X009815Y019267D02*
X010550Y019267D01*
X010550Y019365D02*
X009815Y019365D01*
X009815Y019464D02*
X010550Y019464D01*
X010550Y019562D02*
X009815Y019562D01*
X009815Y019661D02*
X010550Y019661D01*
X010550Y019759D02*
X009815Y019759D01*
X009815Y019858D02*
X010550Y019858D01*
X010550Y019956D02*
X009815Y019956D01*
X009815Y020055D02*
X010550Y020055D01*
X010550Y020153D02*
X009815Y020153D01*
X009815Y020252D02*
X010550Y020252D01*
X010550Y020350D02*
X009815Y020350D01*
X009815Y020449D02*
X010550Y020449D01*
X010550Y020547D02*
X009815Y020547D01*
X009835Y020646D02*
X010550Y020646D01*
X010498Y020744D02*
X009909Y020744D01*
X009950Y020843D02*
X010457Y020843D01*
X010448Y020941D02*
X009959Y020941D01*
X009959Y021040D02*
X010448Y021040D01*
X010488Y021138D02*
X009920Y021138D01*
X009861Y021237D02*
X010547Y021237D01*
X010651Y021335D02*
X009756Y021335D01*
X011134Y021335D02*
X012029Y021335D01*
X011925Y021237D02*
X011238Y021237D01*
X011297Y021138D02*
X011866Y021138D01*
X011826Y021040D02*
X011337Y021040D01*
X011337Y020941D02*
X011826Y020941D01*
X011835Y020843D02*
X011328Y020843D01*
X011287Y020744D02*
X011876Y020744D01*
X011950Y020646D02*
X011213Y020646D01*
X011170Y020547D02*
X011995Y020547D01*
X011995Y020449D02*
X011170Y020449D01*
X011170Y020350D02*
X011995Y020350D01*
X011995Y020252D02*
X011170Y020252D01*
X011170Y020153D02*
X011995Y020153D01*
X011995Y020055D02*
X011170Y020055D01*
X011170Y019956D02*
X011995Y019956D01*
X011995Y019858D02*
X011170Y019858D01*
X011170Y019759D02*
X011995Y019759D01*
X011995Y019661D02*
X011170Y019661D01*
X011170Y019562D02*
X011995Y019562D01*
X011995Y019464D02*
X011170Y019464D01*
X011170Y019365D02*
X011995Y019365D01*
X011995Y019267D02*
X011170Y019267D01*
X011170Y019168D02*
X011995Y019168D01*
X011995Y019070D02*
X011170Y019070D01*
X011131Y018971D02*
X011995Y018971D01*
X011995Y018873D02*
X011096Y018873D01*
X011446Y018577D02*
X011995Y018577D01*
X011995Y018479D02*
X011501Y018479D01*
X011552Y018380D02*
X011995Y018380D01*
X011995Y018282D02*
X011572Y018282D01*
X011572Y018183D02*
X011995Y018183D01*
X011995Y018085D02*
X011572Y018085D01*
X012615Y018676D02*
X014695Y018676D01*
X014695Y018774D02*
X012615Y018774D01*
X015315Y018577D02*
X015773Y018577D01*
X015718Y018479D02*
X015315Y018479D01*
X015315Y018380D02*
X015718Y018380D01*
X015718Y018282D02*
X015315Y018282D01*
X015315Y018183D02*
X015629Y018183D01*
X015590Y018085D02*
X015315Y018085D01*
X015315Y017986D02*
X015590Y017986D01*
X015530Y017888D02*
X015315Y017888D01*
X015315Y017789D02*
X015530Y017789D01*
X015537Y017691D02*
X015315Y017691D01*
X016392Y017986D02*
X016450Y017986D01*
X015821Y016410D02*
X015481Y016410D01*
X015579Y016312D02*
X015722Y016312D01*
X018299Y014145D02*
X025460Y014145D01*
X025460Y014046D02*
X018397Y014046D01*
X018496Y013948D02*
X025460Y013948D01*
X025460Y013849D02*
X023347Y013849D01*
X022518Y013849D02*
X018594Y013849D01*
X018693Y013751D02*
X022313Y013751D01*
X022313Y013652D02*
X018737Y013652D01*
X018676Y013554D02*
X022313Y013554D01*
X022313Y013455D02*
X018577Y013455D01*
X019001Y012864D02*
X017986Y012864D01*
X017888Y012766D02*
X019001Y012766D01*
X019001Y012667D02*
X017595Y012667D01*
X017641Y012569D02*
X019001Y012569D01*
X019062Y012470D02*
X017641Y012470D01*
X017641Y012372D02*
X019130Y012372D01*
X019590Y012372D02*
X021183Y012372D01*
X021183Y012470D02*
X020657Y012470D01*
X020718Y012569D02*
X021183Y012569D01*
X021270Y012667D02*
X020718Y012667D01*
X020718Y013258D02*
X021064Y013258D01*
X021195Y013258D02*
X021560Y013258D01*
X021560Y013160D02*
X021345Y013160D01*
X021394Y013061D02*
X021560Y013061D01*
X021183Y012273D02*
X019590Y012273D01*
X019590Y012175D02*
X021183Y012175D01*
X021183Y012076D02*
X019590Y012076D01*
X019590Y011978D02*
X021183Y011978D01*
X021341Y011091D02*
X020674Y011091D01*
X020718Y010993D02*
X021341Y010993D01*
X020900Y010894D02*
X020718Y010894D01*
X020902Y010402D02*
X021418Y010402D01*
X021472Y010303D02*
X020718Y010303D01*
X020114Y010205D02*
X021498Y010205D01*
X021498Y010106D02*
X020122Y010106D01*
X020122Y010008D02*
X021498Y010008D01*
X021498Y009909D02*
X020122Y009909D01*
X020122Y009811D02*
X021538Y009811D01*
X021559Y009712D02*
X020144Y009712D01*
X020166Y009614D02*
X021502Y009614D01*
X021502Y009515D02*
X020166Y009515D01*
X020166Y009417D02*
X021502Y009417D01*
X021502Y009318D02*
X020166Y009318D01*
X020166Y009220D02*
X021502Y009220D01*
X021512Y009121D02*
X020122Y009121D01*
X020199Y009023D02*
X022713Y009023D01*
X022750Y009121D02*
X022145Y009121D01*
X022155Y009220D02*
X022750Y009220D01*
X022750Y009318D02*
X022155Y009318D01*
X022155Y009417D02*
X022750Y009417D01*
X022750Y009515D02*
X022155Y009515D01*
X022155Y009614D02*
X022750Y009614D01*
X022750Y009712D02*
X022098Y009712D01*
X022111Y009811D02*
X022208Y009811D01*
X022168Y009909D02*
X022151Y009909D01*
X022151Y010008D02*
X022168Y010008D01*
X022168Y010106D02*
X022151Y010106D01*
X022151Y010205D02*
X022168Y010205D01*
X022168Y010303D02*
X022151Y010303D01*
X021934Y010402D02*
X022385Y010402D01*
X022402Y010500D02*
X021917Y010500D01*
X021955Y010599D02*
X022364Y010599D01*
X022364Y010697D02*
X021955Y010697D01*
X021955Y010796D02*
X022364Y010796D01*
X023018Y010993D02*
X023213Y010993D01*
X023213Y011190D02*
X023018Y011190D01*
X022910Y010106D02*
X026002Y010106D01*
X025988Y010100D02*
X025853Y009965D01*
X025780Y009789D01*
X025780Y009598D01*
X025853Y009421D01*
X025988Y009286D01*
X026164Y009213D01*
X026355Y009213D01*
X026531Y009286D01*
X026666Y009421D01*
X026740Y009598D01*
X026740Y009789D01*
X026666Y009965D01*
X026531Y010100D01*
X026355Y010173D01*
X026164Y010173D01*
X025988Y010100D01*
X025895Y010008D02*
X022910Y010008D01*
X022910Y009909D02*
X025829Y009909D01*
X025789Y009811D02*
X022910Y009811D01*
X022910Y009712D02*
X025780Y009712D01*
X025780Y009614D02*
X022910Y009614D01*
X022910Y009515D02*
X025814Y009515D01*
X025857Y009417D02*
X022910Y009417D01*
X022910Y009318D02*
X025956Y009318D01*
X026039Y009121D02*
X022910Y009121D01*
X022910Y009023D02*
X025910Y009023D01*
X025853Y008965D02*
X025780Y008789D01*
X025780Y008598D01*
X025853Y008421D01*
X025988Y008286D01*
X026164Y008213D01*
X026355Y008213D01*
X026531Y008286D01*
X026666Y008421D01*
X026740Y008598D01*
X026740Y008789D01*
X026666Y008965D01*
X026531Y009100D01*
X026355Y009173D01*
X026164Y009173D01*
X025988Y009100D01*
X025853Y008965D01*
X025836Y008924D02*
X022841Y008924D01*
X022742Y008826D02*
X025795Y008826D01*
X025780Y008727D02*
X020460Y008727D01*
X020460Y008629D02*
X020572Y008629D01*
X020564Y008621D02*
X020544Y008587D01*
X020534Y008548D01*
X020534Y007988D01*
X020910Y007988D01*
X020910Y008679D01*
X020664Y008679D01*
X020626Y008669D01*
X020592Y008649D01*
X020564Y008621D01*
X020534Y008530D02*
X020460Y008530D01*
X020460Y008432D02*
X020534Y008432D01*
X020534Y008333D02*
X020460Y008333D01*
X020460Y008235D02*
X020534Y008235D01*
X020534Y008136D02*
X020460Y008136D01*
X020460Y008038D02*
X020534Y008038D01*
X020460Y007939D02*
X020910Y007939D01*
X020910Y007988D02*
X020910Y007888D01*
X021010Y007888D01*
X021010Y007988D01*
X021385Y007988D01*
X021385Y008548D01*
X021375Y008587D01*
X021355Y008621D01*
X021327Y008649D01*
X021293Y008669D01*
X021255Y008679D01*
X021010Y008679D01*
X021010Y007988D01*
X020910Y007988D01*
X020910Y008038D02*
X021010Y008038D01*
X021010Y008136D02*
X020910Y008136D01*
X020910Y008235D02*
X021010Y008235D01*
X021010Y008333D02*
X020910Y008333D01*
X020910Y008432D02*
X021010Y008432D01*
X021010Y008530D02*
X020910Y008530D01*
X020910Y008629D02*
X021010Y008629D01*
X021347Y008629D02*
X025780Y008629D01*
X025807Y008530D02*
X021385Y008530D01*
X021385Y008432D02*
X025848Y008432D01*
X025941Y008333D02*
X021385Y008333D01*
X021385Y008235D02*
X026112Y008235D01*
X026407Y008235D02*
X026940Y008235D01*
X026940Y008333D02*
X026578Y008333D01*
X026671Y008432D02*
X026940Y008432D01*
X026940Y008530D02*
X026712Y008530D01*
X026740Y008629D02*
X026940Y008629D01*
X026940Y008727D02*
X026740Y008727D01*
X026724Y008826D02*
X026940Y008826D01*
X026940Y008924D02*
X026683Y008924D01*
X026609Y009023D02*
X026940Y009023D01*
X026940Y009121D02*
X026480Y009121D01*
X026371Y009220D02*
X026940Y009220D01*
X026940Y009318D02*
X026563Y009318D01*
X026662Y009417D02*
X026940Y009417D01*
X026940Y009515D02*
X026705Y009515D01*
X026740Y009614D02*
X026940Y009614D01*
X026940Y009712D02*
X026740Y009712D01*
X026730Y009811D02*
X026940Y009811D01*
X026940Y009909D02*
X026690Y009909D01*
X026624Y010008D02*
X026940Y010008D01*
X026940Y010106D02*
X026517Y010106D01*
X026148Y009220D02*
X022910Y009220D01*
X022614Y008924D02*
X020206Y008924D01*
X020206Y008826D02*
X020316Y008826D01*
X020300Y008727D02*
X019908Y008727D01*
X019811Y008727D02*
X018820Y008727D01*
X018820Y008629D02*
X019513Y008629D01*
X019513Y008530D02*
X018820Y008530D01*
X018820Y008432D02*
X019561Y008432D01*
X019811Y008432D02*
X019908Y008432D01*
X019908Y008530D02*
X019811Y008530D01*
X019811Y008629D02*
X019908Y008629D01*
X020206Y008629D02*
X020300Y008629D01*
X020300Y008530D02*
X020206Y008530D01*
X020158Y008432D02*
X020300Y008432D01*
X020300Y008333D02*
X018820Y008333D01*
X018820Y008235D02*
X020300Y008235D01*
X020300Y008136D02*
X018820Y008136D01*
X018820Y008038D02*
X020300Y008038D01*
X020300Y007939D02*
X018820Y007939D01*
X018820Y007841D02*
X020300Y007841D01*
X020300Y007742D02*
X018820Y007742D01*
X018820Y007644D02*
X020300Y007644D01*
X020300Y007545D02*
X018820Y007545D01*
X018820Y007447D02*
X020300Y007447D01*
X020300Y007348D02*
X018741Y007348D01*
X018642Y007250D02*
X020300Y007250D01*
X020300Y007151D02*
X018544Y007151D01*
X018445Y007053D02*
X020300Y007053D01*
X020322Y006954D02*
X018347Y006954D01*
X018248Y006856D02*
X022500Y006856D01*
X022660Y006856D02*
X023321Y006856D01*
X023321Y006883D02*
X023321Y006783D01*
X023421Y006783D01*
X023421Y006883D01*
X023853Y006883D01*
X023843Y006946D01*
X023820Y007019D01*
X023785Y007087D01*
X023740Y007148D01*
X023686Y007202D01*
X023625Y007247D01*
X023557Y007282D01*
X023484Y007305D01*
X023421Y007315D01*
X023421Y006883D01*
X023321Y006883D01*
X023321Y007315D01*
X023257Y007305D01*
X023184Y007282D01*
X023117Y007247D01*
X023055Y007202D01*
X023001Y007148D01*
X022956Y007087D01*
X022921Y007019D01*
X022898Y006946D01*
X022888Y006883D01*
X023321Y006883D01*
X023321Y006954D02*
X023421Y006954D01*
X023421Y006856D02*
X023985Y006856D01*
X023985Y006954D02*
X023841Y006954D01*
X023802Y007053D02*
X023985Y007053D01*
X023985Y007151D02*
X023737Y007151D01*
X023619Y007250D02*
X023985Y007250D01*
X023985Y007348D02*
X021385Y007348D01*
X021385Y007328D02*
X021385Y007888D01*
X021010Y007888D01*
X021010Y007198D01*
X021255Y007198D01*
X021293Y007208D01*
X021327Y007228D01*
X021355Y007256D01*
X021375Y007290D01*
X021385Y007328D01*
X021349Y007250D02*
X023122Y007250D01*
X023004Y007151D02*
X020460Y007151D01*
X020460Y007053D02*
X022939Y007053D01*
X022900Y006954D02*
X022660Y006954D01*
X022660Y006757D02*
X022892Y006757D01*
X022888Y006783D02*
X022898Y006719D01*
X022921Y006647D01*
X022956Y006579D01*
X023001Y006517D01*
X023055Y006463D01*
X023117Y006418D01*
X023184Y006384D01*
X023257Y006360D01*
X023321Y006350D01*
X023321Y006783D01*
X022888Y006783D01*
X022917Y006659D02*
X022660Y006659D01*
X022660Y006560D02*
X022969Y006560D01*
X023056Y006462D02*
X022660Y006462D01*
X022660Y006363D02*
X023247Y006363D01*
X023321Y006363D02*
X023421Y006363D01*
X023421Y006350D02*
X023484Y006360D01*
X023557Y006384D01*
X023625Y006418D01*
X023686Y006463D01*
X023740Y006517D01*
X023785Y006579D01*
X023820Y006647D01*
X023843Y006719D01*
X023853Y006783D01*
X023421Y006783D01*
X023421Y006350D01*
X023494Y006363D02*
X023985Y006363D01*
X023985Y006265D02*
X022660Y006265D01*
X022660Y006166D02*
X023985Y006166D01*
X023985Y006068D02*
X022660Y006068D01*
X022660Y005969D02*
X023985Y005969D01*
X023985Y005871D02*
X022660Y005871D01*
X022660Y005772D02*
X023985Y005772D01*
X023985Y005674D02*
X022660Y005674D01*
X022500Y005674D02*
X021385Y005674D01*
X021385Y005772D02*
X022500Y005772D01*
X022500Y005871D02*
X021385Y005871D01*
X021385Y005969D02*
X022500Y005969D01*
X022500Y006068D02*
X021010Y006068D01*
X021010Y005998D02*
X021385Y005998D01*
X021385Y005438D01*
X021375Y005400D01*
X021355Y005366D01*
X021327Y005338D01*
X021293Y005318D01*
X021255Y005308D01*
X021010Y005308D01*
X021010Y005998D01*
X021010Y005969D02*
X020910Y005969D01*
X020910Y005998D02*
X020910Y005308D01*
X020664Y005308D01*
X020626Y005318D01*
X020592Y005338D01*
X020564Y005366D01*
X020544Y005400D01*
X020534Y005438D01*
X020534Y005998D01*
X020910Y005998D01*
X020910Y006098D02*
X020534Y006098D01*
X020534Y006659D01*
X020590Y006757D02*
X018150Y006757D01*
X018713Y006166D02*
X020534Y006166D01*
X020910Y006166D02*
X021010Y006166D01*
X021010Y006265D02*
X020910Y006265D01*
X020910Y006363D02*
X021010Y006363D01*
X021010Y006462D02*
X020910Y006462D01*
X020910Y006560D02*
X021010Y006560D01*
X021010Y006659D02*
X020910Y006659D01*
X020910Y006757D02*
X021010Y006757D01*
X021327Y006759D02*
X021355Y006731D01*
X021375Y006697D01*
X021385Y006659D01*
X021385Y006560D02*
X022500Y006560D01*
X022500Y006462D02*
X021385Y006462D01*
X021385Y006363D02*
X022500Y006363D01*
X022500Y006265D02*
X021385Y006265D01*
X021385Y006166D02*
X022500Y006166D01*
X022500Y005575D02*
X021385Y005575D01*
X021385Y005477D02*
X022550Y005477D01*
X021362Y005378D02*
X026940Y005378D01*
X026940Y005280D02*
X019385Y005280D01*
X019385Y005378D02*
X020557Y005378D01*
X020534Y005477D02*
X019381Y005477D01*
X019306Y005575D02*
X020534Y005575D01*
X020910Y005575D02*
X021010Y005575D01*
X021010Y005477D02*
X020910Y005477D01*
X020910Y005378D02*
X021010Y005378D01*
X021010Y005674D02*
X020910Y005674D01*
X020910Y005772D02*
X021010Y005772D01*
X021010Y005871D02*
X020910Y005871D01*
X020910Y007198D02*
X020910Y007888D01*
X020534Y007888D01*
X020534Y007328D01*
X020544Y007290D01*
X020564Y007256D01*
X020592Y007228D01*
X020626Y007208D01*
X020664Y007198D01*
X020910Y007198D01*
X020910Y007250D02*
X021010Y007250D01*
X021010Y007348D02*
X020910Y007348D01*
X020910Y007447D02*
X021010Y007447D01*
X021010Y007545D02*
X020910Y007545D01*
X020910Y007644D02*
X021010Y007644D01*
X021010Y007742D02*
X020910Y007742D01*
X020910Y007841D02*
X021010Y007841D01*
X021010Y007939D02*
X023985Y007939D01*
X023985Y007841D02*
X021385Y007841D01*
X021385Y007742D02*
X023985Y007742D01*
X023985Y007644D02*
X021385Y007644D01*
X021385Y007545D02*
X023985Y007545D01*
X023985Y007447D02*
X021385Y007447D01*
X021385Y008038D02*
X023985Y008038D01*
X024145Y007841D02*
X026940Y007841D01*
X026940Y007742D02*
X024145Y007742D01*
X024145Y007644D02*
X026940Y007644D01*
X026940Y007545D02*
X024145Y007545D01*
X024145Y007447D02*
X026940Y007447D01*
X026940Y007348D02*
X024145Y007348D01*
X024145Y007250D02*
X024500Y007250D01*
X024494Y007247D02*
X024433Y007202D01*
X024379Y007148D01*
X024334Y007087D01*
X024299Y007019D01*
X024276Y006946D01*
X024266Y006883D01*
X024698Y006883D01*
X024698Y006783D01*
X024266Y006783D01*
X024276Y006719D01*
X024299Y006647D01*
X024334Y006579D01*
X024379Y006517D01*
X024433Y006463D01*
X024494Y006418D01*
X024562Y006384D01*
X024635Y006360D01*
X024698Y006350D01*
X024698Y006783D01*
X024798Y006783D01*
X024798Y006350D01*
X024862Y006360D01*
X024935Y006384D01*
X025003Y006418D01*
X025064Y006463D01*
X025118Y006517D01*
X025163Y006579D01*
X025198Y006647D01*
X025221Y006719D01*
X025231Y006783D01*
X024798Y006783D01*
X024798Y006883D01*
X024698Y006883D01*
X024698Y007315D01*
X024635Y007305D01*
X024562Y007282D01*
X024494Y007247D01*
X024382Y007151D02*
X024145Y007151D01*
X024145Y007053D02*
X024317Y007053D01*
X024278Y006954D02*
X024145Y006954D01*
X024145Y006856D02*
X024698Y006856D01*
X024698Y006954D02*
X024798Y006954D01*
X024798Y006883D02*
X024798Y007315D01*
X024862Y007305D01*
X024935Y007282D01*
X025003Y007247D01*
X025064Y007202D01*
X025118Y007148D01*
X025163Y007087D01*
X025198Y007019D01*
X025221Y006946D01*
X025231Y006883D01*
X024798Y006883D01*
X024798Y006856D02*
X026940Y006856D01*
X026940Y006954D02*
X025219Y006954D01*
X025180Y007053D02*
X026940Y007053D01*
X026940Y007151D02*
X025115Y007151D01*
X024997Y007250D02*
X026940Y007250D01*
X026940Y006757D02*
X025227Y006757D01*
X025202Y006659D02*
X026940Y006659D01*
X026940Y006560D02*
X025150Y006560D01*
X025063Y006462D02*
X026940Y006462D01*
X026940Y006363D02*
X024872Y006363D01*
X024798Y006363D02*
X024698Y006363D01*
X024625Y006363D02*
X024145Y006363D01*
X024145Y006265D02*
X026940Y006265D01*
X026940Y006166D02*
X024145Y006166D01*
X024145Y006068D02*
X026940Y006068D01*
X026940Y005969D02*
X024145Y005969D01*
X024145Y005871D02*
X026940Y005871D01*
X026940Y005772D02*
X024145Y005772D01*
X024145Y005674D02*
X026940Y005674D01*
X026940Y005575D02*
X024145Y005575D01*
X024094Y005477D02*
X026940Y005477D01*
X026784Y004787D02*
X018570Y004787D01*
X018481Y004689D02*
X026685Y004689D01*
X026587Y004590D02*
X018383Y004590D01*
X018160Y004593D02*
X018410Y004843D01*
X018410Y005193D01*
X018175Y005280D02*
X017084Y005280D01*
X017084Y005378D02*
X017047Y005378D01*
X017047Y005477D02*
X017084Y005477D01*
X017084Y005575D02*
X017047Y005575D01*
X017047Y005181D02*
X017084Y005181D01*
X017084Y005083D02*
X017047Y005083D01*
X017047Y004984D02*
X017084Y004984D01*
X016856Y004984D02*
X009681Y004984D01*
X007700Y006462D02*
X007668Y006462D01*
X007700Y006560D02*
X007571Y006560D01*
X007700Y006659D02*
X007390Y006659D01*
X007461Y006757D02*
X007700Y006757D01*
X007700Y006856D02*
X007601Y006856D01*
X007680Y006954D02*
X007700Y006954D01*
X007674Y007447D02*
X007700Y007447D01*
X007700Y007545D02*
X007586Y007545D01*
X007700Y007644D02*
X007426Y007644D01*
X007520Y007742D02*
X007700Y007742D01*
X007700Y007841D02*
X007642Y007841D01*
X007310Y007841D02*
X007210Y007841D01*
X007210Y007939D02*
X007310Y007939D01*
X007310Y008038D02*
X007210Y008038D01*
X007210Y008136D02*
X007310Y008136D01*
X007310Y007742D02*
X007210Y007742D01*
X007657Y008530D02*
X007700Y008530D01*
X007700Y008629D02*
X007545Y008629D01*
X007700Y008727D02*
X007389Y008727D01*
X007571Y008826D02*
X007700Y008826D01*
X007700Y008924D02*
X007668Y008924D01*
X008020Y009023D02*
X011004Y009023D01*
X011000Y009121D02*
X010814Y009121D01*
X010863Y009220D02*
X010990Y009220D01*
X011160Y009429D02*
X011169Y009438D01*
X010417Y009121D02*
X010359Y009121D01*
X010123Y009121D02*
X010085Y009121D01*
X010085Y009066D02*
X010085Y009374D01*
X009816Y009374D01*
X009816Y009196D01*
X009826Y009158D01*
X009846Y009124D01*
X009874Y009096D01*
X009908Y009076D01*
X009946Y009066D01*
X010085Y009066D01*
X010085Y009220D02*
X010123Y009220D01*
X010123Y009318D02*
X010085Y009318D01*
X010085Y009417D02*
X010123Y009417D01*
X010123Y009515D02*
X010085Y009515D01*
X010085Y009614D02*
X010123Y009614D01*
X010123Y009712D02*
X010085Y009712D01*
X009916Y009712D02*
X008020Y009712D01*
X008020Y009614D02*
X009822Y009614D01*
X009816Y009515D02*
X008020Y009515D01*
X008020Y009417D02*
X009816Y009417D01*
X009816Y009318D02*
X008020Y009318D01*
X008020Y009220D02*
X009816Y009220D01*
X009849Y009121D02*
X008020Y009121D01*
X007700Y009417D02*
X007686Y009417D01*
X007700Y009515D02*
X007616Y009515D01*
X007700Y009614D02*
X007499Y009614D01*
X007556Y009811D02*
X007700Y009811D01*
X007700Y009909D02*
X007654Y009909D01*
X007700Y009712D02*
X006580Y009712D01*
X011959Y010500D02*
X012289Y010500D01*
X012289Y010402D02*
X012038Y010402D01*
X012116Y010303D02*
X012289Y010303D01*
X012289Y010205D02*
X012195Y010205D01*
X012274Y010106D02*
X012289Y010106D01*
X012677Y010402D02*
X012742Y010402D01*
X012688Y010500D02*
X012840Y010500D01*
X012823Y010599D02*
X012939Y010599D01*
X012886Y010697D02*
X013000Y010697D01*
X013000Y010796D02*
X012886Y010796D01*
X012886Y010894D02*
X013000Y010894D01*
X013000Y010993D02*
X012886Y010993D01*
X012886Y011091D02*
X013000Y011091D01*
X013030Y011190D02*
X012882Y011190D01*
X013128Y011288D02*
X012303Y011288D01*
X012270Y011879D02*
X014850Y011879D01*
X014858Y012076D02*
X012270Y012076D01*
X012270Y012175D02*
X014903Y012175D01*
X015001Y012273D02*
X012270Y012273D01*
X012270Y012372D02*
X015100Y012372D01*
X015198Y012470D02*
X012270Y012470D01*
X012273Y012569D02*
X015297Y012569D01*
X015395Y012667D02*
X012372Y012667D01*
X012470Y012766D02*
X014196Y012766D01*
X014098Y012864D02*
X012569Y012864D01*
X014388Y012766D02*
X015494Y012766D01*
X015592Y012864D02*
X014486Y012864D01*
X014585Y012963D02*
X015691Y012963D01*
X015789Y013061D02*
X014683Y013061D01*
X014782Y013160D02*
X015888Y013160D01*
X015986Y013258D02*
X014880Y013258D01*
X014979Y013357D02*
X016085Y013357D01*
X016183Y013455D02*
X015077Y013455D01*
X016075Y012470D02*
X016278Y012470D01*
X016278Y012372D02*
X015976Y012372D01*
X015878Y012273D02*
X016910Y012273D01*
X016910Y012294D02*
X016278Y012294D01*
X016278Y012579D01*
X016288Y012617D01*
X016308Y012652D01*
X016336Y012679D01*
X016370Y012699D01*
X016408Y012709D01*
X016910Y012709D01*
X016910Y012294D01*
X016910Y012372D02*
X017010Y012372D01*
X017010Y012470D02*
X016910Y012470D01*
X016910Y012569D02*
X017010Y012569D01*
X017010Y012667D02*
X016910Y012667D01*
X016469Y012864D02*
X017598Y012864D01*
X017696Y012766D02*
X016370Y012766D01*
X016324Y012667D02*
X016272Y012667D01*
X016278Y012569D02*
X016173Y012569D01*
X016278Y012175D02*
X015779Y012175D01*
X015681Y012076D02*
X016278Y012076D01*
X016278Y011978D02*
X015900Y011978D01*
X015740Y011885D02*
X015740Y011885D01*
X014360Y010925D02*
X014260Y010925D01*
X014260Y010924D01*
X014260Y010893D01*
X014260Y010924D01*
X014260Y010893D02*
X014260Y010793D01*
X016960Y009137D02*
X016960Y008449D01*
X017460Y008449D02*
X017460Y009137D01*
X017478Y009630D02*
X017478Y009668D01*
X017632Y009668D01*
X017941Y009668D01*
X017941Y009630D01*
X017478Y009630D01*
X017478Y009712D02*
X017441Y009712D01*
X017441Y009811D02*
X017478Y009811D01*
X017478Y009909D02*
X017441Y009909D01*
X017941Y009909D02*
X017978Y009909D01*
X017978Y009811D02*
X017941Y009811D01*
X017941Y009712D02*
X017978Y009712D01*
X017960Y009137D02*
X017960Y008449D01*
X017491Y007922D02*
X017500Y007913D01*
X018660Y007493D02*
X018660Y009793D01*
X018760Y009993D01*
X018820Y009712D02*
X019575Y009712D01*
X019587Y009811D02*
X019532Y009811D01*
X019532Y009909D02*
X019587Y009909D01*
X019587Y010008D02*
X019532Y010008D01*
X019532Y010106D02*
X019587Y010106D01*
X019596Y010205D02*
X019523Y010205D01*
X019553Y009614D02*
X018820Y009614D01*
X018820Y009515D02*
X019553Y009515D01*
X019553Y009417D02*
X018820Y009417D01*
X018820Y009318D02*
X019553Y009318D01*
X019553Y009220D02*
X018820Y009220D01*
X018820Y009121D02*
X019597Y009121D01*
X019520Y009023D02*
X018820Y009023D01*
X018820Y008924D02*
X019513Y008924D01*
X019513Y008826D02*
X018820Y008826D01*
X020460Y007841D02*
X020534Y007841D01*
X020534Y007742D02*
X020460Y007742D01*
X020460Y007644D02*
X020534Y007644D01*
X020534Y007545D02*
X020460Y007545D01*
X020460Y007447D02*
X020534Y007447D01*
X020534Y007348D02*
X020460Y007348D01*
X020460Y007250D02*
X020570Y007250D01*
X021385Y008136D02*
X026940Y008136D01*
X024798Y007250D02*
X024698Y007250D01*
X024698Y007151D02*
X024798Y007151D01*
X024798Y007053D02*
X024698Y007053D01*
X024698Y006757D02*
X024798Y006757D01*
X024798Y006659D02*
X024698Y006659D01*
X024698Y006560D02*
X024798Y006560D01*
X024798Y006462D02*
X024698Y006462D01*
X024434Y006462D02*
X024145Y006462D01*
X024145Y006560D02*
X024347Y006560D01*
X024295Y006659D02*
X024145Y006659D01*
X024145Y006757D02*
X024270Y006757D01*
X023985Y006757D02*
X023849Y006757D01*
X023824Y006659D02*
X023985Y006659D01*
X023985Y006560D02*
X023772Y006560D01*
X023685Y006462D02*
X023985Y006462D01*
X023421Y006462D02*
X023321Y006462D01*
X023321Y006560D02*
X023421Y006560D01*
X023421Y006659D02*
X023321Y006659D01*
X023321Y006757D02*
X023421Y006757D01*
X023421Y007053D02*
X023321Y007053D01*
X023321Y007151D02*
X023421Y007151D01*
X023421Y007250D02*
X023321Y007250D01*
X026632Y011387D02*
X026940Y011387D01*
X026940Y011485D02*
X026693Y011485D01*
X026734Y011584D02*
X026940Y011584D01*
X026940Y011682D02*
X026740Y011682D01*
X026740Y011781D02*
X026940Y011781D01*
X026940Y011879D02*
X026702Y011879D01*
X026654Y011978D02*
X026940Y011978D01*
X026940Y012076D02*
X026555Y012076D01*
X026310Y013652D02*
X026940Y013652D01*
X025876Y014342D02*
X025620Y014342D01*
X025620Y014440D02*
X025805Y014440D01*
X025763Y014539D02*
X025620Y014539D01*
X025620Y014637D02*
X025742Y014637D01*
X026164Y018213D02*
X025988Y018286D01*
X025853Y018421D01*
X025780Y018598D01*
X025780Y018789D01*
X025853Y018965D01*
X025988Y019100D01*
X026164Y019173D01*
X026355Y019173D01*
X026531Y019100D01*
X026666Y018965D01*
X026740Y018789D01*
X026740Y018598D01*
X026666Y018421D01*
X026531Y018286D01*
X026355Y018213D01*
X026164Y018213D01*
X025894Y018380D02*
X025472Y018380D01*
X025570Y018479D02*
X025829Y018479D01*
X025788Y018577D02*
X025590Y018577D01*
X025682Y018676D02*
X025780Y018676D01*
X025780Y018774D02*
X025730Y018774D01*
X025730Y018873D02*
X025814Y018873D01*
X025859Y018971D02*
X025730Y018971D01*
X025730Y019070D02*
X025957Y019070D01*
X026035Y019267D02*
X025730Y019267D01*
X025730Y019365D02*
X025909Y019365D01*
X025853Y019421D02*
X025988Y019286D01*
X026164Y019213D01*
X026355Y019213D01*
X026531Y019286D01*
X026666Y019421D01*
X026740Y019598D01*
X026740Y019789D01*
X026666Y019965D01*
X026531Y020100D01*
X026355Y020173D01*
X026164Y020173D01*
X025988Y020100D01*
X025853Y019965D01*
X025780Y019789D01*
X025780Y019598D01*
X025853Y019421D01*
X025835Y019464D02*
X025730Y019464D01*
X025730Y019562D02*
X025794Y019562D01*
X025780Y019661D02*
X025730Y019661D01*
X025730Y019759D02*
X025780Y019759D01*
X025808Y019858D02*
X025730Y019858D01*
X025730Y019956D02*
X025849Y019956D01*
X025942Y020055D02*
X025730Y020055D01*
X025730Y020153D02*
X026116Y020153D01*
X026164Y020213D02*
X025988Y020286D01*
X025853Y020421D01*
X025780Y020598D01*
X025780Y020789D01*
X025853Y020965D01*
X025988Y021100D01*
X026164Y021173D01*
X026355Y021173D01*
X026531Y021100D01*
X026666Y020965D01*
X026740Y020789D01*
X026740Y020598D01*
X026666Y020421D01*
X026531Y020286D01*
X026355Y020213D01*
X026164Y020213D01*
X026071Y020252D02*
X025730Y020252D01*
X025730Y020350D02*
X025924Y020350D01*
X025841Y020449D02*
X025730Y020449D01*
X025730Y020547D02*
X025800Y020547D01*
X025780Y020646D02*
X025730Y020646D01*
X025730Y020744D02*
X025780Y020744D01*
X025802Y020843D02*
X025730Y020843D01*
X025730Y020941D02*
X025843Y020941D01*
X025927Y021040D02*
X025730Y021040D01*
X025730Y021138D02*
X026080Y021138D01*
X026107Y021237D02*
X025730Y021237D01*
X025730Y021335D02*
X025939Y021335D01*
X025988Y021286D02*
X026164Y021213D01*
X026355Y021213D01*
X026531Y021286D01*
X026666Y021421D01*
X026740Y021598D01*
X026740Y021789D01*
X026666Y021965D01*
X026531Y022100D01*
X026355Y022173D01*
X026164Y022173D01*
X025988Y022100D01*
X025853Y021965D01*
X025780Y021789D01*
X025780Y021598D01*
X025853Y021421D01*
X025988Y021286D01*
X025847Y021434D02*
X025730Y021434D01*
X025730Y021532D02*
X025807Y021532D01*
X025780Y021631D02*
X025730Y021631D01*
X025730Y021729D02*
X025780Y021729D01*
X025796Y021828D02*
X025730Y021828D01*
X025733Y021926D02*
X025836Y021926D01*
X025831Y022025D02*
X025912Y022025D01*
X025930Y022123D02*
X026043Y022123D01*
X026028Y022222D02*
X026143Y022222D01*
X026376Y022222D02*
X026940Y022222D01*
X026940Y022320D02*
X026565Y022320D01*
X026664Y022419D02*
X026940Y022419D01*
X026940Y022517D02*
X026706Y022517D01*
X026740Y022616D02*
X026940Y022616D01*
X026940Y022714D02*
X026740Y022714D01*
X026730Y022813D02*
X026940Y022813D01*
X026940Y022911D02*
X026689Y022911D01*
X026622Y023010D02*
X026873Y023010D01*
X026775Y023108D02*
X026512Y023108D01*
X026676Y023207D02*
X006843Y023207D01*
X006941Y023305D02*
X026578Y023305D01*
X026007Y023108D02*
X024367Y023108D01*
X024589Y023010D02*
X025897Y023010D01*
X025830Y022911D02*
X024688Y022911D01*
X024786Y022813D02*
X025789Y022813D01*
X025780Y022714D02*
X024827Y022714D01*
X024868Y022616D02*
X025780Y022616D01*
X025813Y022517D02*
X024899Y022517D01*
X024899Y022419D02*
X025745Y022419D01*
X025646Y022320D02*
X024899Y022320D01*
X024889Y022222D02*
X025548Y022222D01*
X025449Y022123D02*
X024849Y022123D01*
X024808Y022025D02*
X025390Y022025D01*
X025390Y021926D02*
X024739Y021926D01*
X024640Y021828D02*
X025390Y021828D01*
X025390Y021729D02*
X024490Y021729D01*
X023829Y021729D02*
X007740Y021729D01*
X007740Y021631D02*
X025390Y021631D01*
X025390Y021532D02*
X007712Y021532D01*
X007723Y021828D02*
X023679Y021828D01*
X023580Y021926D02*
X007683Y021926D01*
X007607Y022025D02*
X023511Y022025D01*
X026412Y021237D02*
X026940Y021237D01*
X026940Y021335D02*
X026580Y021335D01*
X026672Y021434D02*
X026940Y021434D01*
X026940Y021532D02*
X026712Y021532D01*
X026740Y021631D02*
X026940Y021631D01*
X026940Y021729D02*
X026740Y021729D01*
X026723Y021828D02*
X026940Y021828D01*
X026940Y021926D02*
X026683Y021926D01*
X026607Y022025D02*
X026940Y022025D01*
X026940Y022123D02*
X026476Y022123D01*
X026439Y021138D02*
X026940Y021138D01*
X026940Y021040D02*
X026592Y021040D01*
X026676Y020941D02*
X026940Y020941D01*
X026940Y020843D02*
X026717Y020843D01*
X026740Y020744D02*
X026940Y020744D01*
X026940Y020646D02*
X026740Y020646D01*
X026719Y020547D02*
X026940Y020547D01*
X026940Y020449D02*
X026678Y020449D01*
X026595Y020350D02*
X026940Y020350D01*
X026940Y020252D02*
X026448Y020252D01*
X026403Y020153D02*
X026940Y020153D01*
X026940Y020055D02*
X026577Y020055D01*
X026670Y019956D02*
X026940Y019956D01*
X026940Y019858D02*
X026711Y019858D01*
X026740Y019759D02*
X026940Y019759D01*
X026940Y019661D02*
X026740Y019661D01*
X026725Y019562D02*
X026940Y019562D01*
X026940Y019464D02*
X026684Y019464D01*
X026610Y019365D02*
X026940Y019365D01*
X026940Y019267D02*
X026484Y019267D01*
X026367Y019168D02*
X026940Y019168D01*
X026940Y019070D02*
X026562Y019070D01*
X026660Y018971D02*
X026940Y018971D01*
X026940Y018873D02*
X026705Y018873D01*
X026740Y018774D02*
X026940Y018774D01*
X026940Y018676D02*
X026740Y018676D01*
X026731Y018577D02*
X026940Y018577D01*
X026940Y018479D02*
X026690Y018479D01*
X026625Y018380D02*
X026940Y018380D01*
X026940Y018282D02*
X026520Y018282D01*
X026152Y019168D02*
X025730Y019168D01*
X007164Y016213D02*
X006580Y016213D01*
X006580Y016115D02*
X007023Y016115D01*
X006904Y016016D02*
X006580Y016016D01*
X006580Y015918D02*
X006833Y015918D01*
X006792Y015819D02*
X006580Y015819D01*
X006580Y015721D02*
X006780Y015721D01*
X006780Y015622D02*
X006580Y015622D01*
X006580Y015524D02*
X006810Y015524D01*
X006851Y015425D02*
X006580Y015425D01*
X006580Y015327D02*
X006947Y015327D01*
X006962Y016312D02*
X006580Y016312D01*
X006580Y016410D02*
X006864Y016410D01*
X006816Y016509D02*
X006580Y016509D01*
X006580Y016607D02*
X006780Y016607D01*
X006780Y016706D02*
X006580Y016706D01*
X006580Y016804D02*
X006786Y016804D01*
X006827Y016903D02*
X006580Y016903D01*
X006580Y017001D02*
X006889Y017001D01*
D37*
X010260Y017793D03*
X010760Y017793D03*
X010760Y017093D03*
X013060Y017793D03*
X013560Y017793D03*
X013560Y017093D03*
X015760Y017793D03*
X016260Y017793D03*
X016260Y017093D03*
X017960Y017193D03*
X018560Y017193D03*
X019060Y017193D03*
X019360Y016993D03*
X019660Y017193D03*
X018560Y016193D03*
X019660Y018793D03*
X019660Y019193D03*
X019660Y019593D03*
X019960Y020193D03*
X020520Y020693D03*
X023860Y016793D03*
X022060Y016193D03*
X024760Y018793D03*
X025360Y018593D03*
X024760Y020193D03*
X018560Y011593D03*
X018260Y011393D03*
X015660Y011393D03*
X015660Y010993D03*
X015660Y010593D03*
X013660Y010793D03*
X013660Y011193D03*
X013660Y011593D03*
X011060Y010393D03*
X010660Y010393D03*
X010660Y009993D03*
X014660Y005793D03*
X013160Y005493D03*
X012760Y005493D03*
X012360Y005493D03*
X016260Y006093D03*
X017660Y006093D03*
D38*
X014842Y009859D02*
X015393Y010332D01*
D39*
X014592Y010925D02*
X014960Y011293D01*
X015160Y011493D01*
X015160Y011993D01*
X016360Y013193D01*
X017560Y013193D01*
X017732Y013366D01*
X017987Y013466D01*
X015732Y015721D02*
X015005Y016448D01*
X015005Y017093D01*
X015005Y020933D01*
X015026Y020954D01*
X013660Y020943D02*
X013648Y020954D01*
X013660Y020943D02*
X013660Y019126D01*
X012305Y020919D02*
X012271Y020954D01*
X012305Y020919D02*
X012305Y017093D01*
X012305Y015794D01*
X012232Y015721D01*
X012205Y015749D01*
X011262Y017778D02*
X011262Y018271D01*
X011234Y018300D01*
X010860Y019126D02*
X010860Y020921D01*
X010893Y020954D01*
X009515Y020954D02*
X009505Y020944D01*
X009505Y017093D01*
X009505Y016449D01*
X008905Y015849D01*
X008732Y015721D01*
X010987Y013466D02*
X010660Y013138D01*
X010660Y011193D01*
X010929Y010924D01*
X011260Y010924D01*
X011960Y011193D02*
X011960Y012693D01*
X012460Y013193D01*
X014160Y013193D01*
X014214Y013193D01*
X014487Y013466D01*
X014592Y010925D02*
X014360Y010925D01*
X014292Y010925D01*
X012560Y010924D02*
X012229Y010924D01*
X011960Y011193D01*
X016760Y017778D02*
X016760Y018274D01*
X016734Y018300D01*
X016360Y019126D02*
X016360Y020909D01*
X016404Y020954D01*
X021580Y013393D02*
X021580Y012242D01*
D40*
X021608Y012193D01*
X021608Y011707D01*
X021648Y011467D01*
X021648Y011093D01*
X021648Y010719D02*
X021208Y010719D01*
X021085Y010719D01*
X020760Y010593D01*
X020385Y010593D01*
X019860Y010667D01*
X019855Y009993D02*
X019860Y009989D01*
X019860Y009428D01*
X019264Y009993D02*
X018760Y009993D01*
X018760Y010993D01*
X019360Y011593D01*
X019360Y012993D01*
X019241Y013011D01*
X019860Y012911D01*
X020078Y012911D01*
X020160Y012993D01*
X021130Y012993D01*
X022605Y013593D02*
X022660Y013548D01*
X023260Y013593D02*
X023560Y013293D01*
X023560Y013028D01*
X023560Y012359D02*
X023560Y011728D01*
X023299Y011467D01*
X022671Y011467D01*
X022671Y010719D02*
X022671Y010470D01*
X022494Y010093D01*
X021825Y010093D02*
X021825Y009393D01*
X021829Y009393D01*
X021825Y010093D02*
X021648Y010470D01*
X021648Y010719D01*
X014292Y010925D02*
X014260Y010924D01*
D41*
X014260Y010893D01*
X017460Y007937D02*
X017500Y007947D01*
X017500Y007913D01*
X018560Y016193D02*
X021660Y016193D01*
X022060Y016593D01*
X022060Y019393D01*
X022171Y019505D01*
X022708Y019505D01*
X024048Y019505D01*
X024160Y019393D01*
X024160Y018780D01*
X024160Y018456D02*
X024160Y018049D01*
X023860Y017749D01*
X023340Y018813D02*
X023340Y016613D01*
X022920Y016193D01*
X022060Y016193D01*
X021860Y016693D02*
X021560Y016393D01*
X018860Y016393D01*
X018660Y016593D01*
X018660Y017093D01*
X018560Y017193D01*
X018278Y017075D02*
X018460Y016893D01*
X018460Y016293D01*
X018560Y016193D01*
X018278Y017075D02*
X018278Y018841D01*
X018534Y018841D02*
X018534Y019167D01*
X019160Y019793D01*
X019160Y020293D01*
X020060Y021193D01*
X020960Y021193D01*
X021460Y020693D01*
X021564Y020697D01*
X021900Y020697D01*
X022660Y020697D01*
X022700Y020697D01*
X022704Y020493D01*
X022708Y020017D01*
X022804Y020017D01*
X022708Y019761D02*
X024027Y019761D01*
X024160Y019893D01*
X024160Y020206D01*
X024160Y020530D02*
X023268Y020545D01*
X023215Y020493D01*
X022708Y019761D02*
X022127Y019761D01*
X021860Y019493D01*
X021860Y016693D01*
X022708Y018993D02*
X023160Y018993D01*
X023340Y018813D01*
X025360Y018593D02*
X025560Y018793D01*
X025560Y021993D01*
X026260Y022693D01*
X020520Y020693D02*
X019840Y020693D01*
X019640Y020493D01*
X019640Y020053D01*
X019952Y019761D01*
X020411Y019761D01*
X020411Y020017D02*
X020176Y020017D01*
X019960Y020193D01*
X019660Y019593D02*
X019738Y019505D01*
X020411Y019505D01*
X020411Y019249D02*
X019765Y019249D01*
X019660Y019193D01*
X018534Y018841D02*
X018534Y018375D01*
X018660Y018249D01*
X018022Y018841D02*
X018022Y017293D01*
X017960Y017193D01*
X016760Y017109D02*
X016744Y017093D01*
X016260Y017093D01*
X015714Y017093D01*
X015760Y017793D02*
X015760Y018074D01*
X015985Y018300D01*
X016260Y017793D02*
X016744Y017793D01*
X016760Y017778D01*
X014060Y017778D02*
X014044Y017793D01*
X013560Y017793D01*
X013060Y017793D02*
X013060Y018074D01*
X013285Y018300D01*
X013014Y017093D02*
X013560Y017093D01*
X014044Y017093D01*
X014060Y017109D01*
X011262Y017109D02*
X011258Y017093D01*
X010760Y017093D01*
X010760Y017793D02*
X011227Y017793D01*
X011235Y017795D01*
X011244Y017794D01*
X011252Y017791D01*
X011258Y017785D01*
X011262Y017778D01*
X011263Y017763D01*
X011260Y017748D01*
X011255Y017734D01*
X011247Y017722D01*
X011237Y017711D01*
X011225Y017702D01*
X011211Y017696D01*
X011197Y017693D01*
X010485Y018300D02*
X010260Y018074D01*
X010260Y017793D01*
D42*
X011262Y017109D02*
X011262Y017093D01*
X010893Y019126D02*
X010860Y019126D01*
X017820Y020993D02*
X018278Y020535D01*
X018278Y019904D01*
X018534Y019904D02*
X018534Y020707D01*
X018820Y020993D01*
X022660Y021093D02*
X022660Y020697D01*
X024160Y020206D02*
X024760Y020193D01*
X024760Y018793D02*
X024160Y018780D01*
X023860Y017237D02*
X023860Y016793D01*
X024177Y015693D02*
X026260Y015693D01*
D43*
X026260Y015463D01*
X026229Y016693D01*
X023260Y013593D02*
X022605Y013593D01*
X014044Y017793D02*
X014039Y017794D01*
X014034Y017799D01*
X014033Y017804D01*
X014034Y017804D02*
X014034Y018300D01*
D44*
X021130Y012993D03*
X023260Y013593D03*
X018760Y009993D03*
X016460Y009993D03*
X022660Y021093D03*
M02*
